<ttFont>
<head>
    <!-- Most of this table will be recalculated by the compiler -->
    <tableVersion value="1.0"/>
    <fontRevision value="0.07799"/>
    <checkSumAdjustment value="0x6618122f"/>
    <magicNumber value="0x5f0f3cf5"/>
    <flags value="00100000 00001111"/>
    <unitsPerEm value="1024"/>
    <created value="Thu Nov 16 10:04:27 2023"/>
    <modified value="Thu Nov 16 21:18:13 2023"/>
    <xMin value="-159"/>
    <yMin value="-202"/>
    <xMax value="726"/>
    <yMax value="960"/>
    <macStyle value="00000000 00000010"/>
    <lowestRecPPEM value="7"/>
    <fontDirectionHint value="2"/>
    <indexToLocFormat value="0"/>
    <glyphDataFormat value="0"/>
  </head>
    <TTGlyph name=".notdef" xMin="-17" yMin="-30" xMax="503" yMax="670">
      <contour>
        <pt x="123" y="670" on="1"/>
        <pt x="503" y="670" on="1"/>
        <pt x="363" y="-30" on="1"/>
        <pt x="-17" y="-30" on="1"/>
      </contour>
      <contour>
        <pt x="135" y="13" on="0"/>
        <pt x="161" y="-10" on="0"/>
        <pt x="181" y="-10" on="1"/>
        <pt x="202" y="-10" on="0"/>
        <pt x="234" y="15" on="0"/>
        <pt x="239" y="38" on="1"/>
        <pt x="241" y="48" on="0"/>
        <pt x="241" y="52" on="1"/>
        <pt x="241" y="71" on="0"/>
        <pt x="214" y="94" on="0"/>
        <pt x="195" y="94" on="1"/>
        <pt x="170" y="94" on="0"/>
        <pt x="135" y="61" on="0"/>
        <pt x="135" y="33" on="1"/>
      </contour>
      <contour>
        <pt x="299" y="597" on="0"/>
        <pt x="383" y="550" on="0"/>
        <pt x="383" y="515" on="1"/>
        <pt x="383" y="509" on="0"/>
        <pt x="381" y="495" on="1"/>
        <pt x="376" y="466" on="0"/>
        <pt x="345" y="426" on="0"/>
        <pt x="314" y="396" on="1"/>
        <pt x="283" y="367" on="0"/>
        <pt x="243" y="320" on="0"/>
        <pt x="205" y="244" on="0"/>
        <pt x="194" y="192" on="1"/>
        <pt x="240" y="192" on="1"/>
        <pt x="254" y="258" on="0"/>
        <pt x="308" y="334" on="0"/>
        <pt x="351" y="372" on="1"/>
        <pt x="386" y="404" on="0"/>
        <pt x="423" y="452" on="0"/>
        <pt x="430" y="489" on="1"/>
        <pt x="434" y="513" on="0"/>
        <pt x="434" y="522" on="1"/>
        <pt x="434" y="580" on="0"/>
        <pt x="320" y="641" on="0"/>
        <pt x="189" y="645" on="1"/>
        <pt x="182" y="603" on="1"/>
      </contour>
    </TTGlyph>
    <TTGlyph name="A" xMin="-5" yMin="0" xMax="376" yMax="643">
      <contour>
        <pt x="50" y="187" on="0"/>
        <pt x="199" y="521" on="0"/>
        <pt x="285" y="643" on="1"/>
        <pt x="326" y="643" on="1"/>
        <pt x="376" y="484" on="0"/>
        <pt x="376" y="252" on="1"/>
        <pt x="376" y="120" on="0"/>
        <pt x="362" y="0" on="1"/>
        <pt x="312" y="0" on="1"/>
        <pt x="323" y="114" on="0"/>
        <pt x="326" y="202" on="1"/>
        <pt x="115" y="202" on="1"/>
        <pt x="76" y="98" on="0"/>
        <pt x="47" y="0" on="1"/>
        <pt x="-5" y="0" on="1"/>
      </contour>
      <contour>
        <pt x="326" y="246" on="1"/>
        <pt x="329" y="438" on="0"/>
        <pt x="296" y="578" on="1"/>
        <pt x="210" y="446" on="0"/>
        <pt x="131" y="246" on="1"/>
      </contour>
    </TTGlyph>
    <TTGlyph name="A.hex" xMin="-4" yMin="0" xMax="371" yMax="579">
      <contour>
        <pt x="47" y="169" on="0"/>
        <pt x="189" y="469" on="0"/>
        <pt x="273" y="579" on="1"/>
        <pt x="313" y="579" on="1"/>
        <pt x="371" y="423" on="0"/>
        <pt x="371" y="192" on="1"/>
        <pt x="371" y="93" on="0"/>
        <pt x="361" y="0" on="1"/>
        <pt x="312" y="0" on="1"/>
        <pt x="319" y="80" on="0"/>
        <pt x="320" y="138" on="1"/>
        <pt x="95" y="138" on="1"/>
        <pt x="75" y="86" on="0"/>
        <pt x="48" y="0" on="1"/>
        <pt x="-4" y="0" on="1"/>
      </contour>
      <contour>
        <pt x="321" y="182" on="1"/>
        <pt x="323" y="381" on="0"/>
        <pt x="284" y="515" on="1"/>
        <pt x="192" y="384" on="0"/>
        <pt x="111" y="182" on="1"/>
      </contour>
    </TTGlyph>
    <TTGlyph name="A.short" xMin="-4" yMin="0" xMax="371" yMax="579">
      <component glyphName="A.hex" x="0" y="0" flags="0x400"/>
    </TTGlyph>
    <TTGlyph name="A.sups" xMin="128" yMin="320" xMax="365" yMax="642">
      <contour>
        <pt x="176" y="503" on="0"/>
        <pt x="271" y="642" on="1"/>
        <pt x="338" y="642" on="1"/>
        <pt x="365" y="555" on="0"/>
        <pt x="365" y="449" on="1"/>
        <pt x="365" y="388" on="0"/>
        <pt x="356" y="320" on="1"/>
        <pt x="292" y="320" on="1"/>
        <pt x="298" y="358" on="0"/>
        <pt x="301" y="394" on="1"/>
        <pt x="216" y="394" on="1"/>
        <pt x="198" y="335" on="0"/>
        <pt x="194" y="320" on="1"/>
        <pt x="128" y="320" on="1"/>
      </contour>
      <contour>
        <pt x="304" y="448" on="1"/>
        <pt x="305" y="518" on="0"/>
        <pt x="296" y="576" on="1"/>
        <pt x="265" y="523" on="0"/>
        <pt x="236" y="448" on="1"/>
      </contour>
    </TTGlyph>
    <TTGlyph name="AE" xMin="-58" yMin="0" xMax="525" yMax="640">
      <contour>
        <pt x="416" y="44" on="1"/>
        <pt x="407" y="0" on="1"/>
        <pt x="161" y="0" on="1"/>
        <pt x="201" y="202" on="1"/>
        <pt x="62" y="202" on="1"/>
        <pt x="21" y="88" on="0"/>
        <pt x="-5" y="0" on="1"/>
        <pt x="-58" y="0" on="1"/>
        <pt x="-4" y="186" on="0"/>
        <pt x="146" y="519" on="0"/>
        <pt x="231" y="640" on="1"/>
        <pt x="525" y="640" on="1"/>
        <pt x="516" y="596" on="1"/>
        <pt x="328" y="596" on="1"/>
        <pt x="271" y="310" on="1"/>
        <pt x="405" y="310" on="1"/>
        <pt x="396" y="266" on="1"/>
        <pt x="262" y="266" on="1"/>
        <pt x="218" y="44" on="1"/>
      </contour>
      <contour>
        <pt x="210" y="246" on="1"/>
        <pt x="280" y="596" on="1"/>
        <pt x="255" y="596" on="1"/>
        <pt x="159" y="449" on="0"/>
        <pt x="79" y="246" on="1"/>
      </contour>
    </TTGlyph>
    <TTGlyph name="AEacute" xMin="-58" yMin="0" xMax="525" yMax="840">
      <component glyphName="AE" x="0" y="0" flags="0x400"/>
      <component glyphName="acutecomb.case" x="41" y="0" flags="0x400"/>
    </TTGlyph>
    <TTGlyph name="Aacute" xMin="-5" yMin="0" xMax="442" yMax="840">
      <component glyphName="A" x="0" y="0" flags="0x400"/>
      <component glyphName="acutecomb.case" x="0" y="0" flags="0x400"/>
    </TTGlyph>
    <TTGlyph name="Abreve" xMin="-5" yMin="0" xMax="465" yMax="830">
      <component glyphName="A" x="0" y="0" flags="0x400"/>
      <component glyphName="uni0306.case" x="0" y="0" flags="0x400"/>
    </TTGlyph>
    <TTGlyph name="Acircumflex" xMin="-5" yMin="0" xMax="445" yMax="840">
      <component glyphName="A" x="0" y="0" flags="0x400"/>
      <component glyphName="uni0302.case" x="0" y="0" flags="0x400"/>
    </TTGlyph>
    <TTGlyph name="Adieresis" xMin="-5" yMin="0" xMax="472" yMax="810">
      <component glyphName="A" x="0" y="0" flags="0x400"/>
      <component glyphName="uni0308.case" x="0" y="0" flags="0x400"/>
    </TTGlyph>
    <TTGlyph name="Agrave" xMin="-5" yMin="0" xMax="376" yMax="840">
      <component glyphName="A" x="0" y="0" flags="0x400"/>
      <component glyphName="gravecomb.case" x="0" y="0" flags="0x400"/>
    </TTGlyph>
    <TTGlyph name="Alpha" xMin="-5" yMin="0" xMax="376" yMax="643">
      <component glyphName="A" x="0" y="0" flags="0x400"/>
    </TTGlyph>
    <TTGlyph name="Alphatonos" xMin="-5" yMin="0" xMax="376" yMax="704">
      <component glyphName="A" x="0" y="0" flags="0x400"/>
      <component glyphName="tonos" x="-192" y="0" flags="0x400"/>
    </TTGlyph>
    <TTGlyph name="Amacron" xMin="-5" yMin="0" xMax="445" yMax="762">
      <component glyphName="A" x="0" y="0" flags="0x400"/>
      <component glyphName="uni0304.case" x="0" y="0" flags="0x400"/>
    </TTGlyph>
    <TTGlyph name="Aogonek" xMin="-5" yMin="-197" xMax="376" yMax="643">
      <component glyphName="A" x="0" y="0" flags="0x400"/>
      <component glyphName="uni0328" x="33" y="0" flags="0x400"/>
    </TTGlyph>
    <TTGlyph name="Aring" xMin="-4" yMin="0" xMax="423" yMax="815">
      <component glyphName="A.short" x="0" y="0" flags="0x400"/>
      <component glyphName="uni030A.case" x="0" y="0" flags="0x400"/>
    </TTGlyph>
    <TTGlyph name="Aringacute" xMin="-4" yMin="0" xMax="439" yMax="838">
      <component glyphName="A.short" x="0" y="0" flags="0x400"/>
      <component glyphName="uni030A.case" x="-16" y="-91" flags="0x404"/>
      <component glyphName="acutecomb.case" x="-3" y="-2" flags="0x404"/>
    </TTGlyph>
    <TTGlyph name="Atilde" xMin="-5" yMin="0" xMax="490" yMax="837">
      <component glyphName="A" x="0" y="0" flags="0x400"/>
      <component glyphName="tildecomb.case" x="0" y="0" flags="0x400"/>
    </TTGlyph>
    <TTGlyph name="B" xMin="21" yMin="0" xMax="438" yMax="640">
      <contour>
        <pt x="149" y="640" on="1"/>
        <pt x="271" y="640" on="1"/>
        <pt x="351" y="640" on="0"/>
        <pt x="438" y="576" on="0"/>
        <pt x="438" y="515" on="1"/>
        <pt x="438" y="494" on="0"/>
        <pt x="434" y="474" on="1"/>
        <pt x="414" y="380" on="0"/>
        <pt x="306" y="310" on="1"/>
        <pt x="348" y="298" on="0"/>
        <pt x="396" y="240" on="0"/>
        <pt x="396" y="196" on="1"/>
        <pt x="396" y="177" on="0"/>
        <pt x="392" y="160" on="1"/>
        <pt x="377" y="83" on="0"/>
        <pt x="257" y="0" on="0"/>
        <pt x="167" y="0" on="1"/>
        <pt x="21" y="0" on="1"/>
      </contour>
      <contour>
        <pt x="171" y="44" on="1"/>
        <pt x="318" y="44" on="0"/>
        <pt x="342" y="168" on="1"/>
        <pt x="345" y="185" on="0"/>
        <pt x="345" y="199" on="1"/>
        <pt x="345" y="239" on="0"/>
        <pt x="287" y="282" on="0"/>
        <pt x="222" y="282" on="1"/>
        <pt x="126" y="282" on="1"/>
        <pt x="78" y="44" on="1"/>
      </contour>
      <contour>
        <pt x="264" y="326" on="1"/>
        <pt x="319" y="359" on="0"/>
        <pt x="386" y="466" on="0"/>
        <pt x="386" y="516" on="1"/>
        <pt x="386" y="556" on="0"/>
        <pt x="328" y="596" on="0"/>
        <pt x="265" y="596" on="1"/>
        <pt x="188" y="596" on="1"/>
        <pt x="134" y="326" on="1"/>
      </contour>
    </TTGlyph>
    <TTGlyph name="B.hex" xMin="21" yMin="0" xMax="428" yMax="576">
      <contour>
        <pt x="136" y="576" on="1"/>
        <pt x="258" y="576" on="1"/>
        <pt x="339" y="576" on="0"/>
        <pt x="428" y="517" on="0"/>
        <pt x="428" y="460" on="1"/>
        <pt x="428" y="450" on="0"/>
        <pt x="424" y="426" on="1"/>
        <pt x="408" y="343" on="0"/>
        <pt x="301" y="277" on="1"/>
        <pt x="344" y="265" on="0"/>
        <pt x="392" y="212" on="0"/>
        <pt x="392" y="172" on="1"/>
        <pt x="392" y="159" on="0"/>
        <pt x="389" y="144" on="1"/>
        <pt x="375" y="74" on="0"/>
        <pt x="257" y="0" on="0"/>
        <pt x="167" y="0" on="1"/>
        <pt x="21" y="0" on="1"/>
      </contour>
      <contour>
        <pt x="171" y="44" on="1"/>
        <pt x="316" y="44" on="0"/>
        <pt x="338" y="152" on="1"/>
        <pt x="341" y="164" on="0"/>
        <pt x="341" y="176" on="1"/>
        <pt x="341" y="250" on="0"/>
        <pt x="216" y="250" on="1"/>
        <pt x="119" y="250" on="1"/>
        <pt x="78" y="44" on="1"/>
      </contour>
      <contour>
        <pt x="258" y="294" on="1"/>
        <pt x="311" y="322" on="0"/>
        <pt x="375" y="417" on="0"/>
        <pt x="375" y="461" on="1"/>
        <pt x="375" y="497" on="0"/>
        <pt x="316" y="532" on="0"/>
        <pt x="252" y="532" on="1"/>
        <pt x="175" y="532" on="1"/>
        <pt x="128" y="294" on="1"/>
      </contour>
    </TTGlyph>
    <TTGlyph name="B.sups" xMin="137" yMin="320" xMax="390" yMax="640">
      <contour>
        <pt x="201" y="640" on="1"/>
        <pt x="294" y="640" on="1"/>
        <pt x="339" y="640" on="0"/>
        <pt x="390" y="602" on="0"/>
        <pt x="390" y="570" on="1"/>
        <pt x="390" y="519" on="0"/>
        <pt x="338" y="478" on="1"/>
        <pt x="372" y="459" on="0"/>
        <pt x="372" y="421" on="1"/>
        <pt x="372" y="416" on="0"/>
        <pt x="370" y="404" on="1"/>
        <pt x="362" y="367" on="0"/>
        <pt x="297" y="320" on="0"/>
        <pt x="246" y="320" on="1"/>
        <pt x="137" y="320" on="1"/>
      </contour>
      <contour>
        <pt x="246" y="372" on="1"/>
        <pt x="297" y="372" on="0"/>
        <pt x="305" y="416" on="1"/>
        <pt x="311" y="446" on="0"/>
        <pt x="266" y="446" on="1"/>
        <pt x="226" y="446" on="1"/>
        <pt x="211" y="372" on="1"/>
      </contour>
      <contour>
        <pt x="286" y="498" on="1"/>
        <pt x="303" y="512" on="0"/>
        <pt x="323" y="547" on="0"/>
        <pt x="323" y="564" on="1"/>
        <pt x="323" y="576" on="0"/>
        <pt x="306" y="588" on="0"/>
        <pt x="285" y="588" on="1"/>
        <pt x="255" y="588" on="1"/>
        <pt x="237" y="498" on="1"/>
      </contour>
    </TTGlyph>
    <TTGlyph name="Beta" xMin="21" yMin="0" xMax="438" yMax="640">
      <component glyphName="B" x="0" y="0" flags="0x400"/>
    </TTGlyph>
    <TTGlyph name="C" xMin="66" yMin="-9" xMax="453" yMax="647">
      <contour>
        <pt x="144" y="-9" on="0"/>
        <pt x="66" y="70" on="0"/>
        <pt x="66" y="160" on="1"/>
        <pt x="66" y="223" on="0"/>
        <pt x="86" y="323" on="1"/>
        <pt x="110" y="444" on="0"/>
        <pt x="178" y="584" on="0"/>
        <pt x="278" y="647" on="0"/>
        <pt x="353" y="647" on="1"/>
        <pt x="407" y="647" on="0"/>
        <pt x="453" y="636" on="1"/>
        <pt x="442" y="596" on="1"/>
        <pt x="399" y="603" on="0"/>
        <pt x="354" y="603" on="1"/>
        <pt x="290" y="603" on="0"/>
        <pt x="210" y="545" on="0"/>
        <pt x="160" y="422" on="0"/>
        <pt x="138" y="315" on="1"/>
        <pt x="118" y="215" on="0"/>
        <pt x="118" y="158" on="1"/>
        <pt x="118" y="93" on="0"/>
        <pt x="173" y="35" on="0"/>
        <pt x="236" y="35" on="1"/>
        <pt x="278" y="35" on="0"/>
        <pt x="332" y="44" on="1"/>
        <pt x="334" y="4" on="1"/>
        <pt x="271" y="-9" on="0"/>
        <pt x="229" y="-9" on="1"/>
      </contour>
    </TTGlyph>
    <TTGlyph name="C.hex" xMin="62" yMin="-9" xMax="440" yMax="583">
      <contour>
        <pt x="142" y="-9" on="0"/>
        <pt x="62" y="67" on="0"/>
        <pt x="62" y="153" on="1"/>
        <pt x="62" y="208" on="0"/>
        <pt x="79" y="291" on="1"/>
        <pt x="101" y="400" on="0"/>
        <pt x="166" y="526" on="0"/>
        <pt x="265" y="583" on="0"/>
        <pt x="340" y="583" on="1"/>
        <pt x="394" y="583" on="0"/>
        <pt x="440" y="572" on="1"/>
        <pt x="429" y="532" on="1"/>
        <pt x="386" y="539" on="0"/>
        <pt x="341" y="539" on="1"/>
        <pt x="277" y="539" on="0"/>
        <pt x="199" y="487" on="0"/>
        <pt x="151" y="378" on="0"/>
        <pt x="132" y="283" on="1"/>
        <pt x="115" y="200" on="0"/>
        <pt x="115" y="150" on="1"/>
        <pt x="115" y="89" on="0"/>
        <pt x="171" y="35" on="0"/>
        <pt x="236" y="35" on="1"/>
        <pt x="278" y="35" on="0"/>
        <pt x="332" y="44" on="1"/>
        <pt x="333" y="4" on="1"/>
        <pt x="272" y="-9" on="0"/>
        <pt x="229" y="-9" on="1"/>
      </contour>
    </TTGlyph>
    <TTGlyph name="C.sups" xMin="171" yMin="316" xMax="405" yMax="644">
      <contour>
        <pt x="303" y="372" on="0"/>
        <pt x="343" y="380" on="1"/>
        <pt x="347" y="325" on="1"/>
        <pt x="314" y="316" on="0"/>
        <pt x="274" y="316" on="1"/>
        <pt x="224" y="316" on="0"/>
        <pt x="171" y="374" on="0"/>
        <pt x="171" y="429" on="1"/>
        <pt x="171" y="455" on="0"/>
        <pt x="177" y="486" on="1"/>
        <pt x="193" y="563" on="0"/>
        <pt x="272" y="644" on="0"/>
        <pt x="330" y="644" on="1"/>
        <pt x="367" y="644" on="0"/>
        <pt x="405" y="633" on="1"/>
        <pt x="389" y="582" on="1"/>
        <pt x="361" y="588" on="0"/>
        <pt x="333" y="588" on="1"/>
        <pt x="299" y="588" on="0"/>
        <pt x="256" y="541" on="0"/>
        <pt x="243" y="474" on="1"/>
        <pt x="237" y="446" on="0"/>
        <pt x="237" y="425" on="1"/>
        <pt x="237" y="396" on="0"/>
        <pt x="261" y="372" on="0"/>
        <pt x="283" y="372" on="1"/>
      </contour>
    </TTGlyph>
    <TTGlyph name="Cacute" xMin="66" yMin="-9" xMax="474" yMax="840">
      <component glyphName="C" x="0" y="0" flags="0x400"/>
      <component glyphName="acutecomb.case" x="32" y="0" flags="0x400"/>
    </TTGlyph>
    <TTGlyph name="Ccaron" xMin="66" yMin="-9" xMax="505" yMax="840">
      <component glyphName="C" x="0" y="0" flags="0x400"/>
      <component glyphName="uni030C.case" x="32" y="0" flags="0x400"/>
    </TTGlyph>
    <TTGlyph name="Ccedilla" xMin="46" yMin="-192" xMax="453" yMax="647">
      <component glyphName="C" x="0" y="0" flags="0x400"/>
      <component glyphName="uni0327" x="0" y="0" flags="0x400"/>
    </TTGlyph>
    <TTGlyph name="Ccircumflex" xMin="66" yMin="-9" xMax="477" yMax="840">
      <component glyphName="C" x="0" y="0" flags="0x400"/>
      <component glyphName="uni0302.case" x="32" y="0" flags="0x400"/>
    </TTGlyph>
    <TTGlyph name="Cdotaccent" xMin="66" yMin="-9" xMax="453" yMax="813">
      <component glyphName="C" x="0" y="0" flags="0x400"/>
      <component glyphName="uni0307.case" x="32" y="0" flags="0x400"/>
    </TTGlyph>
    <TTGlyph name="Chi" xMin="7" yMin="0" xMax="469" yMax="640">
      <component glyphName="X" x="0" y="0" flags="0x400"/>
    </TTGlyph>
    <TTGlyph name="D" xMin="21" yMin="0" xMax="424" yMax="640">
      <contour>
        <pt x="344" y="640" on="0"/>
        <pt x="424" y="556" on="0"/>
        <pt x="424" y="464" on="1"/>
        <pt x="424" y="402" on="0"/>
        <pt x="406" y="313" on="1"/>
        <pt x="383" y="198" on="0"/>
        <pt x="314" y="61" on="0"/>
        <pt x="212" y="0" on="0"/>
        <pt x="137" y="0" on="1"/>
        <pt x="21" y="0" on="1"/>
        <pt x="149" y="640" on="1"/>
        <pt x="260" y="640" on="1"/>
      </contour>
      <contour>
        <pt x="135" y="44" on="1"/>
        <pt x="205" y="44" on="0"/>
        <pt x="286" y="103" on="0"/>
        <pt x="333" y="219" on="0"/>
        <pt x="353" y="321" on="1"/>
        <pt x="374" y="424" on="0"/>
        <pt x="374" y="478" on="1"/>
        <pt x="374" y="540" on="0"/>
        <pt x="317" y="596" on="0"/>
        <pt x="249" y="596" on="1"/>
        <pt x="188" y="596" on="1"/>
        <pt x="78" y="44" on="1"/>
      </contour>
    </TTGlyph>
    <TTGlyph name="D.hex" xMin="21" yMin="0" xMax="414" yMax="576">
      <contour>
        <pt x="333" y="576" on="0"/>
        <pt x="414" y="496" on="0"/>
        <pt x="414" y="409" on="1"/>
        <pt x="414" y="355" on="0"/>
        <pt x="399" y="281" on="1"/>
        <pt x="378" y="177" on="0"/>
        <pt x="313" y="55" on="0"/>
        <pt x="212" y="0" on="0"/>
        <pt x="137" y="0" on="1"/>
        <pt x="21" y="0" on="1"/>
        <pt x="136" y="576" on="1"/>
        <pt x="247" y="576" on="1"/>
      </contour>
      <contour>
        <pt x="135" y="44" on="1"/>
        <pt x="205" y="44" on="0"/>
        <pt x="285" y="96" on="0"/>
        <pt x="329" y="199" on="0"/>
        <pt x="347" y="289" on="1"/>
        <pt x="364" y="379" on="0"/>
        <pt x="364" y="420" on="1"/>
        <pt x="364" y="479" on="0"/>
        <pt x="306" y="532" on="0"/>
        <pt x="236" y="532" on="1"/>
        <pt x="175" y="532" on="1"/>
        <pt x="78" y="44" on="1"/>
      </contour>
    </TTGlyph>
    <TTGlyph name="D.sups" xMin="134" yMin="320" xMax="394" yMax="640">
      <contour>
        <pt x="198" y="640" on="1"/>
        <pt x="289" y="640" on="1"/>
        <pt x="342" y="640" on="0"/>
        <pt x="394" y="590" on="0"/>
        <pt x="394" y="537" on="1"/>
        <pt x="394" y="507" on="0"/>
        <pt x="387" y="472" on="1"/>
        <pt x="371" y="390" on="0"/>
        <pt x="296" y="320" on="0"/>
        <pt x="232" y="320" on="1"/>
        <pt x="134" y="320" on="1"/>
      </contour>
      <contour>
        <pt x="233" y="374" on="1"/>
        <pt x="271" y="374" on="0"/>
        <pt x="309" y="422" on="0"/>
        <pt x="322" y="484" on="1"/>
        <pt x="330" y="526" on="0"/>
        <pt x="330" y="544" on="1"/>
        <pt x="330" y="567" on="0"/>
        <pt x="308" y="586" on="0"/>
        <pt x="281" y="586" on="1"/>
        <pt x="251" y="586" on="1"/>
        <pt x="209" y="374" on="1"/>
      </contour>
    </TTGlyph>
    <TTGlyph name="Dcaron" xMin="21" yMin="0" xMax="461" yMax="840">
      <component glyphName="D" x="0" y="0" flags="0x400"/>
      <component glyphName="uni030C.case" x="-12" y="0" flags="0x400"/>
    </TTGlyph>
    <TTGlyph name="Dcroat" xMin="19" yMin="0" xMax="424" yMax="640">
      <component glyphName="Eth" x="0" y="0" flags="0x400"/>
    </TTGlyph>
    <TTGlyph name="E" xMin="21" yMin="0" xMax="445" yMax="640">
      <contour>
        <pt x="149" y="640" on="1"/>
        <pt x="445" y="640" on="1"/>
        <pt x="436" y="596" on="1"/>
        <pt x="188" y="596" on="1"/>
        <pt x="131" y="310" on="1"/>
        <pt x="325" y="310" on="1"/>
        <pt x="316" y="266" on="1"/>
        <pt x="122" y="266" on="1"/>
        <pt x="78" y="44" on="1"/>
        <pt x="336" y="44" on="1"/>
        <pt x="327" y="0" on="1"/>
        <pt x="21" y="0" on="1"/>
      </contour>
    </TTGlyph>
    <TTGlyph name="E.hex" xMin="21" yMin="0" xMax="432" yMax="576">
      <contour>
        <pt x="136" y="576" on="1"/>
        <pt x="432" y="576" on="1"/>
        <pt x="423" y="532" on="1"/>
        <pt x="175" y="532" on="1"/>
        <pt x="128" y="294" on="1"/>
        <pt x="322" y="294" on="1"/>
        <pt x="313" y="250" on="1"/>
        <pt x="119" y="250" on="1"/>
        <pt x="78" y="44" on="1"/>
        <pt x="336" y="44" on="1"/>
        <pt x="327" y="0" on="1"/>
        <pt x="21" y="0" on="1"/>
      </contour>
    </TTGlyph>
    <TTGlyph name="E.short" xMin="21" yMin="0" xMax="432" yMax="576">
      <component glyphName="E.hex" x="0" y="0" flags="0x400"/>
    </TTGlyph>
    <TTGlyph name="E.sups" xMin="147" yMin="320" xMax="399" yMax="640">
      <contour>
        <pt x="211" y="640" on="1"/>
        <pt x="399" y="640" on="1"/>
        <pt x="388" y="584" on="1"/>
        <pt x="264" y="584" on="1"/>
        <pt x="249" y="508" on="1"/>
        <pt x="361" y="508" on="1"/>
        <pt x="350" y="452" on="1"/>
        <pt x="238" y="452" on="1"/>
        <pt x="222" y="376" on="1"/>
        <pt x="350" y="376" on="1"/>
        <pt x="339" y="320" on="1"/>
        <pt x="147" y="320" on="1"/>
      </contour>
    </TTGlyph>
    <TTGlyph name="Eacute" xMin="21" yMin="0" xMax="445" yMax="840">
      <component glyphName="E" x="0" y="0" flags="0x400"/>
      <component glyphName="acutecomb.case" x="-4" y="0" flags="0x400"/>
    </TTGlyph>
    <TTGlyph name="Ebreve" xMin="21" yMin="0" xMax="461" yMax="830">
      <component glyphName="E" x="0" y="0" flags="0x400"/>
      <component glyphName="uni0306.case" x="-4" y="0" flags="0x400"/>
    </TTGlyph>
    <TTGlyph name="Ecaron" xMin="21" yMin="0" xMax="469" yMax="840">
      <component glyphName="E" x="0" y="0" flags="0x400"/>
      <component glyphName="uni030C.case" x="-4" y="0" flags="0x400"/>
    </TTGlyph>
    <TTGlyph name="Ecircumflex" xMin="21" yMin="0" xMax="445" yMax="840">
      <component glyphName="E" x="0" y="0" flags="0x400"/>
      <component glyphName="uni0302.case" x="-4" y="0" flags="0x400"/>
    </TTGlyph>
    <TTGlyph name="Edieresis" xMin="21" yMin="0" xMax="468" yMax="810">
      <component glyphName="E" x="0" y="0" flags="0x400"/>
      <component glyphName="uni0308.case" x="-4" y="0" flags="0x400"/>
    </TTGlyph>
    <TTGlyph name="Edotaccent" xMin="21" yMin="0" xMax="445" yMax="813">
      <component glyphName="E" x="0" y="0" flags="0x400"/>
      <component glyphName="uni0307.case" x="-4" y="0" flags="0x400"/>
    </TTGlyph>
    <TTGlyph name="Egrave" xMin="21" yMin="0" xMax="445" yMax="840">
      <component glyphName="E" x="0" y="0" flags="0x400"/>
      <component glyphName="gravecomb.case" x="-4" y="0" flags="0x400"/>
    </TTGlyph>
    <TTGlyph name="Emacron" xMin="21" yMin="0" xMax="445" yMax="762">
      <component glyphName="E" x="0" y="0" flags="0x400"/>
      <component glyphName="uni0304.case" x="-4" y="0" flags="0x400"/>
    </TTGlyph>
    <TTGlyph name="Eng" xMin="21" yMin="-13" xMax="442" yMax="644">
      <contour>
        <pt x="134" y="562" on="1"/>
        <pt x="147" y="640" on="1"/>
        <pt x="191" y="640" on="1"/>
        <pt x="180" y="572" on="1"/>
        <pt x="269" y="644" on="0"/>
        <pt x="342" y="644" on="1"/>
        <pt x="387" y="644" on="0"/>
        <pt x="442" y="598" on="0"/>
        <pt x="442" y="546" on="1"/>
        <pt x="442" y="529" on="0"/>
        <pt x="437" y="499" on="1"/>
        <pt x="373" y="177" on="1"/>
        <pt x="359" y="104" on="0"/>
        <pt x="295" y="17" on="0"/>
        <pt x="224" y="-13" on="1"/>
        <pt x="209" y="28" on="1"/>
        <pt x="259" y="48" on="0"/>
        <pt x="312" y="115" on="0"/>
        <pt x="324" y="173" on="1"/>
        <pt x="389" y="499" on="1"/>
        <pt x="394" y="527" on="0"/>
        <pt x="394" y="543" on="1"/>
        <pt x="394" y="574" on="0"/>
        <pt x="364" y="600" on="0"/>
        <pt x="331" y="600" on="1"/>
        <pt x="294" y="600" on="0"/>
        <pt x="219" y="563" on="0"/>
        <pt x="176" y="529" on="1"/>
        <pt x="69" y="0" on="1"/>
        <pt x="21" y="0" on="1"/>
      </contour>
    </TTGlyph>
    <TTGlyph name="Eng.loclNSM" xMin="21" yMin="-197" xMax="465" yMax="640">
      <contour>
        <pt x="322" y="-80" on="0"/>
        <pt x="258" y="-167" on="0"/>
        <pt x="187" y="-197" on="1"/>
        <pt x="172" y="-156" on="1"/>
        <pt x="222" y="-136" on="0"/>
        <pt x="275" y="-69" on="0"/>
        <pt x="287" y="-11" on="1"/>
        <pt x="291" y="7" on="1"/>
        <pt x="213" y="385" on="1"/>
        <pt x="181" y="560" on="1"/>
        <pt x="69" y="0" on="1"/>
        <pt x="21" y="0" on="1"/>
        <pt x="149" y="640" on="1"/>
        <pt x="212" y="640" on="1"/>
        <pt x="290" y="261" on="1"/>
        <pt x="314" y="124" on="1"/>
        <pt x="417" y="640" on="1"/>
        <pt x="465" y="640" on="1"/>
        <pt x="336" y="-7" on="1"/>
      </contour>
    </TTGlyph>
    <TTGlyph name="Eogonek" xMin="21" yMin="-197" xMax="445" yMax="640">
      <component glyphName="E" x="0" y="0" flags="0x400"/>
      <component glyphName="uni0328" x="-2" y="0" flags="0x400"/>
    </TTGlyph>
    <TTGlyph name="Epsilon" xMin="21" yMin="0" xMax="445" yMax="640">
      <component glyphName="E" x="0" y="0" flags="0x400"/>
    </TTGlyph>
    <TTGlyph name="Epsilontonos" xMin="9" yMin="0" xMax="445" yMax="704">
      <component glyphName="E" x="0" y="0" flags="0x400"/>
      <component glyphName="tonos" x="-256" y="0" flags="0x400"/>
    </TTGlyph>
    <TTGlyph name="Eta" xMin="21" yMin="0" xMax="465" yMax="640">
      <component glyphName="H" x="0" y="0" flags="0x400"/>
    </TTGlyph>
    <TTGlyph name="Etatonos" xMin="9" yMin="0" xMax="465" yMax="704">
      <component glyphName="H" x="0" y="0" flags="0x400"/>
      <component glyphName="tonos" x="-256" y="0" flags="0x400"/>
    </TTGlyph>
    <TTGlyph name="Eth" xMin="19" yMin="0" xMax="424" yMax="640">
      <contour>
        <pt x="83" y="310" on="1"/>
        <pt x="149" y="640" on="1"/>
        <pt x="260" y="640" on="1"/>
        <pt x="344" y="640" on="0"/>
        <pt x="424" y="556" on="0"/>
        <pt x="424" y="464" on="1"/>
        <pt x="424" y="402" on="0"/>
        <pt x="406" y="313" on="1"/>
        <pt x="383" y="198" on="0"/>
        <pt x="314" y="61" on="0"/>
        <pt x="212" y="0" on="0"/>
        <pt x="137" y="0" on="1"/>
        <pt x="21" y="0" on="1"/>
        <pt x="74" y="266" on="1"/>
        <pt x="19" y="266" on="1"/>
        <pt x="28" y="310" on="1"/>
      </contour>
      <contour>
        <pt x="135" y="44" on="1"/>
        <pt x="205" y="44" on="0"/>
        <pt x="286" y="103" on="0"/>
        <pt x="333" y="219" on="0"/>
        <pt x="353" y="321" on="1"/>
        <pt x="374" y="424" on="0"/>
        <pt x="374" y="478" on="1"/>
        <pt x="374" y="540" on="0"/>
        <pt x="317" y="596" on="0"/>
        <pt x="249" y="596" on="1"/>
        <pt x="188" y="596" on="1"/>
        <pt x="131" y="310" on="1"/>
        <pt x="247" y="310" on="1"/>
        <pt x="238" y="266" on="1"/>
        <pt x="122" y="266" on="1"/>
        <pt x="78" y="44" on="1"/>
      </contour>
    </TTGlyph>
    <TTGlyph name="Euro" xMin="65" yMin="-7" xMax="470" yMax="583">
      <contour>
        <pt x="304" y="37" on="0"/>
        <pt x="355" y="51" on="1"/>
        <pt x="362" y="10" on="1"/>
        <pt x="315" y="-7" on="0"/>
        <pt x="265" y="-7" on="1"/>
        <pt x="117" y="-7" on="0"/>
        <pt x="117" y="163" on="1"/>
        <pt x="117" y="175" on="0"/>
        <pt x="119" y="201" on="1"/>
        <pt x="65" y="201" on="1"/>
        <pt x="74" y="245" on="1"/>
        <pt x="124" y="245" on="1"/>
        <pt x="126" y="260" on="0"/>
        <pt x="132" y="292" on="1"/>
        <pt x="141" y="331" on="1"/>
        <pt x="91" y="331" on="1"/>
        <pt x="100" y="375" on="1"/>
        <pt x="153" y="375" on="1"/>
        <pt x="185" y="477" on="0"/>
        <pt x="294" y="583" on="0"/>
        <pt x="376" y="583" on="1"/>
        <pt x="398" y="583" on="0"/>
        <pt x="449" y="573" on="0"/>
        <pt x="470" y="564" on="1"/>
        <pt x="453" y="528" on="1"/>
        <pt x="418" y="539" on="0"/>
        <pt x="378" y="539" on="1"/>
        <pt x="317" y="539" on="0"/>
        <pt x="229" y="461" on="0"/>
        <pt x="201" y="375" on="1"/>
        <pt x="389" y="375" on="1"/>
        <pt x="370" y="331" on="1"/>
        <pt x="189" y="331" on="1"/>
        <pt x="181" y="301" on="0"/>
        <pt x="178" y="284" on="1"/>
        <pt x="171" y="245" on="1"/>
        <pt x="335" y="245" on="1"/>
        <pt x="317" y="201" on="1"/>
        <pt x="166" y="201" on="1"/>
        <pt x="164" y="173" on="0"/>
        <pt x="164" y="163" on="1"/>
        <pt x="164" y="95" on="0"/>
        <pt x="217" y="37" on="0"/>
        <pt x="271" y="37" on="1"/>
      </contour>
    </TTGlyph>
    <TTGlyph name="F" xMin="22" yMin="0" xMax="455" yMax="640">
      <contour>
        <pt x="150" y="640" on="1"/>
        <pt x="455" y="640" on="1"/>
        <pt x="446" y="596" on="1"/>
        <pt x="189" y="596" on="1"/>
        <pt x="132" y="310" on="1"/>
        <pt x="325" y="310" on="1"/>
        <pt x="316" y="266" on="1"/>
        <pt x="123" y="266" on="1"/>
        <pt x="70" y="0" on="1"/>
        <pt x="22" y="0" on="1"/>
      </contour>
    </TTGlyph>
    <TTGlyph name="F.hex" xMin="22" yMin="0" xMax="442" yMax="576">
      <contour>
        <pt x="137" y="576" on="1"/>
        <pt x="442" y="576" on="1"/>
        <pt x="433" y="532" on="1"/>
        <pt x="176" y="532" on="1"/>
        <pt x="129" y="294" on="1"/>
        <pt x="322" y="294" on="1"/>
        <pt x="313" y="250" on="1"/>
        <pt x="120" y="250" on="1"/>
        <pt x="70" y="0" on="1"/>
        <pt x="22" y="0" on="1"/>
      </contour>
    </TTGlyph>
    <TTGlyph name="F.sups" xMin="147" yMin="320" xMax="403" yMax="640">
      <contour>
        <pt x="211" y="640" on="1"/>
        <pt x="403" y="640" on="1"/>
        <pt x="392" y="584" on="1"/>
        <pt x="264" y="584" on="1"/>
        <pt x="248" y="504" on="1"/>
        <pt x="356" y="504" on="1"/>
        <pt x="345" y="448" on="1"/>
        <pt x="237" y="448" on="1"/>
        <pt x="211" y="320" on="1"/>
        <pt x="147" y="320" on="1"/>
      </contour>
    </TTGlyph>
    <TTGlyph name="G" xMin="60" yMin="-9" xMax="454" yMax="647">
      <contour>
        <pt x="138" y="-9" on="0"/>
        <pt x="60" y="70" on="0"/>
        <pt x="60" y="160" on="1"/>
        <pt x="60" y="223" on="0"/>
        <pt x="80" y="323" on="1"/>
        <pt x="104" y="444" on="0"/>
        <pt x="172" y="584" on="0"/>
        <pt x="272" y="647" on="0"/>
        <pt x="347" y="647" on="1"/>
        <pt x="407" y="647" on="0"/>
        <pt x="454" y="634" on="1"/>
        <pt x="444" y="594" on="1"/>
        <pt x="393" y="603" on="0"/>
        <pt x="348" y="603" on="1"/>
        <pt x="284" y="603" on="0"/>
        <pt x="204" y="545" on="0"/>
        <pt x="154" y="422" on="0"/>
        <pt x="132" y="315" on="1"/>
        <pt x="112" y="215" on="0"/>
        <pt x="112" y="158" on="1"/>
        <pt x="112" y="93" on="0"/>
        <pt x="167" y="35" on="0"/>
        <pt x="230" y="35" on="1"/>
        <pt x="257" y="35" on="0"/>
        <pt x="297" y="40" on="1"/>
        <pt x="342" y="266" on="1"/>
        <pt x="243" y="266" on="1"/>
        <pt x="252" y="310" on="1"/>
        <pt x="399" y="310" on="1"/>
        <pt x="339" y="7" on="1"/>
        <pt x="311" y="0" on="0"/>
        <pt x="246" y="-9" on="0"/>
        <pt x="223" y="-9" on="1"/>
      </contour>
    </TTGlyph>
    <TTGlyph name="G.sups" xMin="146" yMin="315" xMax="401" yMax="647">
      <contour>
        <pt x="197" y="315" on="0"/>
        <pt x="146" y="364" on="0"/>
        <pt x="146" y="418" on="1"/>
        <pt x="146" y="445" on="0"/>
        <pt x="154" y="487" on="1"/>
        <pt x="171" y="571" on="0"/>
        <pt x="247" y="647" on="0"/>
        <pt x="314" y="647" on="1"/>
        <pt x="353" y="647" on="0"/>
        <pt x="401" y="637" on="1"/>
        <pt x="386" y="583" on="1"/>
        <pt x="342" y="591" on="0"/>
        <pt x="316" y="591" on="1"/>
        <pt x="283" y="591" on="0"/>
        <pt x="247" y="567" on="0"/>
        <pt x="227" y="519" on="0"/>
        <pt x="218" y="475" on="1"/>
        <pt x="209" y="425" on="0"/>
        <pt x="209" y="411" on="1"/>
        <pt x="209" y="389" on="0"/>
        <pt x="228" y="371" on="0"/>
        <pt x="251" y="371" on="1"/>
        <pt x="260" y="371" on="0"/>
        <pt x="286" y="373" on="1"/>
        <pt x="313" y="512" on="1"/>
        <pt x="377" y="512" on="1"/>
        <pt x="340" y="325" on="1"/>
        <pt x="292" y="315" on="0"/>
        <pt x="248" y="315" on="1"/>
      </contour>
    </TTGlyph>
    <TTGlyph name="Gamma" xMin="21" yMin="0" xMax="461" yMax="640">
      <component glyphName="uni0413" x="0" y="0" flags="0x400"/>
    </TTGlyph>
    <TTGlyph name="Gbreve" xMin="60" yMin="-9" xMax="485" yMax="830">
      <component glyphName="G" x="0" y="0" flags="0x400"/>
      <component glyphName="uni0306.case" x="20" y="0" flags="0x400"/>
    </TTGlyph>
    <TTGlyph name="Gcaron" xMin="60" yMin="-9" xMax="493" yMax="840">
      <component glyphName="G" x="0" y="0" flags="0x400"/>
      <component glyphName="uni030C.case" x="20" y="0" flags="0x400"/>
    </TTGlyph>
    <TTGlyph name="Gcircumflex" xMin="60" yMin="-9" xMax="465" yMax="840">
      <component glyphName="G" x="0" y="0" flags="0x400"/>
      <component glyphName="uni0302.case" x="20" y="0" flags="0x400"/>
    </TTGlyph>
    <TTGlyph name="Gdotaccent" xMin="60" yMin="-9" xMax="454" yMax="813">
      <component glyphName="G" x="0" y="0" flags="0x400"/>
      <component glyphName="uni0307.case" x="20" y="0" flags="0x400"/>
    </TTGlyph>
    <TTGlyph name="H" xMin="21" yMin="0" xMax="465" yMax="640">
      <contour>
        <pt x="149" y="640" on="1"/>
        <pt x="197" y="640" on="1"/>
        <pt x="131" y="310" on="1"/>
        <pt x="351" y="310" on="1"/>
        <pt x="417" y="640" on="1"/>
        <pt x="465" y="640" on="1"/>
        <pt x="337" y="0" on="1"/>
        <pt x="289" y="0" on="1"/>
        <pt x="342" y="266" on="1"/>
        <pt x="122" y="266" on="1"/>
        <pt x="69" y="0" on="1"/>
        <pt x="21" y="0" on="1"/>
      </contour>
    </TTGlyph>
    <TTGlyph name="H.sups" xMin="137" yMin="320" xMax="413" yMax="640">
      <contour>
        <pt x="239" y="508" on="1"/>
        <pt x="323" y="508" on="1"/>
        <pt x="349" y="640" on="1"/>
        <pt x="413" y="640" on="1"/>
        <pt x="349" y="320" on="1"/>
        <pt x="285" y="320" on="1"/>
        <pt x="311" y="452" on="1"/>
        <pt x="227" y="452" on="1"/>
        <pt x="201" y="320" on="1"/>
        <pt x="137" y="320" on="1"/>
        <pt x="201" y="640" on="1"/>
        <pt x="265" y="640" on="1"/>
      </contour>
    </TTGlyph>
    <TTGlyph name="Hbar" xMin="21" yMin="0" xMax="492" yMax="640">
      <contour>
        <pt x="120" y="496" on="1"/>
        <pt x="149" y="640" on="1"/>
        <pt x="197" y="640" on="1"/>
        <pt x="168" y="496" on="1"/>
        <pt x="388" y="496" on="1"/>
        <pt x="417" y="640" on="1"/>
        <pt x="465" y="640" on="1"/>
        <pt x="436" y="496" on="1"/>
        <pt x="492" y="496" on="1"/>
        <pt x="483" y="452" on="1"/>
        <pt x="427" y="452" on="1"/>
        <pt x="337" y="0" on="1"/>
        <pt x="289" y="0" on="1"/>
        <pt x="342" y="266" on="1"/>
        <pt x="122" y="266" on="1"/>
        <pt x="69" y="0" on="1"/>
        <pt x="21" y="0" on="1"/>
        <pt x="111" y="452" on="1"/>
        <pt x="56" y="452" on="1"/>
        <pt x="65" y="496" on="1"/>
      </contour>
      <contour>
        <pt x="351" y="310" on="1"/>
        <pt x="379" y="452" on="1"/>
        <pt x="159" y="452" on="1"/>
        <pt x="131" y="310" on="1"/>
      </contour>
    </TTGlyph>
    <TTGlyph name="Hcircumflex" xMin="21" yMin="0" xMax="465" yMax="840">
      <component glyphName="H" x="0" y="0" flags="0x400"/>
      <component glyphName="uni0302.case" x="0" y="0" flags="0x400"/>
    </TTGlyph>
    <TTGlyph name="I" xMin="39" yMin="0" xMax="443" yMax="640">
      <contour>
        <pt x="47" y="38" on="1"/>
        <pt x="164" y="42" on="1"/>
        <pt x="275" y="598" on="1"/>
        <pt x="164" y="602" on="1"/>
        <pt x="171" y="640" on="1"/>
        <pt x="443" y="640" on="1"/>
        <pt x="436" y="602" on="1"/>
        <pt x="323" y="598" on="1"/>
        <pt x="212" y="42" on="1"/>
        <pt x="327" y="38" on="1"/>
        <pt x="319" y="0" on="1"/>
        <pt x="39" y="0" on="1"/>
      </contour>
    </TTGlyph>
    <TTGlyph name="I.cv02" xMin="155" yMin="0" xMax="331" yMax="640">
      <contour>
        <pt x="283" y="640" on="1"/>
        <pt x="331" y="640" on="1"/>
        <pt x="203" y="0" on="1"/>
        <pt x="155" y="0" on="1"/>
      </contour>
    </TTGlyph>
    <TTGlyph name="I.short" xMin="39" yMin="0" xMax="430" yMax="576">
      <contour>
        <pt x="47" y="38" on="1"/>
        <pt x="164" y="42" on="1"/>
        <pt x="262" y="534" on="1"/>
        <pt x="151" y="538" on="1"/>
        <pt x="158" y="576" on="1"/>
        <pt x="430" y="576" on="1"/>
        <pt x="423" y="538" on="1"/>
        <pt x="310" y="534" on="1"/>
        <pt x="212" y="42" on="1"/>
        <pt x="327" y="38" on="1"/>
        <pt x="319" y="0" on="1"/>
        <pt x="39" y="0" on="1"/>
      </contour>
    </TTGlyph>
    <TTGlyph name="I.short.cv02" xMin="155" yMin="0" xMax="318" yMax="576">
      <contour>
        <pt x="270" y="576" on="1"/>
        <pt x="318" y="576" on="1"/>
        <pt x="203" y="0" on="1"/>
        <pt x="155" y="0" on="1"/>
      </contour>
    </TTGlyph>
    <TTGlyph name="I.sups" xMin="147" yMin="320" xMax="403" yMax="640">
      <contour>
        <pt x="339" y="320" on="1"/>
        <pt x="147" y="320" on="1"/>
        <pt x="157" y="368" on="1"/>
        <pt x="222" y="376" on="1"/>
        <pt x="264" y="584" on="1"/>
        <pt x="202" y="592" on="1"/>
        <pt x="211" y="640" on="1"/>
        <pt x="403" y="640" on="1"/>
        <pt x="394" y="592" on="1"/>
        <pt x="328" y="584" on="1"/>
        <pt x="286" y="376" on="1"/>
        <pt x="349" y="368" on="1"/>
      </contour>
    </TTGlyph>
    <TTGlyph name="IJ" xMin="-43" yMin="0" xMax="459" yMax="640">
      <contour>
        <pt x="-36" y="36" on="1"/>
        <pt x="36" y="44" on="1"/>
        <pt x="146" y="596" on="1"/>
        <pt x="84" y="604" on="1"/>
        <pt x="91" y="640" on="1"/>
        <pt x="273" y="640" on="1"/>
        <pt x="266" y="604" on="1"/>
        <pt x="194" y="596" on="1"/>
        <pt x="84" y="44" on="1"/>
        <pt x="180" y="44" on="1"/>
        <pt x="291" y="44" on="0"/>
        <pt x="319" y="179" on="1"/>
        <pt x="402" y="596" on="1"/>
        <pt x="318" y="596" on="1"/>
        <pt x="327" y="640" on="1"/>
        <pt x="459" y="640" on="1"/>
        <pt x="367" y="179" on="1"/>
        <pt x="348" y="86" on="0"/>
        <pt x="248" y="0" on="0"/>
        <pt x="175" y="0" on="1"/>
        <pt x="-43" y="0" on="1"/>
      </contour>
    </TTGlyph>
    <TTGlyph name="Iacute" xMin="39" yMin="0" xMax="443" yMax="840">
      <component glyphName="I" x="0" y="0" flags="0x400"/>
      <component glyphName="acutecomb.case" x="0" y="0" flags="0x400"/>
    </TTGlyph>
    <TTGlyph name="Iacute.cv02" xMin="155" yMin="0" xMax="442" yMax="840">
      <component glyphName="I.cv02" x="0" y="0" flags="0x400"/>
      <component glyphName="acutecomb.case" x="0" y="0" flags="0x400"/>
    </TTGlyph>
    <TTGlyph name="Ibreve" xMin="39" yMin="0" xMax="465" yMax="830">
      <component glyphName="I" x="0" y="0" flags="0x400"/>
      <component glyphName="uni0306.case" x="0" y="0" flags="0x400"/>
    </TTGlyph>
    <TTGlyph name="Ibreve.cv02" xMin="155" yMin="0" xMax="465" yMax="830">
      <component glyphName="I.cv02" x="0" y="0" flags="0x400"/>
      <component glyphName="uni0306.case" x="0" y="0" flags="0x400"/>
    </TTGlyph>
    <TTGlyph name="Icircumflex" xMin="39" yMin="0" xMax="445" yMax="840">
      <component glyphName="I" x="0" y="0" flags="0x400"/>
      <component glyphName="uni0302.case" x="0" y="0" flags="0x400"/>
    </TTGlyph>
    <TTGlyph name="Icircumflex.cv02" xMin="155" yMin="0" xMax="445" yMax="840">
      <component glyphName="I.cv02" x="0" y="0" flags="0x400"/>
      <component glyphName="uni0302.case" x="0" y="0" flags="0x400"/>
    </TTGlyph>
    <TTGlyph name="Idieresis" xMin="39" yMin="0" xMax="472" yMax="810">
      <component glyphName="I" x="0" y="0" flags="0x400"/>
      <component glyphName="uni0308.case" x="0" y="0" flags="0x400"/>
    </TTGlyph>
    <TTGlyph name="Idieresis.cv02" xMin="155" yMin="0" xMax="472" yMax="810">
      <component glyphName="I.cv02" x="0" y="0" flags="0x400"/>
      <component glyphName="uni0308.case" x="0" y="0" flags="0x400"/>
    </TTGlyph>
    <TTGlyph name="Idotaccent" xMin="39" yMin="0" xMax="443" yMax="813">
      <component glyphName="I" x="0" y="0" flags="0x400"/>
      <component glyphName="uni0307.case" x="0" y="0" flags="0x400"/>
    </TTGlyph>
    <TTGlyph name="Idotaccent.cv02" xMin="155" yMin="0" xMax="386" yMax="813">
      <component glyphName="I.cv02" x="0" y="0" flags="0x400"/>
      <component glyphName="uni0307.case" x="0" y="0" flags="0x400"/>
    </TTGlyph>
    <TTGlyph name="Igrave" xMin="39" yMin="0" xMax="443" yMax="840">
      <component glyphName="I" x="0" y="0" flags="0x400"/>
      <component glyphName="gravecomb.case" x="0" y="0" flags="0x400"/>
    </TTGlyph>
    <TTGlyph name="Igrave.cv02" xMin="155" yMin="0" xMax="342" yMax="840">
      <component glyphName="I.cv02" x="0" y="0" flags="0x400"/>
      <component glyphName="gravecomb.case" x="0" y="0" flags="0x400"/>
    </TTGlyph>
    <TTGlyph name="Imacron" xMin="39" yMin="0" xMax="445" yMax="762">
      <component glyphName="I" x="0" y="0" flags="0x400"/>
      <component glyphName="uni0304.case" x="0" y="0" flags="0x400"/>
    </TTGlyph>
    <TTGlyph name="Imacron.cv02" xMin="155" yMin="0" xMax="445" yMax="762">
      <component glyphName="I.cv02" x="0" y="0" flags="0x400"/>
      <component glyphName="uni0304.case" x="0" y="0" flags="0x400"/>
    </TTGlyph>
    <TTGlyph name="Iogonek" xMin="39" yMin="-197" xMax="443" yMax="640">
      <component glyphName="I" x="0" y="0" flags="0x400"/>
      <component glyphName="uni0328" x="-10" y="0" flags="0x400"/>
    </TTGlyph>
    <TTGlyph name="Iogonek.cv02" xMin="65" yMin="-197" xMax="331" yMax="640">
      <component glyphName="I.cv02" x="0" y="0" flags="0x400"/>
      <component glyphName="uni0328" x="-126" y="0" flags="0x400"/>
    </TTGlyph>
    <TTGlyph name="Iota" xMin="39" yMin="0" xMax="443" yMax="640">
      <component glyphName="I" x="0" y="0" flags="0x400"/>
    </TTGlyph>
    <TTGlyph name="Iota.cv02" xMin="155" yMin="0" xMax="331" yMax="640">
      <component glyphName="I.cv02" x="0" y="0" flags="0x400"/>
    </TTGlyph>
    <TTGlyph name="Iotadieresis" xMin="39" yMin="0" xMax="472" yMax="810">
      <component glyphName="I" x="0" y="0" flags="0x400"/>
      <component glyphName="uni0308.case" x="0" y="0" flags="0x400"/>
    </TTGlyph>
    <TTGlyph name="Iotadieresis.cv02" xMin="155" yMin="0" xMax="472" yMax="810">
      <component glyphName="Iota.cv02" x="0" y="0" flags="0x400"/>
      <component glyphName="uni0308.case" x="0" y="0" flags="0x400"/>
    </TTGlyph>
    <TTGlyph name="Iotatonos" xMin="9" yMin="0" xMax="443" yMax="704">
      <component glyphName="I" x="0" y="0" flags="0x400"/>
      <component glyphName="tonos" x="-256" y="0" flags="0x400"/>
    </TTGlyph>
    <TTGlyph name="Iotatonos.cv02" xMin="143" yMin="0" xMax="331" yMax="704">
      <component glyphName="tonos" x="-122" y="0" flags="0x400"/>
      <component glyphName="Iota.cv02" x="0" y="0" flags="0x400"/>
    </TTGlyph>
    <TTGlyph name="Itilde" xMin="39" yMin="0" xMax="490" yMax="837">
      <component glyphName="I" x="0" y="0" flags="0x400"/>
      <component glyphName="tildecomb.case" x="0" y="0" flags="0x400"/>
    </TTGlyph>
    <TTGlyph name="Itilde.cv02" xMin="155" yMin="0" xMax="490" yMax="837">
      <component glyphName="I.cv02" x="0" y="0" flags="0x400"/>
      <component glyphName="tildecomb.case" x="0" y="0" flags="0x400"/>
    </TTGlyph>
    <TTGlyph name="J" xMin="46" yMin="-8" xMax="465" yMax="640">
      <contour>
        <pt x="95" y="79" on="0"/>
        <pt x="136" y="36" on="0"/>
        <pt x="183" y="36" on="1"/>
        <pt x="297" y="36" on="0"/>
        <pt x="323" y="171" on="1"/>
        <pt x="408" y="596" on="1"/>
        <pt x="254" y="596" on="1"/>
        <pt x="263" y="640" on="1"/>
        <pt x="465" y="640" on="1"/>
        <pt x="371" y="171" on="1"/>
        <pt x="352" y="78" on="0"/>
        <pt x="253" y="-8" on="0"/>
        <pt x="181" y="-8" on="1"/>
        <pt x="114" y="-8" on="0"/>
        <pt x="49" y="56" on="0"/>
        <pt x="46" y="112" on="1"/>
        <pt x="90" y="121" on="1"/>
      </contour>
    </TTGlyph>
    <TTGlyph name="J.cv03" xMin="46" yMin="-8" xMax="465" yMax="640">
      <contour>
        <pt x="114" y="-8" on="0"/>
        <pt x="49" y="56" on="0"/>
        <pt x="46" y="112" on="1"/>
        <pt x="90" y="121" on="1"/>
        <pt x="95" y="79" on="0"/>
        <pt x="136" y="36" on="0"/>
        <pt x="183" y="36" on="1"/>
        <pt x="295" y="36" on="0"/>
        <pt x="323" y="171" on="1"/>
        <pt x="417" y="640" on="1"/>
        <pt x="465" y="640" on="1"/>
        <pt x="371" y="171" on="1"/>
        <pt x="352" y="78" on="0"/>
        <pt x="253" y="-8" on="0"/>
        <pt x="181" y="-8" on="1"/>
      </contour>
    </TTGlyph>
    <TTGlyph name="J.sups" xMin="147" yMin="320" xMax="403" yMax="640">
      <contour>
        <pt x="403" y="640" on="1"/>
        <pt x="390" y="576" on="1"/>
        <pt x="378" y="512" on="1"/>
        <pt x="352" y="384" on="1"/>
        <pt x="288" y="384" on="1"/>
        <pt x="314" y="512" on="1"/>
        <pt x="326" y="576" on="1"/>
        <pt x="198" y="576" on="1"/>
        <pt x="211" y="640" on="1"/>
      </contour>
      <contour>
        <pt x="160" y="384" on="1"/>
        <pt x="288" y="384" on="1"/>
        <pt x="275" y="320" on="1"/>
        <pt x="147" y="320" on="1"/>
      </contour>
    </TTGlyph>
    <TTGlyph name="Jcircumflex" xMin="46" yMin="-8" xMax="491" yMax="840">
      <component glyphName="J" x="0" y="0" flags="0x400"/>
      <component glyphName="uni0302.case" x="46" y="0" flags="0x400"/>
    </TTGlyph>
    <TTGlyph name="Jcircumflex.cv03" xMin="46" yMin="-8" xMax="579" yMax="840">
      <component glyphName="J.cv03" x="0" y="0" flags="0x400"/>
      <component glyphName="uni0302.case" x="134" y="0" flags="0x400"/>
    </TTGlyph>
    <TTGlyph name="K" xMin="21" yMin="0" xMax="476" yMax="640">
      <contour>
        <pt x="149" y="640" on="1"/>
        <pt x="197" y="640" on="1"/>
        <pt x="132" y="315" on="1"/>
        <pt x="196" y="315" on="1"/>
        <pt x="364" y="470" on="0"/>
        <pt x="425" y="640" on="1"/>
        <pt x="476" y="640" on="1"/>
        <pt x="416" y="469" on="0"/>
        <pt x="246" y="314" on="1"/>
        <pt x="310" y="307" on="0"/>
        <pt x="372" y="239" on="0"/>
        <pt x="372" y="182" on="1"/>
        <pt x="372" y="165" on="0"/>
        <pt x="369" y="147" on="1"/>
        <pt x="351" y="0" on="1"/>
        <pt x="298" y="0" on="1"/>
        <pt x="318" y="151" on="1"/>
        <pt x="321" y="169" on="0"/>
        <pt x="321" y="184" on="1"/>
        <pt x="321" y="229" on="0"/>
        <pt x="269" y="271" on="0"/>
        <pt x="211" y="271" on="1"/>
        <pt x="123" y="271" on="1"/>
        <pt x="69" y="0" on="1"/>
        <pt x="21" y="0" on="1"/>
      </contour>
    </TTGlyph>
    <TTGlyph name="K.sups" xMin="147" yMin="320" xMax="403" yMax="640">
      <contour>
        <pt x="275" y="640" on="1"/>
        <pt x="262" y="576" on="1"/>
        <pt x="250" y="512" on="1"/>
        <pt x="314" y="512" on="1"/>
        <pt x="301" y="448" on="1"/>
        <pt x="237" y="448" on="1"/>
        <pt x="211" y="320" on="1"/>
        <pt x="147" y="320" on="1"/>
        <pt x="186" y="512" on="1"/>
        <pt x="198" y="576" on="1"/>
        <pt x="211" y="640" on="1"/>
      </contour>
      <contour>
        <pt x="301" y="448" on="1"/>
        <pt x="365" y="448" on="1"/>
        <pt x="339" y="320" on="1"/>
        <pt x="275" y="320" on="1"/>
      </contour>
      <contour>
        <pt x="326" y="576" on="1"/>
        <pt x="339" y="640" on="1"/>
        <pt x="403" y="640" on="1"/>
        <pt x="390" y="576" on="1"/>
        <pt x="378" y="512" on="1"/>
        <pt x="314" y="512" on="1"/>
      </contour>
    </TTGlyph>
    <TTGlyph name="Kappa" xMin="21" yMin="0" xMax="476" yMax="640">
      <component glyphName="K" x="0" y="0" flags="0x400"/>
    </TTGlyph>
    <TTGlyph name="L" xMin="21" yMin="0" xMax="342" yMax="640">
      <contour>
        <pt x="149" y="640" on="1"/>
        <pt x="197" y="640" on="1"/>
        <pt x="78" y="44" on="1"/>
        <pt x="342" y="44" on="1"/>
        <pt x="333" y="0" on="1"/>
        <pt x="21" y="0" on="1"/>
      </contour>
    </TTGlyph>
    <TTGlyph name="L.sups" xMin="147" yMin="320" xMax="350" yMax="640">
      <contour>
        <pt x="339" y="320" on="1"/>
        <pt x="147" y="320" on="1"/>
        <pt x="211" y="640" on="1"/>
        <pt x="275" y="640" on="1"/>
        <pt x="222" y="376" on="1"/>
        <pt x="350" y="376" on="1"/>
      </contour>
    </TTGlyph>
    <TTGlyph name="Lacute" xMin="21" yMin="0" xMax="342" yMax="840">
      <component glyphName="L" x="0" y="0" flags="0x400"/>
      <component glyphName="acutecomb.case" x="-134" y="0" flags="0x400"/>
    </TTGlyph>
    <TTGlyph name="Lambda" xMin="-5" yMin="0" xMax="376" yMax="645">
      <contour>
        <pt x="49" y="186" on="0"/>
        <pt x="200" y="521" on="0"/>
        <pt x="287" y="645" on="1"/>
        <pt x="327" y="641" on="1"/>
        <pt x="376" y="482" on="0"/>
        <pt x="376" y="250" on="1"/>
        <pt x="376" y="132" on="0"/>
        <pt x="362" y="0" on="1"/>
        <pt x="312" y="0" on="1"/>
        <pt x="326" y="133" on="0"/>
        <pt x="326" y="265" on="1"/>
        <pt x="326" y="451" on="0"/>
        <pt x="296" y="578" on="1"/>
        <pt x="227" y="470" on="0"/>
        <pt x="100" y="175" on="0"/>
        <pt x="48" y="0" on="1"/>
        <pt x="-5" y="0" on="1"/>
      </contour>
    </TTGlyph>
    <TTGlyph name="Lcaron" xMin="21" yMin="0" xMax="443" yMax="640">
      <component glyphName="L" x="0" y="0" flags="0x400"/>
      <component glyphName="uni030C.alt" x="-64" y="0" flags="0x400"/>
    </TTGlyph>
    <TTGlyph name="Ldot" xMin="21" yMin="0" xMax="342" yMax="640">
      <component glyphName="L" x="0" y="0" flags="0x400"/>
      <component glyphName="period" x="128" y="256" flags="0x404"/>
    </TTGlyph>
    <TTGlyph name="Lslash" xMin="-22" yMin="0" xMax="342" yMax="640">
      <component glyphName="L" x="0" y="0" flags="0x400"/>
      <component glyphName="_part.slash.comp" x="-103" y="0" flags="0x400"/>
    </TTGlyph>
    <TTGlyph name="M" xMin="-15" yMin="0" xMax="476" yMax="640">
      <contour>
        <pt x="57" y="342" on="0"/>
        <pt x="137" y="640" on="1"/>
        <pt x="178" y="640" on="1"/>
        <pt x="224" y="231" on="1"/>
        <pt x="226" y="231" on="1"/>
        <pt x="435" y="640" on="1"/>
        <pt x="476" y="640" on="1"/>
        <pt x="437" y="346" on="0"/>
        <pt x="374" y="0" on="1"/>
        <pt x="326" y="0" on="1"/>
        <pt x="388" y="331" on="0"/>
        <pt x="414" y="508" on="1"/>
        <pt x="412" y="508" on="1"/>
        <pt x="234" y="163" on="1"/>
        <pt x="190" y="163" on="1"/>
        <pt x="149" y="506" on="1"/>
        <pt x="147" y="506" on="1"/>
        <pt x="96" y="300" on="0"/>
        <pt x="33" y="0" on="1"/>
        <pt x="-15" y="0" on="1"/>
      </contour>
    </TTGlyph>
    <TTGlyph name="M.sups" xMin="147" yMin="320" xMax="403" yMax="640">
      <contour>
        <pt x="198" y="576" on="1"/>
        <pt x="211" y="640" on="1"/>
        <pt x="403" y="640" on="1"/>
        <pt x="390" y="576" on="1"/>
        <pt x="378" y="512" on="1"/>
        <pt x="339" y="320" on="1"/>
        <pt x="275" y="320" on="1"/>
        <pt x="288" y="384" on="1"/>
        <pt x="224" y="384" on="1"/>
        <pt x="211" y="320" on="1"/>
        <pt x="147" y="320" on="1"/>
        <pt x="186" y="512" on="1"/>
      </contour>
    </TTGlyph>
    <TTGlyph name="Mu" xMin="-15" yMin="0" xMax="476" yMax="640">
      <component glyphName="M" x="0" y="0" flags="0x400"/>
    </TTGlyph>
    <TTGlyph name="N" xMin="21" yMin="0" xMax="465" yMax="640">
      <contour>
        <pt x="213" y="640" on="1"/>
        <pt x="280" y="257" on="1"/>
        <pt x="306" y="86" on="1"/>
        <pt x="417" y="640" on="1"/>
        <pt x="465" y="640" on="1"/>
        <pt x="337" y="0" on="1"/>
        <pt x="274" y="0" on="1"/>
        <pt x="207" y="384" on="1"/>
        <pt x="181" y="557" on="1"/>
        <pt x="69" y="0" on="1"/>
        <pt x="21" y="0" on="1"/>
        <pt x="149" y="640" on="1"/>
      </contour>
    </TTGlyph>
    <TTGlyph name="N.sups" xMin="129" yMin="320" xMax="421" yMax="640">
      <contour>
        <pt x="193" y="640" on="1"/>
        <pt x="282" y="640" on="1"/>
        <pt x="315" y="418" on="1"/>
        <pt x="359" y="640" on="1"/>
        <pt x="421" y="640" on="1"/>
        <pt x="357" y="320" on="1"/>
        <pt x="268" y="320" on="1"/>
        <pt x="235" y="542" on="1"/>
        <pt x="191" y="320" on="1"/>
        <pt x="129" y="320" on="1"/>
      </contour>
    </TTGlyph>
    <TTGlyph name="Nacute" xMin="21" yMin="0" xMax="465" yMax="840">
      <component glyphName="N" x="0" y="0" flags="0x400"/>
      <component glyphName="acutecomb.case" x="0" y="0" flags="0x400"/>
    </TTGlyph>
    <TTGlyph name="Ncaron" xMin="21" yMin="0" xMax="473" yMax="840">
      <component glyphName="N" x="0" y="0" flags="0x400"/>
      <component glyphName="uni030C.case" x="0" y="0" flags="0x400"/>
    </TTGlyph>
    <TTGlyph name="Ntilde" xMin="21" yMin="0" xMax="490" yMax="837">
      <component glyphName="N" x="0" y="0" flags="0x400"/>
      <component glyphName="tildecomb.case" x="0" y="0" flags="0x400"/>
    </TTGlyph>
    <TTGlyph name="Nu" xMin="21" yMin="0" xMax="465" yMax="640">
      <component glyphName="N" x="0" y="0" flags="0x400"/>
    </TTGlyph>
    <TTGlyph name="O" xMin="45" yMin="-10" xMax="442" yMax="650">
      <contour>
        <pt x="45" y="-10" on="0"/>
        <pt x="45" y="170" on="1"/>
        <pt x="45" y="236" on="0"/>
        <pt x="63" y="323" on="1"/>
        <pt x="96" y="489" on="0"/>
        <pt x="216" y="650" on="0"/>
        <pt x="306" y="650" on="1"/>
        <pt x="442" y="650" on="0"/>
        <pt x="442" y="474" on="1"/>
        <pt x="442" y="412" on="0"/>
        <pt x="423" y="315" on="1"/>
        <pt x="390" y="152" on="0"/>
        <pt x="272" y="-10" on="0"/>
        <pt x="181" y="-10" on="1"/>
      </contour>
      <contour>
        <pt x="94" y="221" on="0"/>
        <pt x="94" y="157" on="1"/>
        <pt x="94" y="93" on="0"/>
        <pt x="137" y="34" on="0"/>
        <pt x="183" y="34" on="1"/>
        <pt x="252" y="34" on="0"/>
        <pt x="343" y="172" on="0"/>
        <pt x="373" y="323" on="1"/>
        <pt x="392" y="418" on="0"/>
        <pt x="392" y="482" on="1"/>
        <pt x="392" y="546" on="0"/>
        <pt x="349" y="606" on="0"/>
        <pt x="304" y="606" on="1"/>
        <pt x="234" y="606" on="0"/>
        <pt x="144" y="468" on="0"/>
        <pt x="113" y="315" on="1"/>
      </contour>
    </TTGlyph>
    <TTGlyph name="O.short" xMin="42" yMin="-10" xMax="430" yMax="586">
      <contour>
        <pt x="111" y="-10" on="0"/>
        <pt x="42" y="82" on="0"/>
        <pt x="42" y="168" on="1"/>
        <pt x="42" y="219" on="0"/>
        <pt x="56" y="289" on="1"/>
        <pt x="84" y="432" on="0"/>
        <pt x="205" y="586" on="0"/>
        <pt x="294" y="586" on="1"/>
        <pt x="362" y="586" on="0"/>
        <pt x="430" y="493" on="0"/>
        <pt x="430" y="407" on="1"/>
        <pt x="430" y="350" on="0"/>
        <pt x="417" y="285" on="1"/>
        <pt x="389" y="143" on="0"/>
        <pt x="268" y="-10" on="0"/>
        <pt x="179" y="-10" on="1"/>
      </contour>
      <contour>
        <pt x="91" y="203" on="0"/>
        <pt x="91" y="156" on="1"/>
        <pt x="91" y="94" on="0"/>
        <pt x="136" y="34" on="0"/>
        <pt x="184" y="34" on="1"/>
        <pt x="252" y="34" on="0"/>
        <pt x="340" y="161" on="0"/>
        <pt x="366" y="289" on="1"/>
        <pt x="382" y="372" on="0"/>
        <pt x="382" y="421" on="1"/>
        <pt x="382" y="482" on="0"/>
        <pt x="337" y="542" on="0"/>
        <pt x="289" y="542" on="1"/>
        <pt x="220" y="542" on="0"/>
        <pt x="133" y="414" on="0"/>
        <pt x="107" y="285" on="1"/>
      </contour>
    </TTGlyph>
    <TTGlyph name="O.sups" xMin="150" yMin="316" xMax="401" yMax="644">
      <contour>
        <pt x="196" y="316" on="0"/>
        <pt x="150" y="375" on="0"/>
        <pt x="150" y="426" on="1"/>
        <pt x="150" y="455" on="0"/>
        <pt x="156" y="486" on="1"/>
        <pt x="170" y="558" on="0"/>
        <pt x="241" y="644" on="0"/>
        <pt x="303" y="644" on="1"/>
        <pt x="353" y="644" on="0"/>
        <pt x="401" y="585" on="0"/>
        <pt x="401" y="534" on="1"/>
        <pt x="401" y="511" on="0"/>
        <pt x="394" y="474" on="1"/>
        <pt x="379" y="403" on="0"/>
        <pt x="307" y="316" on="0"/>
        <pt x="247" y="316" on="1"/>
      </contour>
      <contour>
        <pt x="210" y="434" on="0"/>
        <pt x="210" y="415" on="1"/>
        <pt x="210" y="391" on="0"/>
        <pt x="228" y="372" on="0"/>
        <pt x="248" y="372" on="1"/>
        <pt x="281" y="372" on="0"/>
        <pt x="319" y="423" on="0"/>
        <pt x="332" y="486" on="1"/>
        <pt x="339" y="520" on="0"/>
        <pt x="339" y="544" on="1"/>
        <pt x="339" y="568" on="0"/>
        <pt x="322" y="588" on="0"/>
        <pt x="302" y="588" on="1"/>
        <pt x="269" y="588" on="0"/>
        <pt x="231" y="535" on="0"/>
        <pt x="218" y="474" on="1"/>
      </contour>
    </TTGlyph>
    <TTGlyph name="OE" xMin="6" yMin="0" xMax="515" yMax="640">
      <contour>
        <pt x="6" y="0" on="0"/>
        <pt x="6" y="169" on="1"/>
        <pt x="6" y="235" on="0"/>
        <pt x="24" y="323" on="1"/>
        <pt x="56" y="484" on="0"/>
        <pt x="167" y="640" on="0"/>
        <pt x="251" y="640" on="1"/>
        <pt x="515" y="640" on="1"/>
        <pt x="506" y="596" on="1"/>
        <pt x="332" y="596" on="1"/>
        <pt x="275" y="310" on="1"/>
        <pt x="408" y="310" on="1"/>
        <pt x="399" y="266" on="1"/>
        <pt x="266" y="266" on="1"/>
        <pt x="222" y="44" on="1"/>
        <pt x="406" y="44" on="1"/>
        <pt x="397" y="0" on="1"/>
        <pt x="127" y="0" on="1"/>
      </contour>
      <contour>
        <pt x="55" y="220" on="0"/>
        <pt x="55" y="158" on="1"/>
        <pt x="55" y="98" on="0"/>
        <pt x="93" y="44" on="0"/>
        <pt x="132" y="44" on="1"/>
        <pt x="174" y="44" on="1"/>
        <pt x="284" y="596" on="1"/>
        <pt x="246" y="596" on="1"/>
        <pt x="187" y="596" on="0"/>
        <pt x="103" y="464" on="0"/>
        <pt x="74" y="315" on="1"/>
      </contour>
    </TTGlyph>
    <TTGlyph name="Oacute" xMin="45" yMin="-10" xMax="442" yMax="840">
      <component glyphName="O" x="0" y="0" flags="0x400"/>
      <component glyphName="acutecomb.case" x="0" y="0" flags="0x400"/>
    </TTGlyph>
    <TTGlyph name="Obreve" xMin="45" yMin="-10" xMax="465" yMax="830">
      <component glyphName="O" x="0" y="0" flags="0x400"/>
      <component glyphName="uni0306.case" x="0" y="0" flags="0x400"/>
    </TTGlyph>
    <TTGlyph name="Ocircumflex" xMin="45" yMin="-10" xMax="445" yMax="840">
      <component glyphName="O" x="0" y="0" flags="0x400"/>
      <component glyphName="uni0302.case" x="0" y="0" flags="0x400"/>
    </TTGlyph>
    <TTGlyph name="Odieresis" xMin="45" yMin="-10" xMax="472" yMax="810">
      <component glyphName="O" x="0" y="0" flags="0x400"/>
      <component glyphName="uni0308.case" x="0" y="0" flags="0x400"/>
    </TTGlyph>
    <TTGlyph name="Ograve" xMin="45" yMin="-10" xMax="442" yMax="840">
      <component glyphName="O" x="0" y="0" flags="0x400"/>
      <component glyphName="gravecomb.case" x="0" y="0" flags="0x400"/>
    </TTGlyph>
    <TTGlyph name="Ohorn" xMin="45" yMin="-10" xMax="512" yMax="768">
      <contour>
        <pt x="45" y="-10" on="0"/>
        <pt x="45" y="170" on="1"/>
        <pt x="45" y="236" on="0"/>
        <pt x="63" y="323" on="1"/>
        <pt x="96" y="489" on="0"/>
        <pt x="216" y="650" on="0"/>
        <pt x="306" y="650" on="1"/>
        <pt x="320" y="650" on="0"/>
        <pt x="349" y="646" on="0"/>
        <pt x="354" y="645" on="1"/>
        <pt x="379" y="640" on="0"/>
        <pt x="401" y="640" on="1"/>
        <pt x="426" y="640" on="0"/>
        <pt x="455" y="667" on="0"/>
        <pt x="461" y="697" on="1"/>
        <pt x="465" y="717" on="0"/>
        <pt x="467" y="768" on="1"/>
        <pt x="512" y="768" on="1"/>
        <pt x="512" y="714" on="0"/>
        <pt x="506" y="685" on="1"/>
        <pt x="491" y="607" on="0"/>
        <pt x="416" y="597" on="1"/>
        <pt x="442" y="554" on="0"/>
        <pt x="442" y="477" on="1"/>
        <pt x="442" y="415" on="0"/>
        <pt x="423" y="315" on="1"/>
        <pt x="390" y="152" on="0"/>
        <pt x="272" y="-10" on="0"/>
        <pt x="181" y="-10" on="1"/>
      </contour>
      <contour>
        <pt x="94" y="221" on="0"/>
        <pt x="94" y="157" on="1"/>
        <pt x="94" y="93" on="0"/>
        <pt x="137" y="34" on="0"/>
        <pt x="183" y="34" on="1"/>
        <pt x="252" y="34" on="0"/>
        <pt x="343" y="172" on="0"/>
        <pt x="373" y="323" on="1"/>
        <pt x="392" y="418" on="0"/>
        <pt x="392" y="482" on="1"/>
        <pt x="392" y="546" on="0"/>
        <pt x="349" y="606" on="0"/>
        <pt x="304" y="606" on="1"/>
        <pt x="234" y="606" on="0"/>
        <pt x="144" y="468" on="0"/>
        <pt x="113" y="315" on="1"/>
      </contour>
    </TTGlyph>
    <TTGlyph name="Ohorn.short" xMin="42" yMin="-10" xMax="499" yMax="704">
      <contour>
        <pt x="112" y="-10" on="0"/>
        <pt x="42" y="82" on="0"/>
        <pt x="42" y="168" on="1"/>
        <pt x="42" y="219" on="0"/>
        <pt x="56" y="291" on="1"/>
        <pt x="84" y="432" on="0"/>
        <pt x="205" y="586" on="0"/>
        <pt x="293" y="586" on="1"/>
        <pt x="307" y="586" on="0"/>
        <pt x="336" y="582" on="0"/>
        <pt x="341" y="581" on="1"/>
        <pt x="366" y="576" on="0"/>
        <pt x="388" y="576" on="1"/>
        <pt x="413" y="576" on="0"/>
        <pt x="442" y="603" on="0"/>
        <pt x="448" y="633" on="1"/>
        <pt x="452" y="653" on="0"/>
        <pt x="454" y="704" on="1"/>
        <pt x="499" y="704" on="1"/>
        <pt x="499" y="650" on="0"/>
        <pt x="493" y="621" on="1"/>
        <pt x="478" y="543" on="0"/>
        <pt x="403" y="533" on="1"/>
        <pt x="431" y="487" on="0"/>
        <pt x="431" y="406" on="1"/>
        <pt x="431" y="349" on="0"/>
        <pt x="417" y="283" on="1"/>
        <pt x="388" y="141" on="0"/>
        <pt x="269" y="-10" on="0"/>
        <pt x="181" y="-10" on="1"/>
      </contour>
      <contour>
        <pt x="91" y="203" on="0"/>
        <pt x="91" y="155" on="1"/>
        <pt x="91" y="94" on="0"/>
        <pt x="136" y="34" on="0"/>
        <pt x="183" y="34" on="1"/>
        <pt x="252" y="34" on="0"/>
        <pt x="340" y="161" on="0"/>
        <pt x="366" y="291" on="1"/>
        <pt x="382" y="374" on="0"/>
        <pt x="382" y="423" on="1"/>
        <pt x="382" y="483" on="0"/>
        <pt x="338" y="542" on="0"/>
        <pt x="291" y="542" on="1"/>
        <pt x="221" y="542" on="0"/>
        <pt x="134" y="415" on="0"/>
        <pt x="107" y="283" on="1"/>
      </contour>
    </TTGlyph>
    <TTGlyph name="Ohungarumlaut" xMin="45" yMin="-10" xMax="471" yMax="832">
      <component glyphName="O" x="0" y="0" flags="0x400"/>
      <component glyphName="uni030B.case" x="0" y="0" flags="0x400"/>
    </TTGlyph>
    <TTGlyph name="Omacron" xMin="45" yMin="-10" xMax="445" yMax="762">
      <component glyphName="O" x="0" y="0" flags="0x400"/>
      <component glyphName="uni0304.case" x="0" y="0" flags="0x400"/>
    </TTGlyph>
    <TTGlyph name="Omegatonos" xMin="5" yMin="0" xMax="447" yMax="704">
      <component glyphName="uni03A9" x="0" y="0" flags="0x400"/>
      <component glyphName="tonos" x="-256" y="0" flags="0x400"/>
    </TTGlyph>
    <TTGlyph name="Omicron" xMin="45" yMin="-10" xMax="442" yMax="650">
      <component glyphName="O" x="0" y="0" flags="0x400"/>
    </TTGlyph>
    <TTGlyph name="Omicrontonos" xMin="9" yMin="-10" xMax="442" yMax="704">
      <component glyphName="O" x="0" y="0" flags="0x400"/>
      <component glyphName="tonos" x="-256" y="0" flags="0x400"/>
    </TTGlyph>
    <TTGlyph name="Oslash" xMin="2" yMin="-10" xMax="484" yMax="650">
      <component glyphName="O" x="0" y="0" flags="0x400"/>
      <component glyphName="slash.O" x="0" y="0" flags="0x400"/>
    </TTGlyph>
    <TTGlyph name="Oslashacute" xMin="2" yMin="-10" xMax="484" yMax="840">
      <component glyphName="Oslash" x="0" y="0" flags="0x400"/>
      <component glyphName="acutecomb.case" x="0" y="0" flags="0x400"/>
    </TTGlyph>
    <TTGlyph name="Otilde" xMin="45" yMin="-10" xMax="490" yMax="837">
      <component glyphName="O" x="0" y="0" flags="0x400"/>
      <component glyphName="tildecomb.case" x="0" y="0" flags="0x400"/>
    </TTGlyph>
    <TTGlyph name="P" xMin="21" yMin="0" xMax="440" yMax="640">
      <contour>
        <pt x="149" y="640" on="1"/>
        <pt x="294" y="640" on="1"/>
        <pt x="362" y="640" on="0"/>
        <pt x="440" y="559" on="0"/>
        <pt x="440" y="484" on="1"/>
        <pt x="440" y="450" on="0"/>
        <pt x="433" y="415" on="1"/>
        <pt x="413" y="311" on="0"/>
        <pt x="293" y="202" on="0"/>
        <pt x="210" y="202" on="1"/>
        <pt x="110" y="202" on="1"/>
        <pt x="69" y="0" on="1"/>
        <pt x="21" y="0" on="1"/>
      </contour>
      <contour>
        <pt x="214" y="246" on="1"/>
        <pt x="284" y="246" on="0"/>
        <pt x="366" y="340" on="0"/>
        <pt x="383" y="423" on="1"/>
        <pt x="390" y="457" on="0"/>
        <pt x="390" y="488" on="1"/>
        <pt x="390" y="596" on="0"/>
        <pt x="286" y="596" on="1"/>
        <pt x="188" y="596" on="1"/>
        <pt x="118" y="246" on="1"/>
      </contour>
    </TTGlyph>
    <TTGlyph name="P.sups" xMin="147" yMin="320" xMax="402" yMax="640">
      <contour>
        <pt x="211" y="640" on="1"/>
        <pt x="312" y="640" on="1"/>
        <pt x="353" y="640" on="0"/>
        <pt x="402" y="598" on="0"/>
        <pt x="402" y="561" on="1"/>
        <pt x="402" y="546" on="0"/>
        <pt x="400" y="538" on="1"/>
        <pt x="391" y="495" on="0"/>
        <pt x="328" y="448" on="0"/>
        <pt x="281" y="448" on="1"/>
        <pt x="237" y="448" on="1"/>
        <pt x="211" y="320" on="1"/>
        <pt x="147" y="320" on="1"/>
      </contour>
      <contour>
        <pt x="283" y="502" on="1"/>
        <pt x="304" y="502" on="0"/>
        <pt x="330" y="528" on="0"/>
        <pt x="334" y="550" on="1"/>
        <pt x="335" y="554" on="0"/>
        <pt x="335" y="562" on="1"/>
        <pt x="335" y="574" on="0"/>
        <pt x="321" y="586" on="0"/>
        <pt x="305" y="586" on="1"/>
        <pt x="264" y="586" on="1"/>
        <pt x="247" y="502" on="1"/>
      </contour>
    </TTGlyph>
    <TTGlyph name="Phi" xMin="53" yMin="0" xMax="433" yMax="640">
      <component glyphName="uni0424" x="0" y="0" flags="0x400"/>
    </TTGlyph>
    <TTGlyph name="Pi" xMin="21" yMin="0" xMax="465" yMax="640">
      <component glyphName="uni041F" x="0" y="0" flags="0x400"/>
    </TTGlyph>
    <TTGlyph name="Psi" xMin="63" yMin="0" xMax="481" yMax="640">
      <contour>
        <pt x="264" y="248" on="1"/>
        <pt x="312" y="260" on="0"/>
        <pt x="369" y="356" on="0"/>
        <pt x="388" y="448" on="1"/>
        <pt x="402" y="520" on="0"/>
        <pt x="417" y="640" on="1"/>
        <pt x="481" y="640" on="1"/>
        <pt x="476" y="529" on="0"/>
        <pt x="458" y="438" on="1"/>
        <pt x="435" y="322" on="0"/>
        <pt x="339" y="194" on="0"/>
        <pt x="251" y="184" on="1"/>
        <pt x="214" y="0" on="1"/>
        <pt x="142" y="0" on="1"/>
        <pt x="179" y="185" on="1"/>
        <pt x="63" y="203" on="0"/>
        <pt x="63" y="340" on="1"/>
        <pt x="63" y="387" on="0"/>
        <pt x="75" y="444" on="1"/>
        <pt x="95" y="544" on="0"/>
        <pt x="129" y="640" on="1"/>
        <pt x="196" y="640" on="1"/>
        <pt x="155" y="492" on="0"/>
        <pt x="146" y="442" on="1"/>
        <pt x="133" y="374" on="0"/>
        <pt x="133" y="338" on="1"/>
        <pt x="133" y="298" on="0"/>
        <pt x="161" y="253" on="0"/>
        <pt x="191" y="246" on="1"/>
        <pt x="270" y="640" on="1"/>
        <pt x="342" y="640" on="1"/>
      </contour>
    </TTGlyph>
    <TTGlyph name="Q" xMin="45" yMin="-128" xMax="442" yMax="650">
      <contour>
        <pt x="252" y="-128" on="0"/>
        <pt x="177" y="-72" on="0"/>
        <pt x="178" y="-10" on="1"/>
        <pt x="45" y="-9" on="0"/>
        <pt x="45" y="170" on="1"/>
        <pt x="45" y="235" on="0"/>
        <pt x="63" y="323" on="1"/>
        <pt x="96" y="489" on="0"/>
        <pt x="216" y="650" on="0"/>
        <pt x="306" y="650" on="1"/>
        <pt x="442" y="650" on="0"/>
        <pt x="442" y="474" on="1"/>
        <pt x="442" y="412" on="0"/>
        <pt x="423" y="315" on="1"/>
        <pt x="394" y="171" on="0"/>
        <pt x="295" y="11" on="0"/>
        <pt x="222" y="-6" on="1"/>
        <pt x="221" y="-36" on="0"/>
        <pt x="243" y="-68" on="0"/>
        <pt x="295" y="-81" on="0"/>
        <pt x="342" y="-82" on="1"/>
        <pt x="334" y="-128" on="1"/>
      </contour>
      <contour>
        <pt x="94" y="221" on="0"/>
        <pt x="94" y="157" on="1"/>
        <pt x="94" y="93" on="0"/>
        <pt x="137" y="34" on="0"/>
        <pt x="183" y="34" on="1"/>
        <pt x="252" y="34" on="0"/>
        <pt x="343" y="172" on="0"/>
        <pt x="373" y="323" on="1"/>
        <pt x="392" y="418" on="0"/>
        <pt x="392" y="482" on="1"/>
        <pt x="392" y="546" on="0"/>
        <pt x="349" y="606" on="0"/>
        <pt x="304" y="606" on="1"/>
        <pt x="234" y="606" on="0"/>
        <pt x="144" y="468" on="0"/>
        <pt x="113" y="315" on="1"/>
      </contour>
    </TTGlyph>
    <TTGlyph name="Q.sups" xMin="150" yMin="256" xMax="401" yMax="644">
      <contour>
        <pt x="206" y="322" on="1"/>
        <pt x="150" y="342" on="0"/>
        <pt x="150" y="425" on="1"/>
        <pt x="150" y="455" on="0"/>
        <pt x="156" y="486" on="1"/>
        <pt x="170" y="558" on="0"/>
        <pt x="241" y="644" on="0"/>
        <pt x="303" y="644" on="1"/>
        <pt x="353" y="644" on="0"/>
        <pt x="401" y="585" on="0"/>
        <pt x="401" y="534" on="1"/>
        <pt x="401" y="511" on="0"/>
        <pt x="394" y="474" on="1"/>
        <pt x="381" y="410" on="0"/>
        <pt x="319" y="326" on="0"/>
        <pt x="269" y="318" on="1"/>
        <pt x="257" y="256" on="1"/>
        <pt x="193" y="256" on="1"/>
      </contour>
      <contour>
        <pt x="210" y="434" on="0"/>
        <pt x="210" y="415" on="1"/>
        <pt x="210" y="391" on="0"/>
        <pt x="228" y="372" on="0"/>
        <pt x="248" y="372" on="1"/>
        <pt x="281" y="372" on="0"/>
        <pt x="319" y="423" on="0"/>
        <pt x="332" y="486" on="1"/>
        <pt x="339" y="520" on="0"/>
        <pt x="339" y="544" on="1"/>
        <pt x="339" y="568" on="0"/>
        <pt x="322" y="588" on="0"/>
        <pt x="302" y="588" on="1"/>
        <pt x="269" y="588" on="0"/>
        <pt x="231" y="535" on="0"/>
        <pt x="218" y="474" on="1"/>
      </contour>
    </TTGlyph>
    <TTGlyph name="R" xMin="21" yMin="0" xMax="445" yMax="640">
      <contour>
        <pt x="367" y="640" on="0"/>
        <pt x="445" y="566" on="0"/>
        <pt x="445" y="497" on="1"/>
        <pt x="445" y="472" on="0"/>
        <pt x="439" y="442" on="1"/>
        <pt x="422" y="357" on="0"/>
        <pt x="327" y="264" on="0"/>
        <pt x="257" y="255" on="1"/>
        <pt x="307" y="232" on="0"/>
        <pt x="362" y="123" on="0"/>
        <pt x="362" y="46" on="1"/>
        <pt x="362" y="16" on="0"/>
        <pt x="360" y="0" on="1"/>
        <pt x="311" y="0" on="1"/>
        <pt x="313" y="34" on="0"/>
        <pt x="313" y="47" on="1"/>
        <pt x="313" y="126" on="0"/>
        <pt x="258" y="221" on="0"/>
        <pt x="193" y="251" on="1"/>
        <pt x="119" y="251" on="1"/>
        <pt x="69" y="0" on="1"/>
        <pt x="21" y="0" on="1"/>
        <pt x="149" y="640" on="1"/>
        <pt x="296" y="640" on="1"/>
      </contour>
      <contour>
        <pt x="226" y="295" on="1"/>
        <pt x="296" y="295" on="0"/>
        <pt x="374" y="376" on="0"/>
        <pt x="388" y="449" on="1"/>
        <pt x="394" y="478" on="0"/>
        <pt x="394" y="503" on="1"/>
        <pt x="394" y="596" on="0"/>
        <pt x="290" y="596" on="1"/>
        <pt x="188" y="596" on="1"/>
        <pt x="128" y="295" on="1"/>
      </contour>
    </TTGlyph>
    <TTGlyph name="R.sups" xMin="146" yMin="317" xMax="389" yMax="640">
      <contour>
        <pt x="343" y="640" on="0"/>
        <pt x="389" y="596" on="0"/>
        <pt x="389" y="557" on="1"/>
        <pt x="389" y="543" on="0"/>
        <pt x="386" y="528" on="1"/>
        <pt x="373" y="465" on="0"/>
        <pt x="317" y="446" on="1"/>
        <pt x="350" y="416" on="0"/>
        <pt x="350" y="350" on="1"/>
        <pt x="350" y="339" on="0"/>
        <pt x="348" y="317" on="1"/>
        <pt x="283" y="323" on="1"/>
        <pt x="285" y="335" on="0"/>
        <pt x="285" y="356" on="1"/>
        <pt x="285" y="382" on="0"/>
        <pt x="271" y="416" on="0"/>
        <pt x="257" y="428" on="1"/>
        <pt x="232" y="428" on="1"/>
        <pt x="210" y="320" on="1"/>
        <pt x="146" y="320" on="1"/>
        <pt x="210" y="640" on="1"/>
        <pt x="304" y="640" on="1"/>
      </contour>
      <contour>
        <pt x="270" y="484" on="1"/>
        <pt x="312" y="484" on="0"/>
        <pt x="324" y="540" on="1"/>
        <pt x="326" y="554" on="0"/>
        <pt x="326" y="558" on="1"/>
        <pt x="326" y="571" on="0"/>
        <pt x="312" y="584" on="0"/>
        <pt x="295" y="584" on="1"/>
        <pt x="263" y="584" on="1"/>
        <pt x="243" y="484" on="1"/>
      </contour>
    </TTGlyph>
    <TTGlyph name="Racute" xMin="21" yMin="0" xMax="445" yMax="840">
      <component glyphName="R" x="0" y="0" flags="0x400"/>
      <component glyphName="acutecomb.case" x="-16" y="0" flags="0x400"/>
    </TTGlyph>
    <TTGlyph name="Rcaron" xMin="21" yMin="0" xMax="457" yMax="840">
      <component glyphName="R" x="0" y="0" flags="0x400"/>
      <component glyphName="uni030C.case" x="-16" y="0" flags="0x400"/>
    </TTGlyph>
    <TTGlyph name="Rho" xMin="21" yMin="0" xMax="440" yMax="640">
      <component glyphName="P" x="0" y="0" flags="0x400"/>
    </TTGlyph>
    <TTGlyph name="S" xMin="20" yMin="-8" xMax="445" yMax="648">
      <contour>
        <pt x="125" y="-8" on="0"/>
        <pt x="51" y="7" on="0"/>
        <pt x="20" y="22" on="1"/>
        <pt x="35" y="58" on="1"/>
        <pt x="95" y="36" on="0"/>
        <pt x="161" y="36" on="1"/>
        <pt x="241" y="36" on="0"/>
        <pt x="322" y="103" on="0"/>
        <pt x="322" y="156" on="1"/>
        <pt x="322" y="197" on="0"/>
        <pt x="276" y="247" on="0"/>
        <pt x="228" y="277" on="1"/>
        <pt x="191" y="300" on="0"/>
        <pt x="144" y="340" on="0"/>
        <pt x="111" y="402" on="0"/>
        <pt x="111" y="446" on="1"/>
        <pt x="111" y="538" on="0"/>
        <pt x="225" y="648" on="0"/>
        <pt x="334" y="648" on="1"/>
        <pt x="395" y="648" on="0"/>
        <pt x="445" y="630" on="1"/>
        <pt x="433" y="592" on="1"/>
        <pt x="383" y="604" on="0"/>
        <pt x="334" y="604" on="1"/>
        <pt x="247" y="604" on="0"/>
        <pt x="159" y="523" on="0"/>
        <pt x="159" y="448" on="1"/>
        <pt x="159" y="414" on="0"/>
        <pt x="186" y="365" on="0"/>
        <pt x="227" y="332" on="0"/>
        <pt x="261" y="311" on="1"/>
        <pt x="297" y="289" on="0"/>
        <pt x="340" y="254" on="0"/>
        <pt x="370" y="199" on="0"/>
        <pt x="370" y="160" on="1"/>
        <pt x="370" y="84" on="0"/>
        <pt x="262" y="-8" on="0"/>
        <pt x="161" y="-8" on="1"/>
      </contour>
    </TTGlyph>
    <TTGlyph name="S.sups" xMin="147" yMin="316" xMax="395" yMax="644">
      <contour>
        <pt x="191" y="316" on="0"/>
        <pt x="147" y="326" on="1"/>
        <pt x="163" y="377" on="1"/>
        <pt x="214" y="370" on="0"/>
        <pt x="234" y="370" on="1"/>
        <pt x="285" y="370" on="0"/>
        <pt x="294" y="414" on="1"/>
        <pt x="295" y="418" on="0"/>
        <pt x="295" y="425" on="1"/>
        <pt x="295" y="438" on="0"/>
        <pt x="278" y="449" on="0"/>
        <pt x="251" y="459" on="1"/>
        <pt x="221" y="469" on="0"/>
        <pt x="191" y="502" on="0"/>
        <pt x="191" y="529" on="1"/>
        <pt x="191" y="577" on="0"/>
        <pt x="250" y="644" on="0"/>
        <pt x="315" y="644" on="1"/>
        <pt x="357" y="644" on="0"/>
        <pt x="395" y="634" on="1"/>
        <pt x="379" y="583" on="1"/>
        <pt x="339" y="590" on="0"/>
        <pt x="315" y="590" on="1"/>
        <pt x="289" y="590" on="0"/>
        <pt x="256" y="564" on="0"/>
        <pt x="256" y="539" on="1"/>
        <pt x="256" y="528" on="0"/>
        <pt x="269" y="518" on="0"/>
        <pt x="290" y="510" on="0"/>
        <pt x="294" y="509" on="1"/>
        <pt x="328" y="498" on="0"/>
        <pt x="360" y="467" on="0"/>
        <pt x="360" y="437" on="1"/>
        <pt x="360" y="425" on="0"/>
        <pt x="357" y="408" on="1"/>
        <pt x="348" y="364" on="0"/>
        <pt x="287" y="316" on="0"/>
        <pt x="236" y="316" on="1"/>
      </contour>
    </TTGlyph>
    <TTGlyph name="Sacute" xMin="20" yMin="-8" xMax="445" yMax="840">
      <component glyphName="S" x="0" y="0" flags="0x400"/>
      <component glyphName="acutecomb.case" x="0" y="0" flags="0x400"/>
    </TTGlyph>
    <TTGlyph name="Scaron" xMin="20" yMin="-8" xMax="473" yMax="840">
      <component glyphName="S" x="0" y="0" flags="0x400"/>
      <component glyphName="uni030C.case" x="0" y="0" flags="0x400"/>
    </TTGlyph>
    <TTGlyph name="Scedilla" xMin="20" yMin="-192" xMax="445" yMax="648">
      <component glyphName="S" x="0" y="0" flags="0x400"/>
      <component glyphName="uni0327" x="12" y="0" flags="0x400"/>
    </TTGlyph>
    <TTGlyph name="Scircumflex" xMin="20" yMin="-8" xMax="445" yMax="840">
      <component glyphName="S" x="0" y="0" flags="0x400"/>
      <component glyphName="uni0302.case" x="0" y="0" flags="0x400"/>
    </TTGlyph>
    <TTGlyph name="Sigma" xMin="16" yMin="0" xMax="465" yMax="640">
      <contour>
        <pt x="218" y="320" on="1"/>
        <pt x="219" y="320" on="1"/>
        <pt x="149" y="603" on="1"/>
        <pt x="156" y="640" on="1"/>
        <pt x="465" y="640" on="1"/>
        <pt x="456" y="596" on="1"/>
        <pt x="203" y="596" on="1"/>
        <pt x="271" y="320" on="1"/>
        <pt x="272" y="320" on="1"/>
        <pt x="82" y="44" on="1"/>
        <pt x="346" y="44" on="1"/>
        <pt x="337" y="0" on="1"/>
        <pt x="16" y="0" on="1"/>
        <pt x="24" y="37" on="1"/>
        <pt x="23" y="37" on="1"/>
      </contour>
    </TTGlyph>
    <TTGlyph name="T" xMin="130" yMin="0" xMax="475" yMax="640">
      <contour>
        <pt x="323" y="596" on="1"/>
        <pt x="204" y="0" on="1"/>
        <pt x="154" y="0" on="1"/>
        <pt x="273" y="596" on="1"/>
        <pt x="130" y="596" on="1"/>
        <pt x="139" y="640" on="1"/>
        <pt x="475" y="640" on="1"/>
        <pt x="466" y="596" on="1"/>
      </contour>
    </TTGlyph>
    <TTGlyph name="T.sups" xMin="192" yMin="320" xMax="411" yMax="640">
      <contour>
        <pt x="400" y="584" on="1"/>
        <pt x="328" y="584" on="1"/>
        <pt x="275" y="320" on="1"/>
        <pt x="211" y="320" on="1"/>
        <pt x="264" y="584" on="1"/>
        <pt x="192" y="584" on="1"/>
        <pt x="203" y="640" on="1"/>
        <pt x="411" y="640" on="1"/>
      </contour>
    </TTGlyph>
    <TTGlyph name="Tau" xMin="130" yMin="0" xMax="475" yMax="640">
      <component glyphName="T" x="0" y="0" flags="0x400"/>
    </TTGlyph>
    <TTGlyph name="Tbar" xMin="90" yMin="0" xMax="475" yMax="640">
      <contour>
        <pt x="257" y="263" on="1"/>
        <pt x="204" y="0" on="1"/>
        <pt x="154" y="0" on="1"/>
        <pt x="207" y="263" on="1"/>
        <pt x="90" y="263" on="1"/>
        <pt x="90" y="313" on="1"/>
        <pt x="216" y="313" on="1"/>
        <pt x="273" y="596" on="1"/>
        <pt x="130" y="596" on="1"/>
        <pt x="139" y="640" on="1"/>
        <pt x="475" y="640" on="1"/>
        <pt x="466" y="596" on="1"/>
        <pt x="323" y="596" on="1"/>
        <pt x="266" y="313" on="1"/>
        <pt x="358" y="313" on="1"/>
        <pt x="358" y="263" on="1"/>
      </contour>
    </TTGlyph>
    <TTGlyph name="Tcaron" xMin="130" yMin="0" xMax="475" yMax="840">
      <component glyphName="T" x="0" y="0" flags="0x400"/>
      <component glyphName="uni030C.case" x="0" y="0" flags="0x400"/>
    </TTGlyph>
    <TTGlyph name="Theta" xMin="45" yMin="-10" xMax="442" yMax="650">
      <contour>
        <pt x="45" y="-10" on="0"/>
        <pt x="45" y="170" on="1"/>
        <pt x="45" y="236" on="0"/>
        <pt x="63" y="323" on="1"/>
        <pt x="96" y="489" on="0"/>
        <pt x="216" y="650" on="0"/>
        <pt x="306" y="650" on="1"/>
        <pt x="442" y="650" on="0"/>
        <pt x="442" y="474" on="1"/>
        <pt x="442" y="412" on="0"/>
        <pt x="423" y="315" on="1"/>
        <pt x="390" y="152" on="0"/>
        <pt x="272" y="-10" on="0"/>
        <pt x="181" y="-10" on="1"/>
      </contour>
      <contour>
        <pt x="93" y="194" on="0"/>
        <pt x="93" y="158" on="1"/>
        <pt x="93" y="94" on="0"/>
        <pt x="137" y="34" on="0"/>
        <pt x="183" y="34" on="1"/>
        <pt x="245" y="34" on="0"/>
        <pt x="330" y="143" on="0"/>
        <pt x="359" y="261" on="1"/>
        <pt x="103" y="261" on="1"/>
      </contour>
      <contour>
        <pt x="371" y="315" on="1"/>
        <pt x="373" y="323" on="1"/>
        <pt x="392" y="418" on="0"/>
        <pt x="392" y="482" on="1"/>
        <pt x="392" y="546" on="0"/>
        <pt x="349" y="606" on="0"/>
        <pt x="304" y="606" on="1"/>
        <pt x="234" y="606" on="0"/>
        <pt x="144" y="468" on="0"/>
        <pt x="113" y="315" on="1"/>
      </contour>
    </TTGlyph>
    <TTGlyph name="Thorn" xMin="21" yMin="0" xMax="418" yMax="640">
      <contour>
        <pt x="338" y="502" on="0"/>
        <pt x="418" y="430" on="0"/>
        <pt x="418" y="364" on="1"/>
        <pt x="418" y="337" on="0"/>
        <pt x="413" y="314" on="1"/>
        <pt x="395" y="227" on="0"/>
        <pt x="282" y="138" on="0"/>
        <pt x="197" y="138" on="1"/>
        <pt x="97" y="138" on="1"/>
        <pt x="69" y="0" on="1"/>
        <pt x="21" y="0" on="1"/>
        <pt x="149" y="640" on="1"/>
        <pt x="197" y="640" on="1"/>
        <pt x="170" y="502" on="1"/>
        <pt x="266" y="502" on="1"/>
      </contour>
      <contour>
        <pt x="199" y="182" on="1"/>
        <pt x="273" y="182" on="0"/>
        <pt x="351" y="256" on="0"/>
        <pt x="365" y="322" on="1"/>
        <pt x="370" y="347" on="0"/>
        <pt x="370" y="366" on="1"/>
        <pt x="370" y="458" on="0"/>
        <pt x="258" y="458" on="1"/>
        <pt x="161" y="458" on="1"/>
        <pt x="106" y="182" on="1"/>
      </contour>
    </TTGlyph>
    <TTGlyph name="U" xMin="49" yMin="-8" xMax="465" yMax="640">
      <contour>
        <pt x="197" y="640" on="1"/>
        <pt x="101" y="159" on="1"/>
        <pt x="96" y="131" on="0"/>
        <pt x="96" y="112" on="1"/>
        <pt x="96" y="76" on="0"/>
        <pt x="136" y="36" on="0"/>
        <pt x="183" y="36" on="1"/>
        <pt x="296" y="36" on="0"/>
        <pt x="322" y="163" on="1"/>
        <pt x="417" y="640" on="1"/>
        <pt x="465" y="640" on="1"/>
        <pt x="370" y="163" on="1"/>
        <pt x="352" y="75" on="0"/>
        <pt x="253" y="-8" on="0"/>
        <pt x="181" y="-8" on="1"/>
        <pt x="119" y="-8" on="0"/>
        <pt x="49" y="52" on="0"/>
        <pt x="49" y="114" on="1"/>
        <pt x="49" y="141" on="0"/>
        <pt x="54" y="165" on="1"/>
        <pt x="149" y="640" on="1"/>
      </contour>
    </TTGlyph>
    <TTGlyph name="U.short" xMin="49" yMin="-8" xMax="452" yMax="576">
      <contour>
        <pt x="184" y="576" on="1"/>
        <pt x="101" y="159" on="1"/>
        <pt x="96" y="131" on="0"/>
        <pt x="96" y="112" on="1"/>
        <pt x="96" y="76" on="0"/>
        <pt x="136" y="36" on="0"/>
        <pt x="183" y="36" on="1"/>
        <pt x="296" y="36" on="0"/>
        <pt x="322" y="163" on="1"/>
        <pt x="404" y="576" on="1"/>
        <pt x="452" y="576" on="1"/>
        <pt x="370" y="163" on="1"/>
        <pt x="352" y="75" on="0"/>
        <pt x="253" y="-8" on="0"/>
        <pt x="181" y="-8" on="1"/>
        <pt x="119" y="-8" on="0"/>
        <pt x="49" y="52" on="0"/>
        <pt x="49" y="114" on="1"/>
        <pt x="49" y="141" on="0"/>
        <pt x="54" y="165" on="1"/>
        <pt x="136" y="576" on="1"/>
      </contour>
    </TTGlyph>
    <TTGlyph name="U.sups" xMin="160" yMin="320" xMax="403" yMax="640">
      <contour>
        <pt x="275" y="640" on="1"/>
        <pt x="262" y="576" on="1"/>
        <pt x="250" y="512" on="1"/>
        <pt x="224" y="384" on="1"/>
        <pt x="160" y="384" on="1"/>
        <pt x="186" y="512" on="1"/>
        <pt x="198" y="576" on="1"/>
        <pt x="211" y="640" on="1"/>
      </contour>
      <contour>
        <pt x="224" y="384" on="1"/>
        <pt x="288" y="384" on="1"/>
        <pt x="314" y="512" on="1"/>
        <pt x="326" y="576" on="1"/>
        <pt x="339" y="640" on="1"/>
        <pt x="403" y="640" on="1"/>
        <pt x="390" y="576" on="1"/>
        <pt x="378" y="512" on="1"/>
        <pt x="339" y="320" on="1"/>
        <pt x="211" y="320" on="1"/>
      </contour>
    </TTGlyph>
    <TTGlyph name="Uacute" xMin="49" yMin="-8" xMax="465" yMax="840">
      <component glyphName="U" x="0" y="0" flags="0x400"/>
      <component glyphName="acutecomb.case" x="0" y="0" flags="0x400"/>
    </TTGlyph>
    <TTGlyph name="Ubreve" xMin="49" yMin="-8" xMax="465" yMax="830">
      <component glyphName="U" x="0" y="0" flags="0x400"/>
      <component glyphName="uni0306.case" x="0" y="0" flags="0x400"/>
    </TTGlyph>
    <TTGlyph name="Ucircumflex" xMin="49" yMin="-8" xMax="465" yMax="840">
      <component glyphName="U" x="0" y="0" flags="0x400"/>
      <component glyphName="uni0302.case" x="0" y="0" flags="0x400"/>
    </TTGlyph>
    <TTGlyph name="Udieresis" xMin="49" yMin="-8" xMax="472" yMax="810">
      <component glyphName="U" x="0" y="0" flags="0x400"/>
      <component glyphName="uni0308.case" x="0" y="0" flags="0x400"/>
    </TTGlyph>
    <TTGlyph name="Ugrave" xMin="49" yMin="-8" xMax="465" yMax="840">
      <component glyphName="U" x="0" y="0" flags="0x400"/>
      <component glyphName="gravecomb.case" x="0" y="0" flags="0x400"/>
    </TTGlyph>
    <TTGlyph name="Uhorn" xMin="49" yMin="-8" xMax="548" yMax="768">
      <component glyphName="U" x="0" y="0" flags="0x400"/>
      <component glyphName="uni031B.case" x="0" y="0" flags="0x400"/>
    </TTGlyph>
    <TTGlyph name="Uhorn.short" xMin="49" yMin="-8" xMax="535" yMax="704">
      <component glyphName="U.short" x="0" y="0" flags="0x400"/>
      <component glyphName="uni031B.case" x="-13" y="-64" flags="0x404"/>
    </TTGlyph>
    <TTGlyph name="Uhungarumlaut" xMin="49" yMin="-8" xMax="471" yMax="832">
      <component glyphName="U" x="0" y="0" flags="0x400"/>
      <component glyphName="uni030B.case" x="0" y="0" flags="0x400"/>
    </TTGlyph>
    <TTGlyph name="Umacron" xMin="49" yMin="-8" xMax="465" yMax="762">
      <component glyphName="U" x="0" y="0" flags="0x400"/>
      <component glyphName="uni0304.case" x="0" y="0" flags="0x400"/>
    </TTGlyph>
    <TTGlyph name="Uogonek" xMin="49" yMin="-197" xMax="465" yMax="640">
      <component glyphName="U" x="0" y="0" flags="0x400"/>
      <component glyphName="uni0328" x="-92" y="0" flags="0x400"/>
    </TTGlyph>
    <TTGlyph name="Upsilon" xMin="105" yMin="0" xMax="513" yMax="640">
      <contour>
        <pt x="194" y="258" on="0"/>
        <pt x="194" y="329" on="1"/>
        <pt x="194" y="500" on="0"/>
        <pt x="105" y="640" on="1"/>
        <pt x="193" y="640" on="1"/>
        <pt x="251" y="523" on="0"/>
        <pt x="250" y="368" on="1"/>
        <pt x="310" y="525" on="0"/>
        <pt x="413" y="640" on="1"/>
        <pt x="513" y="640" on="1"/>
        <pt x="299" y="433" on="0"/>
        <pt x="247" y="167" on="1"/>
        <pt x="214" y="0" on="1"/>
        <pt x="142" y="0" on="1"/>
        <pt x="177" y="173" on="1"/>
      </contour>
    </TTGlyph>
    <TTGlyph name="Upsilondieresis" xMin="105" yMin="0" xMax="513" yMax="810">
      <component glyphName="Upsilon" x="0" y="0" flags="0x400"/>
      <component glyphName="uni0308.case" x="0" y="0" flags="0x400"/>
    </TTGlyph>
    <TTGlyph name="Upsilontonos" xMin="9" yMin="0" xMax="513" yMax="704">
      <component glyphName="Upsilon" x="0" y="0" flags="0x400"/>
      <component glyphName="tonos" x="-256" y="0" flags="0x400"/>
    </TTGlyph>
    <TTGlyph name="Uring" xMin="49" yMin="-8" xMax="452" yMax="815">
      <component glyphName="U.short" x="0" y="0" flags="0x400"/>
      <component glyphName="uni030A.case" x="0" y="0" flags="0x400"/>
    </TTGlyph>
    <TTGlyph name="Utilde" xMin="49" yMin="-8" xMax="490" yMax="837">
      <component glyphName="U" x="0" y="0" flags="0x400"/>
      <component glyphName="tildecomb.case" x="0" y="0" flags="0x400"/>
    </TTGlyph>
    <TTGlyph name="V" xMin="110" yMin="-4" xMax="490" yMax="640">
      <contour>
        <pt x="110" y="158" on="0"/>
        <pt x="110" y="388" on="1"/>
        <pt x="110" y="511" on="0"/>
        <pt x="125" y="640" on="1"/>
        <pt x="175" y="640" on="1"/>
        <pt x="160" y="496" on="0"/>
        <pt x="160" y="371" on="1"/>
        <pt x="160" y="188" on="0"/>
        <pt x="190" y="62" on="1"/>
        <pt x="259" y="169" on="0"/>
        <pt x="387" y="466" on="0"/>
        <pt x="438" y="640" on="1"/>
        <pt x="490" y="640" on="1"/>
        <pt x="436" y="454" on="0"/>
        <pt x="286" y="120" on="0"/>
        <pt x="199" y="-4" on="1"/>
        <pt x="161" y="-4" on="1"/>
      </contour>
    </TTGlyph>
    <TTGlyph name="V.sups" xMin="188" yMin="320" xMax="425" yMax="640">
      <contour>
        <pt x="247" y="589" on="0"/>
        <pt x="247" y="537" on="1"/>
        <pt x="247" y="453" on="0"/>
        <pt x="254" y="383" on="1"/>
        <pt x="322" y="518" on="0"/>
        <pt x="362" y="640" on="1"/>
        <pt x="425" y="640" on="1"/>
        <pt x="371" y="474" on="0"/>
        <pt x="274" y="320" on="1"/>
        <pt x="218" y="320" on="1"/>
        <pt x="188" y="448" on="0"/>
        <pt x="188" y="578" on="1"/>
        <pt x="188" y="598" on="0"/>
        <pt x="190" y="640" on="1"/>
        <pt x="250" y="640" on="1"/>
      </contour>
    </TTGlyph>
    <TTGlyph name="W" xMin="72" yMin="0" xMax="488" yMax="640">
      <contour>
        <pt x="72" y="61" on="0"/>
        <pt x="72" y="134" on="1"/>
        <pt x="72" y="250" on="0"/>
        <pt x="99" y="490" on="0"/>
        <pt x="128" y="640" on="1"/>
        <pt x="176" y="640" on="1"/>
        <pt x="144" y="474" on="0"/>
        <pt x="116" y="211" on="0"/>
        <pt x="114" y="65" on="1"/>
        <pt x="164" y="170" on="0"/>
        <pt x="229" y="354" on="0"/>
        <pt x="248" y="448" on="1"/>
        <pt x="291" y="448" on="1"/>
        <pt x="265" y="325" on="0"/>
        <pt x="265" y="186" on="1"/>
        <pt x="265" y="121" on="0"/>
        <pt x="269" y="66" on="1"/>
        <pt x="326" y="212" on="0"/>
        <pt x="405" y="475" on="0"/>
        <pt x="440" y="640" on="1"/>
        <pt x="488" y="640" on="1"/>
        <pt x="448" y="447" on="0"/>
        <pt x="355" y="155" on="0"/>
        <pt x="284" y="0" on="1"/>
        <pt x="237" y="0" on="1"/>
        <pt x="227" y="95" on="0"/>
        <pt x="227" y="165" on="1"/>
        <pt x="227" y="205" on="0"/>
        <pt x="230" y="250" on="1"/>
        <pt x="210" y="186" on="0"/>
        <pt x="161" y="72" on="0"/>
        <pt x="124" y="0" on="1"/>
        <pt x="76" y="0" on="1"/>
      </contour>
    </TTGlyph>
    <TTGlyph name="W.sups" xMin="147" yMin="320" xMax="403" yMax="640">
      <contour>
        <pt x="275" y="640" on="1"/>
        <pt x="262" y="576" on="1"/>
        <pt x="326" y="576" on="1"/>
        <pt x="339" y="640" on="1"/>
        <pt x="403" y="640" on="1"/>
        <pt x="390" y="576" on="1"/>
        <pt x="378" y="512" on="1"/>
        <pt x="339" y="320" on="1"/>
        <pt x="147" y="320" on="1"/>
        <pt x="186" y="512" on="1"/>
        <pt x="198" y="576" on="1"/>
        <pt x="211" y="640" on="1"/>
      </contour>
    </TTGlyph>
    <TTGlyph name="Wacute" xMin="72" yMin="0" xMax="488" yMax="840">
      <component glyphName="W" x="0" y="0" flags="0x400"/>
      <component glyphName="acutecomb.case" x="0" y="0" flags="0x400"/>
    </TTGlyph>
    <TTGlyph name="Wcircumflex" xMin="72" yMin="0" xMax="488" yMax="840">
      <component glyphName="W" x="0" y="0" flags="0x400"/>
      <component glyphName="uni0302.case" x="0" y="0" flags="0x400"/>
    </TTGlyph>
    <TTGlyph name="Wdieresis" xMin="72" yMin="0" xMax="488" yMax="810">
      <component glyphName="W" x="0" y="0" flags="0x400"/>
      <component glyphName="uni0308.case" x="0" y="0" flags="0x400"/>
    </TTGlyph>
    <TTGlyph name="Wgrave" xMin="72" yMin="0" xMax="488" yMax="840">
      <component glyphName="W" x="0" y="0" flags="0x400"/>
      <component glyphName="gravecomb.case" x="0" y="0" flags="0x400"/>
    </TTGlyph>
    <TTGlyph name="X" xMin="7" yMin="0" xMax="469" yMax="640">
      <contour>
        <pt x="46" y="99" on="0"/>
        <pt x="131" y="232" on="0"/>
        <pt x="206" y="304" on="1"/>
        <pt x="170" y="354" on="0"/>
        <pt x="139" y="456" on="0"/>
        <pt x="139" y="525" on="1"/>
        <pt x="139" y="563" on="0"/>
        <pt x="146" y="640" on="1"/>
        <pt x="193" y="640" on="1"/>
        <pt x="185" y="565" on="0"/>
        <pt x="185" y="522" on="1"/>
        <pt x="185" y="458" on="0"/>
        <pt x="213" y="374" on="0"/>
        <pt x="247" y="327" on="1"/>
        <pt x="309" y="382" on="0"/>
        <pt x="385" y="521" on="0"/>
        <pt x="420" y="640" on="1"/>
        <pt x="469" y="640" on="1"/>
        <pt x="431" y="514" on="0"/>
        <pt x="345" y="361" on="0"/>
        <pt x="271" y="294" on="1"/>
        <pt x="319" y="227" on="0"/>
        <pt x="349" y="102" on="0"/>
        <pt x="348" y="0" on="1"/>
        <pt x="300" y="0" on="1"/>
        <pt x="301" y="101" on="0"/>
        <pt x="272" y="211" on="0"/>
        <pt x="230" y="271" on="1"/>
        <pt x="171" y="213" on="0"/>
        <pt x="98" y="96" on="0"/>
        <pt x="59" y="0" on="1"/>
        <pt x="7" y="0" on="1"/>
      </contour>
    </TTGlyph>
    <TTGlyph name="X.sups" xMin="147" yMin="320" xMax="403" yMax="640">
      <contour>
        <pt x="275" y="640" on="1"/>
        <pt x="262" y="576" on="1"/>
        <pt x="250" y="512" on="1"/>
        <pt x="186" y="512" on="1"/>
        <pt x="198" y="576" on="1"/>
        <pt x="211" y="640" on="1"/>
      </contour>
      <contour>
        <pt x="173" y="448" on="1"/>
        <pt x="237" y="448" on="1"/>
        <pt x="211" y="320" on="1"/>
        <pt x="147" y="320" on="1"/>
      </contour>
      <contour>
        <pt x="250" y="512" on="1"/>
        <pt x="314" y="512" on="1"/>
        <pt x="301" y="448" on="1"/>
        <pt x="237" y="448" on="1"/>
      </contour>
      <contour>
        <pt x="301" y="448" on="1"/>
        <pt x="365" y="448" on="1"/>
        <pt x="339" y="320" on="1"/>
        <pt x="275" y="320" on="1"/>
      </contour>
      <contour>
        <pt x="326" y="576" on="1"/>
        <pt x="339" y="640" on="1"/>
        <pt x="403" y="640" on="1"/>
        <pt x="390" y="576" on="1"/>
        <pt x="378" y="512" on="1"/>
        <pt x="314" y="512" on="1"/>
      </contour>
    </TTGlyph>
    <TTGlyph name="Xi" xMin="5" yMin="0" xMax="476" yMax="640">
      <contour>
        <pt x="476" y="640" on="1"/>
        <pt x="467" y="596" on="1"/>
        <pt x="129" y="596" on="1"/>
        <pt x="138" y="640" on="1"/>
      </contour>
      <contour>
        <pt x="14" y="44" on="1"/>
        <pt x="362" y="44" on="1"/>
        <pt x="353" y="0" on="1"/>
        <pt x="5" y="0" on="1"/>
      </contour>
      <contour>
        <pt x="121" y="310" on="1"/>
        <pt x="361" y="310" on="1"/>
        <pt x="352" y="266" on="1"/>
        <pt x="112" y="266" on="1"/>
      </contour>
    </TTGlyph>
    <TTGlyph name="Y" xMin="121" yMin="0" xMax="490" yMax="640">
      <contour>
        <pt x="196" y="202" on="1"/>
        <pt x="158" y="269" on="0"/>
        <pt x="121" y="430" on="0"/>
        <pt x="121" y="531" on="1"/>
        <pt x="121" y="577" on="0"/>
        <pt x="126" y="640" on="1"/>
        <pt x="173" y="640" on="1"/>
        <pt x="168" y="575" on="0"/>
        <pt x="168" y="530" on="1"/>
        <pt x="168" y="445" on="0"/>
        <pt x="194" y="303" on="0"/>
        <pt x="223" y="232" on="1"/>
        <pt x="298" y="323" on="0"/>
        <pt x="399" y="513" on="0"/>
        <pt x="440" y="640" on="1"/>
        <pt x="490" y="640" on="1"/>
        <pt x="446" y="498" on="0"/>
        <pt x="325" y="286" on="0"/>
        <pt x="244" y="202" on="1"/>
        <pt x="236" y="202" on="1"/>
        <pt x="244" y="202" on="1"/>
        <pt x="203" y="0" on="1"/>
        <pt x="155" y="0" on="1"/>
      </contour>
    </TTGlyph>
    <TTGlyph name="Y.short" xMin="108" yMin="0" xMax="477" yMax="576">
      <contour>
        <pt x="190" y="170" on="1"/>
        <pt x="108" y="303" on="0"/>
        <pt x="108" y="482" on="1"/>
        <pt x="108" y="521" on="0"/>
        <pt x="113" y="576" on="1"/>
        <pt x="160" y="576" on="1"/>
        <pt x="155" y="519" on="0"/>
        <pt x="155" y="481" on="1"/>
        <pt x="155" y="402" on="0"/>
        <pt x="185" y="267" on="0"/>
        <pt x="217" y="198" on="1"/>
        <pt x="289" y="284" on="0"/>
        <pt x="388" y="460" on="0"/>
        <pt x="427" y="576" on="1"/>
        <pt x="477" y="576" on="1"/>
        <pt x="434" y="445" on="0"/>
        <pt x="317" y="248" on="0"/>
        <pt x="238" y="170" on="1"/>
        <pt x="230" y="170" on="1"/>
        <pt x="238" y="170" on="1"/>
        <pt x="203" y="0" on="1"/>
        <pt x="155" y="0" on="1"/>
      </contour>
    </TTGlyph>
    <TTGlyph name="Y.sups" xMin="147" yMin="320" xMax="403" yMax="640">
      <contour>
        <pt x="275" y="640" on="1"/>
        <pt x="262" y="576" on="1"/>
        <pt x="250" y="512" on="1"/>
        <pt x="314" y="512" on="1"/>
        <pt x="326" y="576" on="1"/>
        <pt x="339" y="640" on="1"/>
        <pt x="403" y="640" on="1"/>
        <pt x="390" y="576" on="1"/>
        <pt x="378" y="512" on="1"/>
        <pt x="352" y="384" on="1"/>
        <pt x="288" y="384" on="1"/>
        <pt x="301" y="448" on="1"/>
        <pt x="173" y="448" on="1"/>
        <pt x="186" y="512" on="1"/>
        <pt x="198" y="576" on="1"/>
        <pt x="211" y="640" on="1"/>
      </contour>
      <contour>
        <pt x="160" y="384" on="1"/>
        <pt x="288" y="384" on="1"/>
        <pt x="275" y="320" on="1"/>
        <pt x="147" y="320" on="1"/>
      </contour>
    </TTGlyph>
    <TTGlyph name="Yacute" xMin="121" yMin="0" xMax="490" yMax="840">
      <component glyphName="Y" x="0" y="0" flags="0x400"/>
      <component glyphName="acutecomb.case" x="0" y="0" flags="0x400"/>
    </TTGlyph>
    <TTGlyph name="Ycircumflex" xMin="121" yMin="0" xMax="490" yMax="840">
      <component glyphName="Y" x="0" y="0" flags="0x400"/>
      <component glyphName="uni0302.case" x="0" y="0" flags="0x400"/>
    </TTGlyph>
    <TTGlyph name="Ydieresis" xMin="121" yMin="0" xMax="490" yMax="810">
      <component glyphName="Y" x="0" y="0" flags="0x400"/>
      <component glyphName="uni0308.case" x="0" y="0" flags="0x400"/>
    </TTGlyph>
    <TTGlyph name="Ygrave" xMin="121" yMin="0" xMax="490" yMax="840">
      <component glyphName="Y" x="0" y="0" flags="0x400"/>
      <component glyphName="gravecomb.case" x="0" y="0" flags="0x400"/>
    </TTGlyph>
    <TTGlyph name="Z" xMin="16" yMin="0" xMax="465" yMax="640">
      <contour>
        <pt x="24" y="37" on="1"/>
        <pt x="23" y="37" on="1"/>
        <pt x="396" y="596" on="1"/>
        <pt x="147" y="596" on="1"/>
        <pt x="156" y="640" on="1"/>
        <pt x="465" y="640" on="1"/>
        <pt x="458" y="603" on="1"/>
        <pt x="85" y="44" on="1"/>
        <pt x="346" y="44" on="1"/>
        <pt x="337" y="0" on="1"/>
        <pt x="16" y="0" on="1"/>
      </contour>
    </TTGlyph>
    <TTGlyph name="Z.sups" xMin="140" yMin="320" xMax="399" yMax="640">
      <contour>
        <pt x="150" y="368" on="1"/>
        <pt x="149" y="368" on="1"/>
        <pt x="313" y="586" on="1"/>
        <pt x="197" y="586" on="1"/>
        <pt x="208" y="640" on="1"/>
        <pt x="399" y="640" on="1"/>
        <pt x="389" y="592" on="1"/>
        <pt x="390" y="592" on="1"/>
        <pt x="227" y="374" on="1"/>
        <pt x="346" y="374" on="1"/>
        <pt x="335" y="320" on="1"/>
        <pt x="140" y="320" on="1"/>
      </contour>
    </TTGlyph>
    <TTGlyph name="Zacute" xMin="16" yMin="0" xMax="465" yMax="840">
      <component glyphName="Z" x="0" y="0" flags="0x400"/>
      <component glyphName="acutecomb.case" x="0" y="0" flags="0x400"/>
    </TTGlyph>
    <TTGlyph name="Zcaron" xMin="16" yMin="0" xMax="473" yMax="840">
      <component glyphName="Z" x="0" y="0" flags="0x400"/>
      <component glyphName="uni030C.case" x="0" y="0" flags="0x400"/>
    </TTGlyph>
    <TTGlyph name="Zdotaccent" xMin="16" yMin="0" xMax="465" yMax="837">
      <component glyphName="Z" x="0" y="0" flags="0x400"/>
      <component glyphName="uni0307" x="38" y="192" flags="0x404"/>
    </TTGlyph>
    <TTGlyph name="Zeta" xMin="16" yMin="0" xMax="465" yMax="640">
      <component glyphName="Z" x="0" y="0" flags="0x400"/>
    </TTGlyph>
    <TTGlyph name="_part.slash.comp" xMin="81" yMin="163" xMax="383" yMax="374">
      <contour>
        <pt x="362" y="374" on="1"/>
        <pt x="383" y="339" on="1"/>
        <pt x="102" y="163" on="1"/>
        <pt x="81" y="198" on="1"/>
      </contour>
    </TTGlyph>
    <TTGlyph name="a" xMin="26" yMin="-4" xMax="389" yMax="452">
      <contour>
        <pt x="340" y="323" on="0"/>
        <pt x="340" y="345" on="1"/>
        <pt x="340" y="380" on="0"/>
        <pt x="303" y="407" on="0"/>
        <pt x="262" y="407" on="1"/>
        <pt x="227" y="407" on="0"/>
        <pt x="158" y="392" on="0"/>
        <pt x="115" y="378" on="1"/>
        <pt x="107" y="418" on="1"/>
        <pt x="194" y="452" on="0"/>
        <pt x="268" y="452" on="1"/>
        <pt x="389" y="452" on="0"/>
        <pt x="389" y="352" on="1"/>
        <pt x="389" y="330" on="0"/>
        <pt x="385" y="310" on="1"/>
        <pt x="339" y="78" on="1"/>
        <pt x="325" y="0" on="1"/>
        <pt x="282" y="0" on="1"/>
        <pt x="292" y="74" on="1"/>
        <pt x="252" y="32" on="0"/>
        <pt x="178" y="-4" on="0"/>
        <pt x="134" y="-4" on="1"/>
        <pt x="83" y="-4" on="0"/>
        <pt x="26" y="49" on="0"/>
        <pt x="26" y="91" on="1"/>
        <pt x="26" y="171" on="0"/>
        <pt x="181" y="255" on="0"/>
        <pt x="326" y="257" on="1"/>
        <pt x="335" y="300" on="1"/>
      </contour>
      <contour>
        <pt x="77" y="69" on="0"/>
        <pt x="107" y="41" on="0"/>
        <pt x="139" y="41" on="1"/>
        <pt x="181" y="41" on="0"/>
        <pt x="254" y="81" on="0"/>
        <pt x="303" y="136" on="1"/>
        <pt x="319" y="218" on="1"/>
        <pt x="199" y="216" on="0"/>
        <pt x="77" y="151" on="0"/>
        <pt x="77" y="93" on="1"/>
      </contour>
    </TTGlyph>
    <TTGlyph name="aacute" xMin="26" yMin="-4" xMax="415" yMax="704">
      <component glyphName="a" x="0" y="0" flags="0x400"/>
      <component glyphName="acutecomb" x="0" y="0" flags="0x400"/>
    </TTGlyph>
    <TTGlyph name="abreve" xMin="26" yMin="-4" xMax="427" yMax="638">
      <component glyphName="a" x="0" y="0" flags="0x400"/>
      <component glyphName="uni0306" x="0" y="0" flags="0x400"/>
    </TTGlyph>
    <TTGlyph name="acircumflex" xMin="26" yMin="-4" xMax="407" yMax="648">
      <component glyphName="a" x="0" y="0" flags="0x400"/>
      <component glyphName="uni0302" x="0" y="0" flags="0x400"/>
    </TTGlyph>
    <TTGlyph name="acute" xMin="191" yMin="384" xMax="387" yMax="640">
      <contour>
        <pt x="191" y="384" on="1"/>
        <pt x="307" y="640" on="1"/>
        <pt x="387" y="640" on="1"/>
        <pt x="244" y="384" on="1"/>
      </contour>
    </TTGlyph>
    <TTGlyph name="acutecomb" xMin="258" yMin="512" xMax="415" yMax="704">
      <contour>
        <pt x="353" y="704" on="1"/>
        <pt x="415" y="704" on="1"/>
        <pt x="306" y="512" on="1"/>
        <pt x="258" y="512" on="1"/>
      </contour>
    </TTGlyph>
    <TTGlyph name="acutecomb.alt" xMin="258" yMin="514" xMax="404" yMax="648">
      <contour>
        <pt x="342" y="648" on="1"/>
        <pt x="404" y="648" on="1"/>
        <pt x="306" y="514" on="1"/>
        <pt x="258" y="514" on="1"/>
      </contour>
    </TTGlyph>
    <TTGlyph name="acutecomb.case" xMin="296" yMin="706" xMax="442" yMax="840">
      <component glyphName="acutecomb.alt" x="38" y="192" flags="0x404"/>
    </TTGlyph>
    <TTGlyph name="adieresis" xMin="26" yMin="-4" xMax="438" yMax="642">
      <component glyphName="a" x="0" y="0" flags="0x400"/>
      <component glyphName="uni0308" x="0" y="0" flags="0x400"/>
    </TTGlyph>
    <TTGlyph name="ae" xMin="-34" yMin="-9" xMax="468" yMax="455">
      <contour>
        <pt x="256" y="-9" on="0"/>
        <pt x="205" y="26" on="0"/>
        <pt x="194" y="55" on="1"/>
        <pt x="120" y="-8" on="0"/>
        <pt x="59" y="-8" on="1"/>
        <pt x="16" y="-8" on="0"/>
        <pt x="-34" y="41" on="0"/>
        <pt x="-34" y="89" on="1"/>
        <pt x="-34" y="169" on="0"/>
        <pt x="92" y="251" on="0"/>
        <pt x="201" y="255" on="1"/>
        <pt x="210" y="300" on="1"/>
        <pt x="217" y="337" on="0"/>
        <pt x="217" y="354" on="1"/>
        <pt x="217" y="383" on="0"/>
        <pt x="191" y="410" on="0"/>
        <pt x="162" y="410" on="1"/>
        <pt x="115" y="410" on="0"/>
        <pt x="51" y="384" on="1"/>
        <pt x="43" y="425" on="1"/>
        <pt x="112" y="455" on="0"/>
        <pt x="167" y="455" on="1"/>
        <pt x="206" y="455" on="0"/>
        <pt x="256" y="421" on="0"/>
        <pt x="260" y="389" on="1"/>
        <pt x="281" y="423" on="0"/>
        <pt x="335" y="455" on="0"/>
        <pt x="372" y="455" on="1"/>
        <pt x="418" y="455" on="0"/>
        <pt x="468" y="388" on="0"/>
        <pt x="468" y="326" on="1"/>
        <pt x="468" y="276" on="0"/>
        <pt x="452" y="213" on="1"/>
        <pt x="241" y="213" on="1"/>
        <pt x="231" y="160" on="0"/>
        <pt x="231" y="127" on="1"/>
        <pt x="231" y="81" on="0"/>
        <pt x="267" y="33" on="0"/>
        <pt x="307" y="33" on="1"/>
        <pt x="345" y="33" on="0"/>
        <pt x="395" y="52" on="1"/>
        <pt x="400" y="13" on="1"/>
        <pt x="350" y="-9" on="0"/>
        <pt x="297" y="-9" on="1"/>
      </contour>
      <contour>
        <pt x="19" y="96" on="0"/>
        <pt x="19" y="85" on="1"/>
        <pt x="19" y="36" on="0"/>
        <pt x="66" y="36" on="1"/>
        <pt x="93" y="36" on="0"/>
        <pt x="150" y="66" on="0"/>
        <pt x="184" y="97" on="1"/>
        <pt x="182" y="117" on="0"/>
        <pt x="182" y="127" on="1"/>
        <pt x="182" y="168" on="0"/>
        <pt x="194" y="216" on="1"/>
        <pt x="111" y="211" on="0"/>
        <pt x="32" y="158" on="0"/>
        <pt x="22" y="111" on="1"/>
      </contour>
      <contour>
        <pt x="413" y="259" on="1"/>
        <pt x="421" y="302" on="0"/>
        <pt x="421" y="332" on="1"/>
        <pt x="421" y="411" on="0"/>
        <pt x="368" y="411" on="1"/>
        <pt x="325" y="411" on="0"/>
        <pt x="270" y="331" on="0"/>
        <pt x="252" y="255" on="1"/>
      </contour>
    </TTGlyph>
    <TTGlyph name="aeacute" xMin="-34" yMin="-9" xMax="468" yMax="704">
      <component glyphName="ae" x="0" y="0" flags="0x400"/>
      <component glyphName="acutecomb" x="0" y="0" flags="0x400"/>
    </TTGlyph>
    <TTGlyph name="agrave" xMin="26" yMin="-4" xMax="389" yMax="704">
      <component glyphName="a" x="0" y="0" flags="0x400"/>
      <component glyphName="gravecomb" x="0" y="0" flags="0x400"/>
    </TTGlyph>
    <TTGlyph name="alpha" xMin="39" yMin="-8" xMax="411" yMax="456">
      <contour>
        <pt x="316" y="-6" on="0"/>
        <pt x="290" y="13" on="0"/>
        <pt x="286" y="29" on="1"/>
        <pt x="230" y="-8" on="0"/>
        <pt x="174" y="-8" on="1"/>
        <pt x="115" y="-8" on="0"/>
        <pt x="81" y="26" on="1"/>
        <pt x="39" y="68" on="0"/>
        <pt x="39" y="159" on="1"/>
        <pt x="39" y="226" on="0"/>
        <pt x="84" y="356" on="0"/>
        <pt x="127" y="399" on="1"/>
        <pt x="184" y="456" on="0"/>
        <pt x="264" y="456" on="1"/>
        <pt x="318" y="456" on="0"/>
        <pt x="358" y="421" on="1"/>
        <pt x="366" y="448" on="1"/>
        <pt x="411" y="448" on="1"/>
        <pt x="396" y="385" on="1"/>
        <pt x="332" y="64" on="1"/>
        <pt x="331" y="60" on="0"/>
        <pt x="331" y="54" on="1"/>
        <pt x="331" y="45" on="0"/>
        <pt x="342" y="36" on="0"/>
        <pt x="355" y="36" on="1"/>
        <pt x="366" y="36" on="0"/>
        <pt x="380" y="38" on="1"/>
        <pt x="380" y="-1" on="1"/>
        <pt x="361" y="-6" on="0"/>
        <pt x="338" y="-6" on="1"/>
      </contour>
      <contour>
        <pt x="93" y="85" on="0"/>
        <pt x="123" y="55" on="1"/>
        <pt x="144" y="34" on="0"/>
        <pt x="179" y="34" on="1"/>
        <pt x="231" y="34" on="0"/>
        <pt x="285" y="70" on="1"/>
        <pt x="348" y="383" on="1"/>
        <pt x="312" y="414" on="0"/>
        <pt x="265" y="414" on="1"/>
        <pt x="209" y="414" on="0"/>
        <pt x="168" y="373" on="1"/>
        <pt x="131" y="336" on="0"/>
        <pt x="93" y="218" on="0"/>
        <pt x="93" y="159" on="1"/>
      </contour>
    </TTGlyph>
    <TTGlyph name="alphatonos" xMin="39" yMin="-8" xMax="411" yMax="704">
      <component glyphName="alpha" x="0" y="0" flags="0x400"/>
      <component glyphName="tonos" x="0" y="0" flags="0x400"/>
    </TTGlyph>
    <TTGlyph name="amacron" xMin="26" yMin="-4" xMax="417" yMax="620">
      <component glyphName="a" x="0" y="0" flags="0x400"/>
      <component glyphName="uni0304" x="0" y="0" flags="0x400"/>
    </TTGlyph>
    <TTGlyph name="ampersand" xMin="22" yMin="-10" xMax="439" yMax="542">
      <contour>
        <pt x="313" y="498" on="0"/>
        <pt x="265" y="498" on="1"/>
        <pt x="210" y="498" on="0"/>
        <pt x="148" y="443" on="0"/>
        <pt x="139" y="400" on="1"/>
        <pt x="137" y="392" on="0"/>
        <pt x="137" y="377" on="1"/>
        <pt x="137" y="310" on="0"/>
        <pt x="227" y="310" on="1"/>
        <pt x="439" y="310" on="1"/>
        <pt x="430" y="266" on="1"/>
        <pt x="371" y="266" on="1"/>
        <pt x="322" y="17" on="1"/>
        <pt x="284" y="4" on="0"/>
        <pt x="198" y="-10" on="0"/>
        <pt x="165" y="-10" on="1"/>
        <pt x="90" y="-10" on="0"/>
        <pt x="22" y="54" on="0"/>
        <pt x="22" y="106" on="1"/>
        <pt x="22" y="128" on="0"/>
        <pt x="26" y="147" on="1"/>
        <pt x="34" y="189" on="0"/>
        <pt x="95" y="266" on="0"/>
        <pt x="154" y="288" on="1"/>
        <pt x="122" y="301" on="0"/>
        <pt x="90" y="350" on="0"/>
        <pt x="90" y="381" on="1"/>
        <pt x="90" y="395" on="0"/>
        <pt x="93" y="408" on="1"/>
        <pt x="105" y="468" on="0"/>
        <pt x="199" y="542" on="0"/>
        <pt x="274" y="542" on="1"/>
        <pt x="325" y="542" on="0"/>
        <pt x="373" y="531" on="1"/>
        <pt x="361" y="490" on="1"/>
      </contour>
      <contour>
        <pt x="70" y="122" on="0"/>
        <pt x="70" y="107" on="1"/>
        <pt x="70" y="34" on="0"/>
        <pt x="160" y="34" on="1"/>
        <pt x="228" y="34" on="0"/>
        <pt x="280" y="49" on="1"/>
        <pt x="323" y="266" on="1"/>
        <pt x="235" y="266" on="1"/>
        <pt x="163" y="266" on="0"/>
        <pt x="83" y="191" on="0"/>
        <pt x="73" y="137" on="1"/>
      </contour>
    </TTGlyph>
    <TTGlyph name="angle" xMin="32" yMin="64" xMax="370" yMax="522">
      <contour>
        <pt x="32" y="64" on="1"/>
        <pt x="44" y="128" on="1"/>
        <pt x="317" y="522" on="1"/>
        <pt x="370" y="494" on="1"/>
        <pt x="117" y="128" on="1"/>
        <pt x="365" y="128" on="1"/>
        <pt x="352" y="64" on="1"/>
      </contour>
    </TTGlyph>
    <TTGlyph name="anoteleia" xMin="208" yMin="354" xMax="313" yMax="458">
      <component glyphName="period" x="105" y="364" flags="0x404"/>
    </TTGlyph>
    <TTGlyph name="aogonek" xMin="26" yMin="-197" xMax="389" yMax="452">
      <component glyphName="a" x="0" y="0" flags="0x400"/>
      <component glyphName="uni0328" x="-4" y="0" flags="0x400"/>
    </TTGlyph>
    <TTGlyph name="approxequal" xMin="24" yMin="156" xMax="450" yMax="420">
      <contour>
        <pt x="274" y="156" on="0"/>
        <pt x="229" y="178" on="0"/>
        <pt x="205" y="197" on="1"/>
        <pt x="182" y="214" on="0"/>
        <pt x="155" y="228" on="0"/>
        <pt x="137" y="228" on="1"/>
        <pt x="111" y="228" on="0"/>
        <pt x="74" y="193" on="0"/>
        <pt x="61" y="157" on="1"/>
        <pt x="24" y="165" on="1"/>
        <pt x="41" y="216" on="0"/>
        <pt x="97" y="268" on="0"/>
        <pt x="138" y="268" on="1"/>
        <pt x="169" y="268" on="0"/>
        <pt x="211" y="248" on="0"/>
        <pt x="239" y="227" on="1"/>
        <pt x="259" y="211" on="0"/>
        <pt x="289" y="196" on="0"/>
        <pt x="306" y="196" on="1"/>
        <pt x="333" y="196" on="0"/>
        <pt x="369" y="231" on="0"/>
        <pt x="382" y="267" on="1"/>
        <pt x="419" y="259" on="1"/>
        <pt x="402" y="208" on="0"/>
        <pt x="346" y="156" on="0"/>
        <pt x="305" y="156" on="1"/>
      </contour>
      <contour>
        <pt x="71" y="368" on="0"/>
        <pt x="127" y="420" on="0"/>
        <pt x="169" y="420" on="1"/>
        <pt x="200" y="420" on="0"/>
        <pt x="243" y="399" on="0"/>
        <pt x="269" y="379" on="1"/>
        <pt x="289" y="363" on="0"/>
        <pt x="319" y="348" on="0"/>
        <pt x="336" y="348" on="1"/>
        <pt x="363" y="348" on="0"/>
        <pt x="399" y="383" on="0"/>
        <pt x="413" y="419" on="1"/>
        <pt x="450" y="411" on="1"/>
        <pt x="433" y="360" on="0"/>
        <pt x="377" y="308" on="0"/>
        <pt x="335" y="308" on="1"/>
        <pt x="304" y="308" on="0"/>
        <pt x="261" y="329" on="0"/>
        <pt x="235" y="349" on="1"/>
        <pt x="215" y="365" on="0"/>
        <pt x="185" y="380" on="0"/>
        <pt x="168" y="380" on="1"/>
        <pt x="141" y="380" on="0"/>
        <pt x="105" y="345" on="0"/>
        <pt x="91" y="309" on="1"/>
        <pt x="54" y="317" on="1"/>
      </contour>
    </TTGlyph>
    <TTGlyph name="aring" xMin="26" yMin="-4" xMax="397" yMax="687">
      <component glyphName="a" x="0" y="0" flags="0x400"/>
      <component glyphName="uni030A" x="0" y="0" flags="0x400"/>
    </TTGlyph>
    <TTGlyph name="aringacute" xMin="26" yMin="-4" xMax="449" yMax="872">
      <component glyphName="a" x="0" y="0" flags="0x400"/>
      <component glyphName="uni030A" x="0" y="0" flags="0x400"/>
      <component glyphName="acutecomb.alt" x="45" y="224" flags="0x404"/>
    </TTGlyph>
    <TTGlyph name="arrowboth" xMin="-1" yMin="118" xMax="474" yMax="458">
      <contour>
        <pt x="195" y="162" on="1"/>
        <pt x="149" y="118" on="1"/>
        <pt x="-1" y="266" on="1"/>
        <pt x="6" y="310" on="1"/>
        <pt x="214" y="458" on="1"/>
        <pt x="245" y="414" on="1"/>
        <pt x="118" y="320" on="1"/>
        <pt x="370" y="320" on="1"/>
        <pt x="279" y="414" on="1"/>
        <pt x="324" y="458" on="1"/>
        <pt x="474" y="310" on="1"/>
        <pt x="467" y="266" on="1"/>
        <pt x="259" y="118" on="1"/>
        <pt x="229" y="162" on="1"/>
        <pt x="355" y="256" on="1"/>
        <pt x="103" y="256" on="1"/>
      </contour>
    </TTGlyph>
    <TTGlyph name="arrowdown" xMin="56" yMin="54" xMax="396" yMax="512">
      <contour>
        <pt x="56" y="233" on="1"/>
        <pt x="87" y="258" on="1"/>
        <pt x="181" y="127" on="1"/>
        <pt x="258" y="512" on="1"/>
        <pt x="304" y="512" on="1"/>
        <pt x="227" y="127" on="1"/>
        <pt x="371" y="258" on="1"/>
        <pt x="396" y="233" on="1"/>
        <pt x="205" y="54" on="1"/>
        <pt x="175" y="54" on="1"/>
      </contour>
    </TTGlyph>
    <TTGlyph name="arrowleft" xMin="0" yMin="118" xMax="465" yMax="458">
      <contour>
        <pt x="0" y="273" on="1"/>
        <pt x="5" y="303" on="1"/>
        <pt x="214" y="458" on="1"/>
        <pt x="235" y="430" on="1"/>
        <pt x="81" y="311" on="1"/>
        <pt x="465" y="311" on="1"/>
        <pt x="456" y="265" on="1"/>
        <pt x="70" y="265" on="1"/>
        <pt x="178" y="146" on="1"/>
        <pt x="149" y="118" on="1"/>
      </contour>
    </TTGlyph>
    <TTGlyph name="arrowright" xMin="8" yMin="118" xMax="473" yMax="458">
      <contour>
        <pt x="238" y="146" on="1"/>
        <pt x="392" y="265" on="1"/>
        <pt x="8" y="265" on="1"/>
        <pt x="17" y="311" on="1"/>
        <pt x="403" y="311" on="1"/>
        <pt x="295" y="430" on="1"/>
        <pt x="324" y="458" on="1"/>
        <pt x="473" y="303" on="1"/>
        <pt x="468" y="273" on="1"/>
        <pt x="259" y="118" on="1"/>
      </contour>
    </TTGlyph>
    <TTGlyph name="arrowup" xMin="78" yMin="64" xMax="418" yMax="522">
      <contour>
        <pt x="102" y="318" on="1"/>
        <pt x="78" y="343" on="1"/>
        <pt x="268" y="522" on="1"/>
        <pt x="298" y="522" on="1"/>
        <pt x="418" y="343" on="1"/>
        <pt x="386" y="318" on="1"/>
        <pt x="292" y="449" on="1"/>
        <pt x="215" y="64" on="1"/>
        <pt x="169" y="64" on="1"/>
        <pt x="246" y="449" on="1"/>
      </contour>
    </TTGlyph>
    <TTGlyph name="arrowupdn" xMin="56" yMin="54" xMax="418" yMax="522">
      <contour>
        <pt x="115" y="305" on="1"/>
        <pt x="78" y="343" on="1"/>
        <pt x="261" y="522" on="1"/>
        <pt x="305" y="522" on="1"/>
        <pt x="418" y="343" on="1"/>
        <pt x="367" y="305" on="1"/>
        <pt x="295" y="414" on="1"/>
        <pt x="243" y="162" on="1"/>
        <pt x="358" y="271" on="1"/>
        <pt x="396" y="233" on="1"/>
        <pt x="213" y="54" on="1"/>
        <pt x="169" y="54" on="1"/>
        <pt x="56" y="233" on="1"/>
        <pt x="106" y="271" on="1"/>
        <pt x="179" y="162" on="1"/>
        <pt x="231" y="414" on="1"/>
      </contour>
    </TTGlyph>
    <TTGlyph name="arrowupdnbse" xMin="56" yMin="0" xMax="418" yMax="522">
      <contour>
        <pt x="163" y="64" on="1"/>
        <pt x="56" y="233" on="1"/>
        <pt x="106" y="271" on="1"/>
        <pt x="179" y="162" on="1"/>
        <pt x="231" y="414" on="1"/>
        <pt x="115" y="305" on="1"/>
        <pt x="78" y="343" on="1"/>
        <pt x="261" y="522" on="1"/>
        <pt x="305" y="522" on="1"/>
        <pt x="418" y="343" on="1"/>
        <pt x="367" y="305" on="1"/>
        <pt x="295" y="414" on="1"/>
        <pt x="243" y="162" on="1"/>
        <pt x="358" y="271" on="1"/>
        <pt x="396" y="233" on="1"/>
        <pt x="223" y="64" on="1"/>
        <pt x="384" y="64" on="1"/>
        <pt x="384" y="0" on="1"/>
        <pt x="64" y="0" on="1"/>
        <pt x="64" y="64" on="1"/>
      </contour>
    </TTGlyph>
    <TTGlyph name="asciicircum" xMin="47" yMin="192" xMax="387" yMax="566">
      <contour>
        <pt x="325" y="566" on="1"/>
        <pt x="387" y="192" on="1"/>
        <pt x="338" y="192" on="1"/>
        <pt x="284" y="522" on="1"/>
        <pt x="98" y="192" on="1"/>
        <pt x="47" y="192" on="1"/>
        <pt x="259" y="566" on="1"/>
      </contour>
    </TTGlyph>
    <TTGlyph name="asciitilde" xMin="-4" yMin="192" xMax="478" yMax="384">
      <contour>
        <pt x="301" y="192" on="0"/>
        <pt x="259" y="215" on="0"/>
        <pt x="233" y="248" on="0"/>
        <pt x="215" y="276" on="1"/>
        <pt x="196" y="309" on="0"/>
        <pt x="165" y="340" on="0"/>
        <pt x="140" y="340" on="1"/>
        <pt x="101" y="340" on="0"/>
        <pt x="57" y="278" on="0"/>
        <pt x="37" y="207" on="1"/>
        <pt x="-4" y="214" on="1"/>
        <pt x="18" y="301" on="0"/>
        <pt x="87" y="384" on="0"/>
        <pt x="145" y="384" on="1"/>
        <pt x="187" y="384" on="0"/>
        <pt x="233" y="341" on="0"/>
        <pt x="258" y="300" on="1"/>
        <pt x="278" y="268" on="0"/>
        <pt x="309" y="236" on="0"/>
        <pt x="334" y="236" on="1"/>
        <pt x="373" y="236" on="0"/>
        <pt x="417" y="298" on="0"/>
        <pt x="437" y="369" on="1"/>
        <pt x="478" y="363" on="1"/>
        <pt x="456" y="276" on="0"/>
        <pt x="387" y="192" on="0"/>
        <pt x="331" y="192" on="1"/>
      </contour>
    </TTGlyph>
    <TTGlyph name="asterisk" xMin="43" yMin="79" xMax="429" yMax="497">
      <contour>
        <pt x="270" y="281" on="1"/>
        <pt x="384" y="141" on="1"/>
        <pt x="347" y="111" on="1"/>
        <pt x="248" y="236" on="1"/>
        <pt x="219" y="79" on="1"/>
        <pt x="172" y="89" on="1"/>
        <pt x="205" y="245" on="1"/>
        <pt x="65" y="167" on="1"/>
        <pt x="43" y="209" on="1"/>
        <pt x="202" y="295" on="1"/>
        <pt x="88" y="435" on="1"/>
        <pt x="125" y="465" on="1"/>
        <pt x="224" y="340" on="1"/>
        <pt x="253" y="497" on="1"/>
        <pt x="300" y="487" on="1"/>
        <pt x="267" y="331" on="1"/>
        <pt x="407" y="409" on="1"/>
        <pt x="429" y="367" on="1"/>
      </contour>
    </TTGlyph>
    <TTGlyph name="at" xMin="39" yMin="-128" xMax="416" yMax="586">
      <contour>
        <pt x="319" y="69" on="0"/>
        <pt x="273" y="69" on="1"/>
        <pt x="224" y="69" on="0"/>
        <pt x="171" y="124" on="0"/>
        <pt x="171" y="175" on="1"/>
        <pt x="171" y="202" on="0"/>
        <pt x="176" y="224" on="1"/>
        <pt x="190" y="292" on="0"/>
        <pt x="276" y="370" on="0"/>
        <pt x="359" y="381" on="1"/>
        <pt x="360" y="386" on="1"/>
        <pt x="369" y="430" on="0"/>
        <pt x="369" y="461" on="1"/>
        <pt x="369" y="502" on="0"/>
        <pt x="336" y="541" on="0"/>
        <pt x="298" y="541" on="1"/>
        <pt x="252" y="541" on="0"/>
        <pt x="184" y="475" on="0"/>
        <pt x="130" y="335" on="0"/>
        <pt x="107" y="219" on="1"/>
        <pt x="86" y="114" on="0"/>
        <pt x="86" y="50" on="1"/>
        <pt x="86" y="-22" on="0"/>
        <pt x="134" y="-85" on="0"/>
        <pt x="182" y="-85" on="1"/>
        <pt x="218" y="-85" on="0"/>
        <pt x="260" y="-73" on="1"/>
        <pt x="266" y="-112" on="1"/>
        <pt x="244" y="-120" on="0"/>
        <pt x="195" y="-128" on="0"/>
        <pt x="177" y="-128" on="1"/>
        <pt x="106" y="-128" on="0"/>
        <pt x="39" y="-44" on="0"/>
        <pt x="39" y="45" on="1"/>
        <pt x="39" y="121" on="0"/>
        <pt x="61" y="227" on="1"/>
        <pt x="99" y="413" on="0"/>
        <pt x="210" y="586" on="0"/>
        <pt x="302" y="586" on="1"/>
        <pt x="360" y="586" on="0"/>
        <pt x="416" y="517" on="0"/>
        <pt x="416" y="455" on="1"/>
        <pt x="416" y="424" on="0"/>
        <pt x="408" y="382" on="1"/>
        <pt x="349" y="78" on="1"/>
      </contour>
      <contour>
        <pt x="219" y="191" on="0"/>
        <pt x="219" y="174" on="1"/>
        <pt x="219" y="144" on="0"/>
        <pt x="248" y="113" on="0"/>
        <pt x="280" y="113" on="1"/>
        <pt x="287" y="113" on="0"/>
        <pt x="305" y="115" on="1"/>
        <pt x="350" y="336" on="1"/>
        <pt x="291" y="330" on="0"/>
        <pt x="235" y="272" on="0"/>
        <pt x="224" y="216" on="1"/>
      </contour>
    </TTGlyph>
    <TTGlyph name="atilde" xMin="26" yMin="-4" xMax="452" yMax="645">
      <component glyphName="a" x="0" y="0" flags="0x400"/>
      <component glyphName="tildecomb" x="0" y="0" flags="0x400"/>
    </TTGlyph>
    <TTGlyph name="b" xMin="19" yMin="-8" xMax="403" yMax="640">
      <contour>
        <pt x="34" y="63" on="1"/>
        <pt x="149" y="640" on="1"/>
        <pt x="197" y="640" on="1"/>
        <pt x="152" y="416" on="1"/>
        <pt x="211" y="456" on="0"/>
        <pt x="268" y="456" on="1"/>
        <pt x="327" y="456" on="0"/>
        <pt x="361" y="422" on="1"/>
        <pt x="403" y="380" on="0"/>
        <pt x="403" y="289" on="1"/>
        <pt x="403" y="222" on="0"/>
        <pt x="358" y="92" on="0"/>
        <pt x="315" y="49" on="1"/>
        <pt x="258" y="-8" on="0"/>
        <pt x="178" y="-8" on="1"/>
        <pt x="144" y="-8" on="0"/>
        <pt x="96" y="14" on="0"/>
        <pt x="75" y="36" on="1"/>
        <pt x="64" y="0" on="1"/>
        <pt x="19" y="0" on="1"/>
      </contour>
      <contour>
        <pt x="125" y="34" on="0"/>
        <pt x="177" y="34" on="1"/>
        <pt x="233" y="34" on="0"/>
        <pt x="274" y="75" on="1"/>
        <pt x="311" y="112" on="0"/>
        <pt x="349" y="230" on="0"/>
        <pt x="349" y="289" on="1"/>
        <pt x="349" y="363" on="0"/>
        <pt x="319" y="393" on="1"/>
        <pt x="298" y="414" on="0"/>
        <pt x="263" y="414" on="1"/>
        <pt x="204" y="414" on="0"/>
        <pt x="143" y="368" on="1"/>
        <pt x="84" y="75" on="1"/>
      </contour>
    </TTGlyph>
    <TTGlyph name="backslash" xMin="149" yMin="-67" xMax="337" yMax="708">
      <contour>
        <pt x="289" y="-67" on="1"/>
        <pt x="149" y="700" on="1"/>
        <pt x="197" y="708" on="1"/>
        <pt x="337" y="-59" on="1"/>
      </contour>
    </TTGlyph>
    <TTGlyph name="bar" xMin="145" yMin="-64" xMax="342" yMax="704">
      <contour>
        <pt x="145" y="-64" on="1"/>
        <pt x="298" y="704" on="1"/>
        <pt x="342" y="704" on="1"/>
        <pt x="189" y="-64" on="1"/>
      </contour>
    </TTGlyph>
    <TTGlyph name="beta" xMin="-17" yMin="-192" xMax="430" yMax="648">
      <contour>
        <pt x="133" y="560" on="0"/>
        <pt x="235" y="648" on="0"/>
        <pt x="304" y="648" on="1"/>
        <pt x="368" y="648" on="0"/>
        <pt x="430" y="580" on="0"/>
        <pt x="430" y="528" on="1"/>
        <pt x="430" y="506" on="0"/>
        <pt x="426" y="489" on="1"/>
        <pt x="416" y="441" on="0"/>
        <pt x="353" y="371" on="0"/>
        <pt x="304" y="355" on="1"/>
        <pt x="398" y="330" on="0"/>
        <pt x="398" y="230" on="1"/>
        <pt x="398" y="203" on="0"/>
        <pt x="392" y="174" on="1"/>
        <pt x="376" y="93" on="0"/>
        <pt x="273" y="-6" on="0"/>
        <pt x="190" y="-6" on="1"/>
        <pt x="121" y="-6" on="0"/>
        <pt x="77" y="38" on="1"/>
        <pt x="31" y="-192" on="1"/>
        <pt x="-17" y="-192" on="1"/>
        <pt x="117" y="479" on="1"/>
      </contour>
      <contour>
        <pt x="125" y="38" on="0"/>
        <pt x="194" y="38" on="1"/>
        <pt x="255" y="38" on="0"/>
        <pt x="327" y="107" on="0"/>
        <pt x="341" y="180" on="1"/>
        <pt x="347" y="209" on="0"/>
        <pt x="347" y="233" on="1"/>
        <pt x="347" y="282" on="0"/>
        <pt x="291" y="330" on="0"/>
        <pt x="228" y="330" on="1"/>
        <pt x="190" y="330" on="1"/>
        <pt x="199" y="374" on="1"/>
        <pt x="233" y="374" on="1"/>
        <pt x="294" y="374" on="0"/>
        <pt x="364" y="438" on="0"/>
        <pt x="375" y="493" on="1"/>
        <pt x="379" y="519" on="0"/>
        <pt x="379" y="528" on="1"/>
        <pt x="379" y="604" on="0"/>
        <pt x="297" y="604" on="1"/>
        <pt x="245" y="604" on="0"/>
        <pt x="177" y="538" on="0"/>
        <pt x="164" y="474" on="1"/>
        <pt x="86" y="82" on="1"/>
      </contour>
    </TTGlyph>
    <TTGlyph name="block" xMin="-5" yMin="-197" xMax="453" yMax="837">
      <contour>
        <pt x="-5" y="-197" on="1"/>
        <pt x="-5" y="837" on="1"/>
        <pt x="453" y="837" on="1"/>
        <pt x="453" y="-197" on="1"/>
      </contour>
    </TTGlyph>
    <TTGlyph name="braceleft" xMin="106" yMin="-64" xMax="410" yMax="704">
      <contour>
        <pt x="193" y="-56" on="0"/>
        <pt x="124" y="-9" on="0"/>
        <pt x="124" y="40" on="1"/>
        <pt x="124" y="58" on="0"/>
        <pt x="128" y="74" on="1"/>
        <pt x="131" y="89" on="0"/>
        <pt x="144" y="129" on="1"/>
        <pt x="159" y="169" on="0"/>
        <pt x="165" y="200" on="1"/>
        <pt x="168" y="217" on="0"/>
        <pt x="168" y="229" on="1"/>
        <pt x="168" y="257" on="0"/>
        <pt x="138" y="289" on="0"/>
        <pt x="106" y="295" on="1"/>
        <pt x="113" y="345" on="1"/>
        <pt x="197" y="360" on="0"/>
        <pt x="215" y="448" on="1"/>
        <pt x="219" y="471" on="0"/>
        <pt x="221" y="512" on="1"/>
        <pt x="223" y="552" on="0"/>
        <pt x="228" y="574" on="1"/>
        <pt x="241" y="639" on="0"/>
        <pt x="329" y="694" on="0"/>
        <pt x="407" y="704" on="1"/>
        <pt x="410" y="667" on="1"/>
        <pt x="341" y="655" on="0"/>
        <pt x="280" y="613" on="0"/>
        <pt x="271" y="570" on="1"/>
        <pt x="268" y="553" on="0"/>
        <pt x="266" y="520" on="1"/>
        <pt x="264" y="473" on="0"/>
        <pt x="258" y="444" on="1"/>
        <pt x="247" y="388" on="0"/>
        <pt x="196" y="334" on="0"/>
        <pt x="150" y="319" on="1"/>
        <pt x="181" y="307" on="0"/>
        <pt x="212" y="267" on="0"/>
        <pt x="212" y="232" on="1"/>
        <pt x="212" y="216" on="0"/>
        <pt x="207" y="188" on="1"/>
        <pt x="203" y="167" on="0"/>
        <pt x="187" y="119" on="1"/>
        <pt x="175" y="87" on="0"/>
        <pt x="170" y="62" on="1"/>
        <pt x="168" y="54" on="0"/>
        <pt x="168" y="41" on="1"/>
        <pt x="168" y="13" on="0"/>
        <pt x="213" y="-16" on="0"/>
        <pt x="268" y="-27" on="1"/>
        <pt x="257" y="-64" on="1"/>
      </contour>
    </TTGlyph>
    <TTGlyph name="braceright" xMin="76" yMin="-64" xMax="380" yMax="704">
      <contour>
        <pt x="145" y="-15" on="0"/>
        <pt x="206" y="27" on="0"/>
        <pt x="215" y="70" on="1"/>
        <pt x="218" y="87" on="0"/>
        <pt x="220" y="120" on="1"/>
        <pt x="222" y="167" on="0"/>
        <pt x="228" y="196" on="1"/>
        <pt x="239" y="252" on="0"/>
        <pt x="290" y="306" on="0"/>
        <pt x="336" y="321" on="1"/>
        <pt x="305" y="333" on="0"/>
        <pt x="274" y="373" on="0"/>
        <pt x="274" y="408" on="1"/>
        <pt x="274" y="424" on="0"/>
        <pt x="279" y="452" on="1"/>
        <pt x="283" y="473" on="0"/>
        <pt x="299" y="521" on="1"/>
        <pt x="311" y="553" on="0"/>
        <pt x="316" y="578" on="1"/>
        <pt x="318" y="586" on="0"/>
        <pt x="318" y="599" on="1"/>
        <pt x="318" y="627" on="0"/>
        <pt x="273" y="656" on="0"/>
        <pt x="218" y="667" on="1"/>
        <pt x="229" y="704" on="1"/>
        <pt x="293" y="696" on="0"/>
        <pt x="362" y="649" on="0"/>
        <pt x="362" y="600" on="1"/>
        <pt x="362" y="582" on="0"/>
        <pt x="358" y="566" on="1"/>
        <pt x="355" y="551" on="0"/>
        <pt x="342" y="511" on="1"/>
        <pt x="327" y="471" on="0"/>
        <pt x="321" y="440" on="1"/>
        <pt x="318" y="424" on="0"/>
        <pt x="318" y="411" on="1"/>
        <pt x="318" y="383" on="0"/>
        <pt x="348" y="351" on="0"/>
        <pt x="380" y="345" on="1"/>
        <pt x="373" y="295" on="1"/>
        <pt x="289" y="280" on="0"/>
        <pt x="271" y="192" on="1"/>
        <pt x="267" y="169" on="0"/>
        <pt x="265" y="128" on="1"/>
        <pt x="263" y="88" on="0"/>
        <pt x="258" y="66" on="1"/>
        <pt x="245" y="1" on="0"/>
        <pt x="157" y="-54" on="0"/>
        <pt x="79" y="-64" on="1"/>
        <pt x="76" y="-27" on="1"/>
      </contour>
    </TTGlyph>
    <TTGlyph name="bracketleft" xMin="98" yMin="-64" xMax="424" yMax="704">
      <contour>
        <pt x="291" y="660" on="1"/>
        <pt x="155" y="-20" on="1"/>
        <pt x="279" y="-20" on="1"/>
        <pt x="270" y="-64" on="1"/>
        <pt x="98" y="-64" on="1"/>
        <pt x="252" y="704" on="1"/>
        <pt x="424" y="704" on="1"/>
        <pt x="415" y="660" on="1"/>
      </contour>
    </TTGlyph>
    <TTGlyph name="bracketright" xMin="62" yMin="-64" xMax="388" yMax="704">
      <contour>
        <pt x="62" y="-64" on="1"/>
        <pt x="71" y="-20" on="1"/>
        <pt x="195" y="-20" on="1"/>
        <pt x="331" y="660" on="1"/>
        <pt x="207" y="660" on="1"/>
        <pt x="216" y="704" on="1"/>
        <pt x="388" y="704" on="1"/>
        <pt x="234" y="-64" on="1"/>
      </contour>
    </TTGlyph>
    <TTGlyph name="breve" xMin="183" yMin="506" xMax="427" yMax="638">
      <component glyphName="uni0306" x="0" y="0" flags="0x400"/>
    </TTGlyph>
    <TTGlyph name="brokenbar" xMin="119" yMin="-192" xMax="342" yMax="704">
      <contour>
        <pt x="221" y="320" on="1"/>
        <pt x="298" y="704" on="1"/>
        <pt x="342" y="704" on="1"/>
        <pt x="265" y="320" on="1"/>
      </contour>
      <contour>
        <pt x="196" y="192" on="1"/>
        <pt x="240" y="192" on="1"/>
        <pt x="163" y="-192" on="1"/>
        <pt x="119" y="-192" on="1"/>
      </contour>
    </TTGlyph>
    <TTGlyph name="bullet" xMin="133" yMin="132" xMax="315" yMax="316">
      <contour>
        <pt x="273" y="316" on="0"/>
        <pt x="315" y="274" on="0"/>
        <pt x="315" y="241" on="1"/>
        <pt x="315" y="212" on="0"/>
        <pt x="285" y="162" on="0"/>
        <pt x="236" y="132" on="0"/>
        <pt x="209" y="132" on="1"/>
        <pt x="175" y="132" on="0"/>
        <pt x="133" y="174" on="0"/>
        <pt x="133" y="207" on="1"/>
        <pt x="133" y="236" on="0"/>
        <pt x="163" y="286" on="0"/>
        <pt x="212" y="316" on="0"/>
        <pt x="239" y="316" on="1"/>
      </contour>
    </TTGlyph>
    <TTGlyph name="c" xMin="42" yMin="-7" xMax="390" yMax="455">
      <contour>
        <pt x="326" y="413" on="0"/>
        <pt x="274" y="413" on="1"/>
        <pt x="201" y="413" on="0"/>
        <pt x="120" y="318" on="0"/>
        <pt x="101" y="220" on="1"/>
        <pt x="92" y="177" on="0"/>
        <pt x="92" y="143" on="1"/>
        <pt x="92" y="89" on="0"/>
        <pt x="141" y="36" on="0"/>
        <pt x="193" y="36" on="1"/>
        <pt x="241" y="36" on="0"/>
        <pt x="304" y="54" on="1"/>
        <pt x="308" y="12" on="1"/>
        <pt x="243" y="-7" on="0"/>
        <pt x="185" y="-7" on="1"/>
        <pt x="111" y="-7" on="0"/>
        <pt x="42" y="74" on="0"/>
        <pt x="42" y="146" on="1"/>
        <pt x="42" y="185" on="0"/>
        <pt x="51" y="228" on="1"/>
        <pt x="72" y="332" on="0"/>
        <pt x="178" y="455" on="0"/>
        <pt x="272" y="455" on="1"/>
        <pt x="336" y="455" on="0"/>
        <pt x="390" y="436" on="1"/>
        <pt x="376" y="398" on="1"/>
      </contour>
    </TTGlyph>
    <TTGlyph name="cacute" xMin="42" yMin="-7" xMax="431" yMax="704">
      <component glyphName="c" x="0" y="0" flags="0x400"/>
      <component glyphName="acutecomb" x="16" y="0" flags="0x400"/>
    </TTGlyph>
    <TTGlyph name="caron" xMin="183" yMin="512" xMax="435" yMax="648">
      <component glyphName="uni030C" x="0" y="0" flags="0x400"/>
    </TTGlyph>
    <TTGlyph name="carriagereturn" xMin="-4" yMin="54" xMax="473" yMax="448">
      <contour>
        <pt x="192" y="98" on="1"/>
        <pt x="147" y="54" on="1"/>
        <pt x="-4" y="202" on="1"/>
        <pt x="3" y="246" on="1"/>
        <pt x="211" y="394" on="1"/>
        <pt x="242" y="350" on="1"/>
        <pt x="115" y="256" on="1"/>
        <pt x="366" y="256" on="1"/>
        <pt x="405" y="448" on="1"/>
        <pt x="473" y="448" on="1"/>
        <pt x="421" y="192" on="1"/>
        <pt x="101" y="192" on="1"/>
      </contour>
    </TTGlyph>
    <TTGlyph name="ccaron" xMin="42" yMin="-7" xMax="451" yMax="648">
      <component glyphName="c" x="0" y="0" flags="0x400"/>
      <component glyphName="uni030C" x="16" y="0" flags="0x400"/>
    </TTGlyph>
    <TTGlyph name="ccedilla" xMin="24" yMin="-192" xMax="390" yMax="455">
      <component glyphName="c" x="0" y="0" flags="0x400"/>
      <component glyphName="uni0327" x="-22" y="0" flags="0x400"/>
    </TTGlyph>
    <TTGlyph name="ccircumflex" xMin="42" yMin="-7" xMax="423" yMax="648">
      <component glyphName="c" x="0" y="0" flags="0x400"/>
      <component glyphName="uni0302" x="16" y="0" flags="0x400"/>
    </TTGlyph>
    <TTGlyph name="cdotaccent" xMin="42" yMin="-7" xMax="390" yMax="645">
      <component glyphName="c" x="0" y="0" flags="0x400"/>
      <component glyphName="uni0307" x="16" y="0" flags="0x400"/>
    </TTGlyph>
    <TTGlyph name="cedilla" xMin="46" yMin="-192" xMax="267" yMax="12">
      <component glyphName="uni0327" x="0" y="0" flags="0x400"/>
    </TTGlyph>
    <TTGlyph name="cent" xMin="53" yMin="-64" xMax="401" yMax="640">
      <contour>
        <pt x="337" y="477" on="0"/>
        <pt x="285" y="477" on="1"/>
        <pt x="212" y="477" on="0"/>
        <pt x="131" y="382" on="0"/>
        <pt x="112" y="284" on="1"/>
        <pt x="103" y="241" on="0"/>
        <pt x="103" y="207" on="1"/>
        <pt x="103" y="153" on="0"/>
        <pt x="152" y="100" on="0"/>
        <pt x="204" y="100" on="1"/>
        <pt x="252" y="100" on="0"/>
        <pt x="315" y="118" on="1"/>
        <pt x="319" y="76" on="1"/>
        <pt x="262" y="60" on="0"/>
        <pt x="214" y="57" on="1"/>
        <pt x="190" y="-64" on="1"/>
        <pt x="142" y="-64" on="1"/>
        <pt x="166" y="59" on="1"/>
        <pt x="53" y="74" on="0"/>
        <pt x="53" y="209" on="1"/>
        <pt x="53" y="249" on="0"/>
        <pt x="62" y="292" on="1"/>
        <pt x="81" y="388" on="0"/>
        <pt x="176" y="510" on="0"/>
        <pt x="258" y="518" on="1"/>
        <pt x="283" y="640" on="1"/>
        <pt x="331" y="640" on="1"/>
        <pt x="306" y="518" on="1"/>
        <pt x="360" y="515" on="0"/>
        <pt x="401" y="500" on="1"/>
        <pt x="387" y="462" on="1"/>
      </contour>
    </TTGlyph>
    <TTGlyph name="chi" xMin="-59" yMin="-192" xMax="445" yMax="448">
      <contour>
        <pt x="445" y="448" on="1"/>
        <pt x="248" y="154" on="1"/>
        <pt x="284" y="104" on="0"/>
        <pt x="316" y="-4" on="0"/>
        <pt x="316" y="-77" on="1"/>
        <pt x="316" y="-132" on="0"/>
        <pt x="309" y="-192" on="1"/>
        <pt x="238" y="-192" on="1"/>
        <pt x="246" y="-115" on="0"/>
        <pt x="246" y="-70" on="1"/>
        <pt x="246" y="-18" on="0"/>
        <pt x="227" y="59" on="0"/>
        <pt x="207" y="93" on="1"/>
        <pt x="16" y="-192" on="1"/>
        <pt x="-59" y="-192" on="1"/>
        <pt x="164" y="141" on="1"/>
        <pt x="123" y="213" on="0"/>
        <pt x="92" y="347" on="0"/>
        <pt x="94" y="448" on="1"/>
        <pt x="167" y="448" on="1"/>
        <pt x="165" y="363" on="0"/>
        <pt x="182" y="256" on="0"/>
        <pt x="207" y="205" on="1"/>
        <pt x="369" y="448" on="1"/>
      </contour>
    </TTGlyph>
    <TTGlyph name="circle" xMin="75" yMin="130" xMax="398" yMax="446">
      <contour>
        <pt x="148" y="130" on="0"/>
        <pt x="75" y="202" on="0"/>
        <pt x="75" y="259" on="1"/>
        <pt x="75" y="276" on="0"/>
        <pt x="78" y="292" on="1"/>
        <pt x="92" y="358" on="0"/>
        <pt x="198" y="446" on="0"/>
        <pt x="265" y="446" on="1"/>
        <pt x="325" y="446" on="0"/>
        <pt x="398" y="374" on="0"/>
        <pt x="398" y="317" on="1"/>
        <pt x="398" y="301" on="0"/>
        <pt x="395" y="284" on="1"/>
        <pt x="381" y="218" on="0"/>
        <pt x="275" y="130" on="0"/>
        <pt x="208" y="130" on="1"/>
      </contour>
      <contour>
        <pt x="122" y="222" on="0"/>
        <pt x="171" y="174" on="0"/>
        <pt x="210" y="174" on="1"/>
        <pt x="246" y="174" on="0"/>
        <pt x="311" y="213" on="0"/>
        <pt x="351" y="278" on="0"/>
        <pt x="351" y="316" on="1"/>
        <pt x="351" y="354" on="0"/>
        <pt x="302" y="402" on="0"/>
        <pt x="263" y="402" on="1"/>
        <pt x="227" y="402" on="0"/>
        <pt x="162" y="363" on="0"/>
        <pt x="122" y="298" on="0"/>
        <pt x="122" y="260" on="1"/>
      </contour>
    </TTGlyph>
    <TTGlyph name="circumflex" xMin="155" yMin="512" xMax="407" yMax="648">
      <component glyphName="uni0302" x="0" y="0" flags="0x400"/>
    </TTGlyph>
    <TTGlyph name="club" xMin="32" yMin="64" xMax="416" yMax="512">
      <contour>
        <pt x="416" y="384" on="1"/>
        <pt x="378" y="192" on="1"/>
        <pt x="314" y="192" on="1"/>
        <pt x="326" y="256" on="1"/>
        <pt x="262" y="256" on="1"/>
        <pt x="237" y="128" on="1"/>
        <pt x="365" y="128" on="1"/>
        <pt x="352" y="64" on="1"/>
        <pt x="32" y="64" on="1"/>
        <pt x="45" y="128" on="1"/>
        <pt x="173" y="128" on="1"/>
        <pt x="198" y="256" on="1"/>
        <pt x="134" y="256" on="1"/>
        <pt x="122" y="192" on="1"/>
        <pt x="58" y="192" on="1"/>
        <pt x="96" y="384" on="1"/>
        <pt x="160" y="384" on="1"/>
        <pt x="147" y="320" on="1"/>
        <pt x="211" y="320" on="1"/>
        <pt x="237" y="448" on="1"/>
        <pt x="173" y="448" on="1"/>
        <pt x="186" y="512" on="1"/>
        <pt x="378" y="512" on="1"/>
        <pt x="365" y="448" on="1"/>
        <pt x="301" y="448" on="1"/>
        <pt x="275" y="320" on="1"/>
        <pt x="339" y="320" on="1"/>
        <pt x="352" y="384" on="1"/>
      </contour>
    </TTGlyph>
    <TTGlyph name="colon" xMin="103" yMin="-10" xMax="281" yMax="458">
      <contour>
        <pt x="129" y="-10" on="0"/>
        <pt x="103" y="13" on="0"/>
        <pt x="103" y="33" on="1"/>
        <pt x="103" y="61" on="0"/>
        <pt x="138" y="94" on="0"/>
        <pt x="163" y="94" on="1"/>
        <pt x="182" y="94" on="0"/>
        <pt x="208" y="71" on="0"/>
        <pt x="208" y="51" on="1"/>
        <pt x="208" y="42" on="0"/>
        <pt x="207" y="38" on="1"/>
        <pt x="202" y="15" on="0"/>
        <pt x="170" y="-10" on="0"/>
        <pt x="149" y="-10" on="1"/>
      </contour>
      <contour>
        <pt x="176" y="425" on="0"/>
        <pt x="212" y="458" on="0"/>
        <pt x="235" y="458" on="1"/>
        <pt x="255" y="458" on="0"/>
        <pt x="281" y="435" on="0"/>
        <pt x="281" y="415" on="1"/>
        <pt x="281" y="406" on="0"/>
        <pt x="280" y="402" on="1"/>
        <pt x="275" y="379" on="0"/>
        <pt x="242" y="354" on="0"/>
        <pt x="221" y="354" on="1"/>
        <pt x="201" y="354" on="0"/>
        <pt x="176" y="377" on="0"/>
        <pt x="176" y="397" on="1"/>
      </contour>
    </TTGlyph>
    <TTGlyph name="colon.alt" xMin="180" yMin="54" xMax="358" yMax="522">
      <component glyphName="colon" x="77" y="64" flags="0x404"/>
    </TTGlyph>
    <TTGlyph name="colon.alt.ss20" xMin="52" yMin="54" xMax="230" yMax="522">
      <component glyphName="colon" x="-51" y="64" flags="0x404"/>
    </TTGlyph>
    <TTGlyph name="comma" xMin="75" yMin="-127" xMax="209" yMax="95">
      <contour>
        <pt x="104" y="-73" on="0"/>
        <pt x="142" y="-33" on="0"/>
        <pt x="152" y="-9" on="1"/>
        <pt x="128" y="-10" on="0"/>
        <pt x="103" y="14" on="0"/>
        <pt x="103" y="34" on="1"/>
        <pt x="103" y="60" on="0"/>
        <pt x="137" y="95" on="0"/>
        <pt x="160" y="95" on="1"/>
        <pt x="182" y="95" on="0"/>
        <pt x="209" y="67" on="0"/>
        <pt x="209" y="41" on="1"/>
        <pt x="209" y="30" on="0"/>
        <pt x="206" y="16" on="1"/>
        <pt x="198" y="-27" on="0"/>
        <pt x="147" y="-92" on="0"/>
        <pt x="98" y="-127" on="1"/>
        <pt x="75" y="-95" on="1"/>
      </contour>
    </TTGlyph>
    <TTGlyph name="copyright" xMin="13" yMin="15" xMax="447" yMax="497">
      <contour>
        <pt x="138" y="15" on="0"/>
        <pt x="60" y="57" on="0"/>
        <pt x="13" y="139" on="0"/>
        <pt x="13" y="197" on="1"/>
        <pt x="13" y="220" on="0"/>
        <pt x="20" y="260" on="1"/>
        <pt x="35" y="336" on="0"/>
        <pt x="115" y="444" on="0"/>
        <pt x="221" y="497" on="0"/>
        <pt x="275" y="497" on="1"/>
        <pt x="349" y="497" on="0"/>
        <pt x="447" y="403" on="0"/>
        <pt x="447" y="317" on="1"/>
        <pt x="447" y="284" on="0"/>
        <pt x="440" y="252" on="1"/>
        <pt x="425" y="176" on="0"/>
        <pt x="345" y="69" on="0"/>
        <pt x="239" y="15" on="0"/>
        <pt x="185" y="15" on="1"/>
      </contour>
      <contour>
        <pt x="54" y="219" on="0"/>
        <pt x="54" y="191" on="1"/>
        <pt x="54" y="124" on="0"/>
        <pt x="124" y="55" on="0"/>
        <pt x="187" y="55" on="1"/>
        <pt x="265" y="55" on="0"/>
        <pt x="380" y="161" on="0"/>
        <pt x="400" y="260" on="1"/>
        <pt x="406" y="293" on="0"/>
        <pt x="406" y="321" on="1"/>
        <pt x="406" y="388" on="0"/>
        <pt x="336" y="457" on="0"/>
        <pt x="274" y="457" on="1"/>
        <pt x="196" y="457" on="0"/>
        <pt x="80" y="351" on="0"/>
        <pt x="60" y="252" on="1"/>
      </contour>
      <contour>
        <pt x="136" y="329" on="0"/>
        <pt x="210" y="397" on="0"/>
        <pt x="266" y="397" on="1"/>
        <pt x="284" y="397" on="0"/>
        <pt x="323" y="389" on="0"/>
        <pt x="337" y="383" on="1"/>
        <pt x="324" y="352" on="1"/>
        <pt x="296" y="361" on="0"/>
        <pt x="268" y="361" on="1"/>
        <pt x="227" y="361" on="0"/>
        <pt x="176" y="309" on="0"/>
        <pt x="165" y="254" on="1"/>
        <pt x="160" y="229" on="0"/>
        <pt x="160" y="214" on="1"/>
        <pt x="160" y="184" on="0"/>
        <pt x="190" y="156" on="0"/>
        <pt x="221" y="156" on="1"/>
        <pt x="244" y="156" on="0"/>
        <pt x="284" y="167" on="1"/>
        <pt x="290" y="132" on="1"/>
        <pt x="254" y="120" on="0"/>
        <pt x="217" y="120" on="1"/>
        <pt x="169" y="120" on="0"/>
        <pt x="118" y="168" on="0"/>
        <pt x="118" y="216" on="1"/>
        <pt x="118" y="234" on="0"/>
        <pt x="123" y="262" on="1"/>
      </contour>
    </TTGlyph>
    <TTGlyph name="currency" xMin="23" yMin="62" xMax="450" yMax="514">
      <contour>
        <pt x="315" y="464" on="0"/>
        <pt x="351" y="442" on="1"/>
        <pt x="417" y="514" on="1"/>
        <pt x="450" y="486" on="1"/>
        <pt x="383" y="413" on="1"/>
        <pt x="414" y="374" on="0"/>
        <pt x="414" y="320" on="1"/>
        <pt x="414" y="308" on="0"/>
        <pt x="410" y="284" on="1"/>
        <pt x="403" y="248" on="0"/>
        <pt x="363" y="183" on="0"/>
        <pt x="333" y="159" on="1"/>
        <pt x="371" y="90" on="1"/>
        <pt x="329" y="62" on="1"/>
        <pt x="291" y="132" on="1"/>
        <pt x="249" y="112" on="0"/>
        <pt x="205" y="112" on="1"/>
        <pt x="159" y="112" on="0"/>
        <pt x="123" y="134" on="1"/>
        <pt x="57" y="62" on="1"/>
        <pt x="23" y="90" on="1"/>
        <pt x="91" y="163" on="1"/>
        <pt x="59" y="203" on="0"/>
        <pt x="59" y="256" on="1"/>
        <pt x="59" y="266" on="0"/>
        <pt x="63" y="292" on="1"/>
        <pt x="70" y="328" on="0"/>
        <pt x="110" y="393" on="0"/>
        <pt x="140" y="417" on="1"/>
        <pt x="102" y="486" on="1"/>
        <pt x="145" y="514" on="1"/>
        <pt x="182" y="444" on="1"/>
        <pt x="224" y="464" on="0"/>
        <pt x="268" y="464" on="1"/>
      </contour>
      <contour>
        <pt x="107" y="213" on="0"/>
        <pt x="161" y="156" on="0"/>
        <pt x="207" y="156" on="1"/>
        <pt x="247" y="156" on="0"/>
        <pt x="321" y="202" on="0"/>
        <pt x="366" y="277" on="0"/>
        <pt x="366" y="319" on="1"/>
        <pt x="366" y="363" on="0"/>
        <pt x="312" y="420" on="0"/>
        <pt x="266" y="420" on="1"/>
        <pt x="226" y="420" on="0"/>
        <pt x="152" y="374" on="0"/>
        <pt x="107" y="299" on="0"/>
        <pt x="107" y="257" on="1"/>
      </contour>
    </TTGlyph>
    <TTGlyph name="d" xMin="45" yMin="-8" xMax="465" yMax="640">
      <contour>
        <pt x="297" y="33" on="1"/>
        <pt x="267" y="13" on="0"/>
        <pt x="211" y="-8" on="0"/>
        <pt x="180" y="-8" on="1"/>
        <pt x="121" y="-8" on="0"/>
        <pt x="87" y="26" on="1"/>
        <pt x="45" y="68" on="0"/>
        <pt x="45" y="159" on="1"/>
        <pt x="45" y="226" on="0"/>
        <pt x="90" y="356" on="0"/>
        <pt x="133" y="399" on="1"/>
        <pt x="190" y="456" on="0"/>
        <pt x="270" y="456" on="1"/>
        <pt x="303" y="456" on="0"/>
        <pt x="351" y="435" on="0"/>
        <pt x="372" y="414" on="1"/>
        <pt x="417" y="640" on="1"/>
        <pt x="465" y="640" on="1"/>
        <pt x="350" y="63" on="1"/>
        <pt x="339" y="0" on="1"/>
        <pt x="294" y="0" on="1"/>
      </contour>
      <contour>
        <pt x="99" y="85" on="0"/>
        <pt x="129" y="55" on="1"/>
        <pt x="150" y="34" on="0"/>
        <pt x="185" y="34" on="1"/>
        <pt x="242" y="34" on="0"/>
        <pt x="305" y="79" on="1"/>
        <pt x="364" y="374" on="1"/>
        <pt x="322" y="414" on="0"/>
        <pt x="271" y="414" on="1"/>
        <pt x="215" y="414" on="0"/>
        <pt x="174" y="373" on="1"/>
        <pt x="137" y="336" on="0"/>
        <pt x="99" y="218" on="0"/>
        <pt x="99" y="159" on="1"/>
      </contour>
    </TTGlyph>
    <TTGlyph name="dagger" xMin="107" yMin="0" xMax="423" yMax="640">
      <contour>
        <pt x="291" y="448" on="1"/>
        <pt x="423" y="448" on="1"/>
        <pt x="415" y="408" on="1"/>
        <pt x="283" y="408" on="1"/>
        <pt x="201" y="0" on="1"/>
        <pt x="157" y="0" on="1"/>
        <pt x="239" y="408" on="1"/>
        <pt x="107" y="408" on="1"/>
        <pt x="115" y="448" on="1"/>
        <pt x="247" y="448" on="1"/>
        <pt x="285" y="640" on="1"/>
        <pt x="329" y="640" on="1"/>
      </contour>
    </TTGlyph>
    <TTGlyph name="daggerdbl" xMin="63" yMin="0" xMax="423" yMax="640">
      <contour>
        <pt x="291" y="448" on="1"/>
        <pt x="423" y="448" on="1"/>
        <pt x="414" y="404" on="1"/>
        <pt x="282" y="404" on="1"/>
        <pt x="248" y="236" on="1"/>
        <pt x="380" y="236" on="1"/>
        <pt x="371" y="192" on="1"/>
        <pt x="239" y="192" on="1"/>
        <pt x="201" y="0" on="1"/>
        <pt x="157" y="0" on="1"/>
        <pt x="195" y="192" on="1"/>
        <pt x="63" y="192" on="1"/>
        <pt x="72" y="236" on="1"/>
        <pt x="204" y="236" on="1"/>
        <pt x="238" y="404" on="1"/>
        <pt x="106" y="404" on="1"/>
        <pt x="115" y="448" on="1"/>
        <pt x="247" y="448" on="1"/>
        <pt x="285" y="640" on="1"/>
        <pt x="329" y="640" on="1"/>
      </contour>
    </TTGlyph>
    <TTGlyph name="dcaron" xMin="-3" yMin="-8" xMax="551" yMax="640">
      <component glyphName="d" x="-48" y="0" flags="0x400"/>
      <component glyphName="uni030C.alt" x="44" y="0" flags="0x400"/>
    </TTGlyph>
    <TTGlyph name="dcroat" xMin="45" yMin="-8" xMax="500" yMax="640">
      <component glyphName="d" x="0" y="0" flags="0x400"/>
      <component glyphName="uni0335" x="148" y="310" flags="0x404"/>
    </TTGlyph>
    <TTGlyph name="degree" xMin="115" yMin="377" xMax="384" yMax="647">
      <contour>
        <pt x="323" y="647" on="0"/>
        <pt x="384" y="583" on="0"/>
        <pt x="384" y="535" on="1"/>
        <pt x="384" y="496" on="0"/>
        <pt x="340" y="423" on="0"/>
        <pt x="267" y="377" on="0"/>
        <pt x="226" y="377" on="1"/>
        <pt x="176" y="377" on="0"/>
        <pt x="115" y="441" on="0"/>
        <pt x="115" y="489" on="1"/>
        <pt x="115" y="528" on="0"/>
        <pt x="159" y="601" on="0"/>
        <pt x="232" y="647" on="0"/>
        <pt x="273" y="647" on="1"/>
      </contour>
      <contour>
        <pt x="162" y="457" on="0"/>
        <pt x="196" y="421" on="0"/>
        <pt x="228" y="421" on="1"/>
        <pt x="259" y="421" on="0"/>
        <pt x="309" y="455" on="0"/>
        <pt x="336" y="509" on="0"/>
        <pt x="336" y="538" on="1"/>
        <pt x="336" y="567" on="0"/>
        <pt x="303" y="603" on="0"/>
        <pt x="271" y="603" on="1"/>
        <pt x="239" y="603" on="0"/>
        <pt x="189" y="569" on="0"/>
        <pt x="162" y="515" on="0"/>
        <pt x="162" y="485" on="1"/>
      </contour>
    </TTGlyph>
    <TTGlyph name="delta" xMin="41" yMin="-13" xMax="457" yMax="642">
      <contour>
        <pt x="114" y="-13" on="0"/>
        <pt x="41" y="66" on="0"/>
        <pt x="41" y="131" on="1"/>
        <pt x="41" y="151" on="0"/>
        <pt x="46" y="179" on="1"/>
        <pt x="60" y="251" on="0"/>
        <pt x="154" y="359" on="0"/>
        <pt x="235" y="400" on="1"/>
        <pt x="211" y="423" on="0"/>
        <pt x="186" y="467" on="0"/>
        <pt x="186" y="496" on="1"/>
        <pt x="186" y="510" on="0"/>
        <pt x="189" y="525" on="1"/>
        <pt x="200" y="580" on="0"/>
        <pt x="292" y="642" on="0"/>
        <pt x="362" y="642" on="1"/>
        <pt x="410" y="642" on="0"/>
        <pt x="457" y="635" on="1"/>
        <pt x="449" y="593" on="1"/>
        <pt x="402" y="598" on="0"/>
        <pt x="362" y="598" on="1"/>
        <pt x="311" y="598" on="0"/>
        <pt x="246" y="556" on="0"/>
        <pt x="238" y="520" on="1"/>
        <pt x="237" y="514" on="0"/>
        <pt x="237" y="504" on="1"/>
        <pt x="237" y="474" on="0"/>
        <pt x="258" y="448" on="1"/>
        <pt x="272" y="430" on="0"/>
        <pt x="302" y="404" on="1"/>
        <pt x="339" y="370" on="0"/>
        <pt x="351" y="354" on="1"/>
        <pt x="391" y="301" on="0"/>
        <pt x="391" y="238" on="1"/>
        <pt x="391" y="218" on="0"/>
        <pt x="386" y="190" on="1"/>
        <pt x="368" y="99" on="0"/>
        <pt x="252" y="-13" on="0"/>
        <pt x="175" y="-13" on="1"/>
      </contour>
      <contour>
        <pt x="92" y="149" on="0"/>
        <pt x="92" y="131" on="1"/>
        <pt x="92" y="85" on="0"/>
        <pt x="139" y="31" on="0"/>
        <pt x="181" y="31" on="1"/>
        <pt x="241" y="31" on="0"/>
        <pt x="320" y="115" on="0"/>
        <pt x="336" y="194" on="1"/>
        <pt x="341" y="221" on="0"/>
        <pt x="341" y="238" on="1"/>
        <pt x="341" y="283" on="0"/>
        <pt x="301" y="343" on="0"/>
        <pt x="264" y="375" on="1"/>
        <pt x="185" y="333" on="0"/>
        <pt x="109" y="238" on="0"/>
        <pt x="97" y="174" on="1"/>
      </contour>
    </TTGlyph>
    <TTGlyph name="diamond" xMin="70" yMin="80" xMax="395" yMax="456">
      <contour>
        <pt x="248" y="456" on="1"/>
        <pt x="292" y="456" on="1"/>
        <pt x="395" y="284" on="1"/>
        <pt x="390" y="252" on="1"/>
        <pt x="218" y="80" on="1"/>
        <pt x="174" y="80" on="1"/>
        <pt x="70" y="252" on="1"/>
        <pt x="75" y="284" on="1"/>
      </contour>
    </TTGlyph>
    <TTGlyph name="dieresis" xMin="158" yMin="547" xMax="438" yMax="642">
      <component glyphName="uni0308" x="0" y="0" flags="0x400"/>
    </TTGlyph>
    <TTGlyph name="dieresistonos" xMin="127" yMin="512" xMax="472" yMax="704">
      <contour>
        <pt x="356" y="704" on="1"/>
        <pt x="290" y="512" on="1"/>
        <pt x="249" y="512" on="1"/>
        <pt x="302" y="704" on="1"/>
      </contour>
      <contour>
        <pt x="127" y="611" on="0"/>
        <pt x="162" y="642" on="0"/>
        <pt x="186" y="642" on="1"/>
        <pt x="206" y="642" on="0"/>
        <pt x="232" y="614" on="0"/>
        <pt x="228" y="593" on="1"/>
        <pt x="223" y="571" on="0"/>
        <pt x="191" y="547" on="0"/>
        <pt x="170" y="547" on="1"/>
        <pt x="151" y="547" on="0"/>
        <pt x="127" y="569" on="0"/>
        <pt x="127" y="587" on="1"/>
      </contour>
      <contour>
        <pt x="367" y="611" on="0"/>
        <pt x="402" y="642" on="0"/>
        <pt x="426" y="642" on="1"/>
        <pt x="446" y="642" on="0"/>
        <pt x="472" y="614" on="0"/>
        <pt x="468" y="593" on="1"/>
        <pt x="463" y="571" on="0"/>
        <pt x="431" y="547" on="0"/>
        <pt x="410" y="547" on="1"/>
        <pt x="391" y="547" on="0"/>
        <pt x="367" y="569" on="0"/>
        <pt x="367" y="587" on="1"/>
      </contour>
    </TTGlyph>
    <TTGlyph name="divide" xMin="33" yMin="74" xMax="441" yMax="502">
      <contour>
        <pt x="41" y="308" on="1"/>
        <pt x="441" y="308" on="1"/>
        <pt x="433" y="268" on="1"/>
        <pt x="33" y="268" on="1"/>
      </contour>
      <contour>
        <pt x="152" y="145" on="0"/>
        <pt x="188" y="178" on="0"/>
        <pt x="211" y="178" on="1"/>
        <pt x="231" y="178" on="0"/>
        <pt x="256" y="155" on="0"/>
        <pt x="256" y="135" on="1"/>
        <pt x="256" y="106" on="0"/>
        <pt x="221" y="74" on="0"/>
        <pt x="197" y="74" on="1"/>
        <pt x="177" y="74" on="0"/>
        <pt x="152" y="97" on="0"/>
        <pt x="152" y="117" on="1"/>
      </contour>
      <contour>
        <pt x="217" y="469" on="0"/>
        <pt x="253" y="502" on="0"/>
        <pt x="276" y="502" on="1"/>
        <pt x="296" y="502" on="0"/>
        <pt x="321" y="479" on="0"/>
        <pt x="321" y="459" on="1"/>
        <pt x="321" y="430" on="0"/>
        <pt x="286" y="398" on="0"/>
        <pt x="262" y="398" on="1"/>
        <pt x="242" y="398" on="0"/>
        <pt x="217" y="421" on="0"/>
        <pt x="217" y="441" on="1"/>
      </contour>
    </TTGlyph>
    <TTGlyph name="dkshade" xMin="-70" yMin="-192" xMax="506" yMax="832">
      <contour>
        <pt x="32" y="64" on="1"/>
        <pt x="45" y="128" on="1"/>
        <pt x="-19" y="128" on="1"/>
        <pt x="-6" y="192" on="1"/>
        <pt x="6" y="256" on="1"/>
        <pt x="19" y="320" on="1"/>
        <pt x="83" y="320" on="1"/>
        <pt x="96" y="384" on="1"/>
        <pt x="32" y="384" on="1"/>
        <pt x="58" y="512" on="1"/>
        <pt x="70" y="576" on="1"/>
        <pt x="134" y="576" on="1"/>
        <pt x="147" y="640" on="1"/>
        <pt x="83" y="640" on="1"/>
        <pt x="122" y="832" on="1"/>
        <pt x="506" y="832" on="1"/>
        <pt x="493" y="768" on="1"/>
        <pt x="429" y="768" on="1"/>
        <pt x="416" y="704" on="1"/>
        <pt x="480" y="704" on="1"/>
        <pt x="454" y="576" on="1"/>
        <pt x="442" y="512" on="1"/>
        <pt x="378" y="512" on="1"/>
        <pt x="365" y="448" on="1"/>
        <pt x="429" y="448" on="1"/>
        <pt x="390" y="256" on="1"/>
        <pt x="326" y="256" on="1"/>
        <pt x="314" y="192" on="1"/>
        <pt x="378" y="192" on="1"/>
        <pt x="339" y="0" on="1"/>
        <pt x="275" y="0" on="1"/>
        <pt x="262" y="-64" on="1"/>
        <pt x="326" y="-64" on="1"/>
        <pt x="314" y="-128" on="1"/>
        <pt x="301" y="-192" on="1"/>
        <pt x="237" y="-192" on="1"/>
        <pt x="250" y="-128" on="1"/>
        <pt x="186" y="-128" on="1"/>
        <pt x="173" y="-192" on="1"/>
        <pt x="109" y="-192" on="1"/>
        <pt x="122" y="-128" on="1"/>
        <pt x="58" y="-128" on="1"/>
        <pt x="45" y="-192" on="1"/>
        <pt x="-19" y="-192" on="1"/>
        <pt x="-6" y="-128" on="1"/>
        <pt x="-70" y="-128" on="1"/>
        <pt x="-58" y="-64" on="1"/>
        <pt x="-32" y="64" on="1"/>
      </contour>
      <contour>
        <pt x="70" y="-64" on="1"/>
        <pt x="83" y="0" on="1"/>
        <pt x="19" y="0" on="1"/>
        <pt x="6" y="-64" on="1"/>
      </contour>
      <contour>
        <pt x="122" y="192" on="1"/>
        <pt x="134" y="256" on="1"/>
        <pt x="70" y="256" on="1"/>
        <pt x="58" y="192" on="1"/>
      </contour>
      <contour>
        <pt x="160" y="64" on="1"/>
        <pt x="173" y="128" on="1"/>
        <pt x="109" y="128" on="1"/>
        <pt x="96" y="64" on="1"/>
      </contour>
      <contour>
        <pt x="173" y="448" on="1"/>
        <pt x="186" y="512" on="1"/>
        <pt x="122" y="512" on="1"/>
        <pt x="109" y="448" on="1"/>
      </contour>
      <contour>
        <pt x="198" y="-64" on="1"/>
        <pt x="211" y="0" on="1"/>
        <pt x="147" y="0" on="1"/>
        <pt x="134" y="-64" on="1"/>
      </contour>
      <contour>
        <pt x="211" y="320" on="1"/>
        <pt x="224" y="384" on="1"/>
        <pt x="160" y="384" on="1"/>
        <pt x="147" y="320" on="1"/>
      </contour>
      <contour>
        <pt x="224" y="704" on="1"/>
        <pt x="237" y="768" on="1"/>
        <pt x="173" y="768" on="1"/>
        <pt x="160" y="704" on="1"/>
      </contour>
      <contour>
        <pt x="250" y="192" on="1"/>
        <pt x="262" y="256" on="1"/>
        <pt x="198" y="256" on="1"/>
        <pt x="186" y="192" on="1"/>
      </contour>
      <contour>
        <pt x="262" y="576" on="1"/>
        <pt x="275" y="640" on="1"/>
        <pt x="211" y="640" on="1"/>
        <pt x="198" y="576" on="1"/>
      </contour>
      <contour>
        <pt x="288" y="64" on="1"/>
        <pt x="301" y="128" on="1"/>
        <pt x="237" y="128" on="1"/>
        <pt x="224" y="64" on="1"/>
      </contour>
      <contour>
        <pt x="301" y="448" on="1"/>
        <pt x="314" y="512" on="1"/>
        <pt x="250" y="512" on="1"/>
        <pt x="237" y="448" on="1"/>
      </contour>
      <contour>
        <pt x="339" y="320" on="1"/>
        <pt x="352" y="384" on="1"/>
        <pt x="288" y="384" on="1"/>
        <pt x="275" y="320" on="1"/>
      </contour>
      <contour>
        <pt x="352" y="704" on="1"/>
        <pt x="365" y="768" on="1"/>
        <pt x="301" y="768" on="1"/>
        <pt x="288" y="704" on="1"/>
      </contour>
      <contour>
        <pt x="390" y="576" on="1"/>
        <pt x="403" y="640" on="1"/>
        <pt x="339" y="640" on="1"/>
        <pt x="326" y="576" on="1"/>
      </contour>
    </TTGlyph>
    <TTGlyph name="dnblock" xMin="-5" yMin="-197" xMax="453" yMax="325">
      <contour>
        <pt x="-5" y="-197" on="1"/>
        <pt x="-5" y="325" on="1"/>
        <pt x="453" y="325" on="1"/>
        <pt x="453" y="-197" on="1"/>
      </contour>
    </TTGlyph>
    <TTGlyph name="dollar" xMin="20" yMin="-128" xMax="434" yMax="704">
      <contour>
        <pt x="35" y="58" on="1"/>
        <pt x="95" y="36" on="0"/>
        <pt x="161" y="36" on="1"/>
        <pt x="239" y="36" on="0"/>
        <pt x="317" y="95" on="0"/>
        <pt x="317" y="142" on="1"/>
        <pt x="317" y="177" on="0"/>
        <pt x="271" y="221" on="0"/>
        <pt x="223" y="247" on="1"/>
        <pt x="184" y="269" on="0"/>
        <pt x="136" y="303" on="0"/>
        <pt x="103" y="359" on="0"/>
        <pt x="103" y="399" on="1"/>
        <pt x="103" y="472" on="0"/>
        <pt x="188" y="568" on="0"/>
        <pt x="271" y="580" on="1"/>
        <pt x="296" y="704" on="1"/>
        <pt x="344" y="704" on="1"/>
        <pt x="320" y="584" on="1"/>
        <pt x="323" y="584" on="1"/>
        <pt x="384" y="584" on="0"/>
        <pt x="434" y="566" on="1"/>
        <pt x="422" y="528" on="1"/>
        <pt x="372" y="540" on="0"/>
        <pt x="323" y="540" on="1"/>
        <pt x="237" y="540" on="0"/>
        <pt x="151" y="468" on="0"/>
        <pt x="151" y="401" on="1"/>
        <pt x="151" y="372" on="0"/>
        <pt x="178" y="329" on="0"/>
        <pt x="219" y="302" on="0"/>
        <pt x="253" y="283" on="1"/>
        <pt x="290" y="263" on="0"/>
        <pt x="334" y="231" on="0"/>
        <pt x="365" y="181" on="0"/>
        <pt x="365" y="146" on="1"/>
        <pt x="365" y="84" on="0"/>
        <pt x="282" y="3" on="0"/>
        <pt x="202" y="-6" on="1"/>
        <pt x="178" y="-128" on="1"/>
        <pt x="130" y="-128" on="1"/>
        <pt x="153" y="-8" on="1"/>
        <pt x="80" y="-6" on="0"/>
        <pt x="20" y="22" on="1"/>
      </contour>
    </TTGlyph>
    <TTGlyph name="dotaccent" xMin="244" yMin="539" xMax="352" yMax="645">
      <component glyphName="uni0307" x="0" y="0" flags="0x400"/>
    </TTGlyph>
    <TTGlyph name="dotbelowcomb" xMin="102" yMin="-171" xMax="210" yMax="-65">
      <component glyphName="uni0307" x="-142" y="-710" flags="0x404"/>
    </TTGlyph>
    <TTGlyph name="dotlessi" xMin="119" yMin="0" xMax="299" yMax="448">
      <contour>
        <pt x="242" y="402" on="1"/>
        <pt x="119" y="410" on="1"/>
        <pt x="127" y="448" on="1"/>
        <pt x="299" y="448" on="1"/>
        <pt x="209" y="0" on="1"/>
        <pt x="161" y="0" on="1"/>
      </contour>
    </TTGlyph>
    <TTGlyph name="dotlessi.cv02" xMin="155" yMin="0" xMax="293" yMax="448">
      <contour>
        <pt x="245" y="448" on="1"/>
        <pt x="293" y="448" on="1"/>
        <pt x="203" y="0" on="1"/>
        <pt x="155" y="0" on="1"/>
      </contour>
    </TTGlyph>
    <TTGlyph name="dotmath" xMin="135" yMin="236" xMax="240" yMax="340">
      <component glyphName="period" x="32" y="246" flags="0x404"/>
    </TTGlyph>
    <TTGlyph name="e" xMin="47" yMin="-13" xMax="401" yMax="461">
      <contour>
        <pt x="78" y="334" on="0"/>
        <pt x="182" y="461" on="0"/>
        <pt x="268" y="461" on="1"/>
        <pt x="332" y="461" on="0"/>
        <pt x="401" y="385" on="0"/>
        <pt x="401" y="314" on="1"/>
        <pt x="401" y="272" on="0"/>
        <pt x="387" y="213" on="1"/>
        <pt x="106" y="213" on="1"/>
        <pt x="98" y="168" on="0"/>
        <pt x="98" y="138" on="1"/>
        <pt x="98" y="84" on="0"/>
        <pt x="150" y="29" on="0"/>
        <pt x="209" y="29" on="1"/>
        <pt x="257" y="29" on="0"/>
        <pt x="326" y="48" on="1"/>
        <pt x="331" y="9" on="1"/>
        <pt x="269" y="-13" on="0"/>
        <pt x="198" y="-13" on="1"/>
        <pt x="119" y="-13" on="0"/>
        <pt x="47" y="69" on="0"/>
        <pt x="47" y="141" on="1"/>
        <pt x="47" y="178" on="0"/>
        <pt x="57" y="228" on="1"/>
      </contour>
      <contour>
        <pt x="345" y="257" on="1"/>
        <pt x="352" y="297" on="0"/>
        <pt x="352" y="318" on="1"/>
        <pt x="352" y="417" on="0"/>
        <pt x="266" y="417" on="1"/>
        <pt x="209" y="417" on="0"/>
        <pt x="137" y="339" on="0"/>
        <pt x="115" y="257" on="1"/>
      </contour>
    </TTGlyph>
    <TTGlyph name="eacute" xMin="47" yMin="-13" xMax="415" yMax="704">
      <component glyphName="e" x="0" y="0" flags="0x400"/>
      <component glyphName="acutecomb" x="0" y="0" flags="0x400"/>
    </TTGlyph>
    <TTGlyph name="ebreve" xMin="47" yMin="-13" xMax="427" yMax="638">
      <component glyphName="e" x="0" y="0" flags="0x400"/>
      <component glyphName="uni0306" x="0" y="0" flags="0x400"/>
    </TTGlyph>
    <TTGlyph name="ecaron" xMin="47" yMin="-13" xMax="435" yMax="648">
      <component glyphName="e" x="0" y="0" flags="0x400"/>
      <component glyphName="uni030C" x="0" y="0" flags="0x400"/>
    </TTGlyph>
    <TTGlyph name="ecircumflex" xMin="47" yMin="-13" xMax="407" yMax="648">
      <component glyphName="e" x="0" y="0" flags="0x400"/>
      <component glyphName="uni0302" x="0" y="0" flags="0x400"/>
    </TTGlyph>
    <TTGlyph name="edieresis" xMin="47" yMin="-13" xMax="438" yMax="642">
      <component glyphName="e" x="0" y="0" flags="0x400"/>
      <component glyphName="uni0308" x="0" y="0" flags="0x400"/>
    </TTGlyph>
    <TTGlyph name="edotaccent" xMin="47" yMin="-13" xMax="401" yMax="645">
      <component glyphName="e" x="0" y="0" flags="0x400"/>
      <component glyphName="uni0307" x="0" y="0" flags="0x400"/>
    </TTGlyph>
    <TTGlyph name="egrave" xMin="47" yMin="-13" xMax="401" yMax="704">
      <component glyphName="e" x="0" y="0" flags="0x400"/>
      <component glyphName="gravecomb" x="0" y="0" flags="0x400"/>
    </TTGlyph>
    <TTGlyph name="eight" xMin="20" yMin="-11" xMax="429" yMax="586">
      <contour>
        <pt x="101" y="-11" on="0"/>
        <pt x="20" y="58" on="0"/>
        <pt x="20" y="114" on="1"/>
        <pt x="20" y="131" on="0"/>
        <pt x="23" y="147" on="1"/>
        <pt x="42" y="243" on="0"/>
        <pt x="161" y="306" on="1"/>
        <pt x="131" y="331" on="0"/>
        <pt x="104" y="382" on="0"/>
        <pt x="104" y="410" on="1"/>
        <pt x="104" y="425" on="0"/>
        <pt x="107" y="440" on="1"/>
        <pt x="120" y="503" on="0"/>
        <pt x="227" y="586" on="0"/>
        <pt x="296" y="586" on="1"/>
        <pt x="356" y="586" on="0"/>
        <pt x="429" y="521" on="0"/>
        <pt x="429" y="466" on="1"/>
        <pt x="429" y="455" on="0"/>
        <pt x="425" y="431" on="1"/>
        <pt x="417" y="389" on="0"/>
        <pt x="357" y="309" on="0"/>
        <pt x="303" y="277" on="1"/>
        <pt x="349" y="250" on="0"/>
        <pt x="394" y="197" on="0"/>
        <pt x="394" y="160" on="1"/>
        <pt x="394" y="117" on="0"/>
        <pt x="339" y="38" on="0"/>
        <pt x="240" y="-11" on="0"/>
        <pt x="177" y="-11" on="1"/>
      </contour>
      <contour>
        <pt x="70" y="136" on="0"/>
        <pt x="70" y="122" on="1"/>
        <pt x="70" y="81" on="0"/>
        <pt x="128" y="33" on="0"/>
        <pt x="186" y="33" on="1"/>
        <pt x="238" y="33" on="0"/>
        <pt x="309" y="69" on="0"/>
        <pt x="343" y="124" on="0"/>
        <pt x="343" y="152" on="1"/>
        <pt x="343" y="178" on="0"/>
        <pt x="292" y="226" on="0"/>
        <pt x="224" y="264" on="1"/>
        <pt x="200" y="278" on="0"/>
        <pt x="190" y="285" on="1"/>
        <pt x="133" y="257" on="0"/>
        <pt x="81" y="189" on="0"/>
        <pt x="73" y="149" on="1"/>
      </contour>
      <contour>
        <pt x="155" y="385" on="0"/>
        <pt x="206" y="328" on="0"/>
        <pt x="274" y="293" on="1"/>
        <pt x="360" y="355" on="0"/>
        <pt x="376" y="436" on="1"/>
        <pt x="379" y="448" on="0"/>
        <pt x="379" y="460" on="1"/>
        <pt x="379" y="496" on="0"/>
        <pt x="332" y="542" on="0"/>
        <pt x="286" y="542" on="1"/>
        <pt x="241" y="542" on="0"/>
        <pt x="182" y="503" on="0"/>
        <pt x="155" y="445" on="0"/>
        <pt x="155" y="415" on="1"/>
      </contour>
    </TTGlyph>
    <TTGlyph name="eight.dnom" xMin="112" yMin="-198" xMax="352" yMax="134">
      <component glyphName="uni2078" x="26" y="-512" flags="0x404"/>
    </TTGlyph>
    <TTGlyph name="eight.numr" xMin="86" yMin="314" xMax="326" yMax="646">
      <component glyphName="uni2078" x="0" y="0" flags="0x400"/>
    </TTGlyph>
    <TTGlyph name="eight.osf" xMin="20" yMin="-11" xMax="429" yMax="586">
      <component glyphName="eight" x="0" y="0" flags="0x400"/>
    </TTGlyph>
    <TTGlyph name="eight_fraction_nine" xMin="41" yMin="-199" xMax="407" yMax="646">
      <component glyphName="eight.numr" x="0" y="0" flags="0x400"/>
      <component glyphName="fraction.alt" x="0" y="0" flags="0x400"/>
      <component glyphName="nine.dnom" x="0" y="0" flags="0x400"/>
    </TTGlyph>
    <TTGlyph name="ellipsis" xMin="-14" yMin="-10" xMax="389" yMax="94">
      <component glyphName="period" x="-117" y="0" flags="0x400"/>
      <component glyphName="period" x="32" y="0" flags="0x400"/>
      <component glyphName="period" x="181" y="0" flags="0x400"/>
    </TTGlyph>
    <TTGlyph name="emacron" xMin="47" yMin="-13" xMax="417" yMax="620">
      <component glyphName="e" x="0" y="0" flags="0x400"/>
      <component glyphName="uni0304" x="0" y="0" flags="0x400"/>
    </TTGlyph>
    <TTGlyph name="emdash" xMin="-2" yMin="266" xMax="475" yMax="310">
      <contour>
        <pt x="-2" y="266" on="1"/>
        <pt x="7" y="310" on="1"/>
        <pt x="475" y="310" on="1"/>
        <pt x="466" y="266" on="1"/>
      </contour>
    </TTGlyph>
    <TTGlyph name="emoji.eyes" xMin="94" yMin="378" xMax="444" yMax="518">
      <contour>
        <pt x="114" y="378" on="0"/>
        <pt x="94" y="409" on="0"/>
        <pt x="94" y="433" on="1"/>
        <pt x="94" y="465" on="0"/>
        <pt x="128" y="518" on="0"/>
        <pt x="150" y="518" on="1"/>
        <pt x="167" y="518" on="0"/>
        <pt x="188" y="487" on="0"/>
        <pt x="188" y="463" on="1"/>
        <pt x="188" y="430" on="0"/>
        <pt x="153" y="378" on="0"/>
        <pt x="132" y="378" on="1"/>
      </contour>
      <contour>
        <pt x="350" y="465" on="0"/>
        <pt x="384" y="518" on="0"/>
        <pt x="406" y="518" on="1"/>
        <pt x="423" y="518" on="0"/>
        <pt x="444" y="487" on="0"/>
        <pt x="444" y="463" on="1"/>
        <pt x="444" y="430" on="0"/>
        <pt x="409" y="378" on="0"/>
        <pt x="388" y="378" on="1"/>
        <pt x="370" y="378" on="0"/>
        <pt x="350" y="409" on="0"/>
        <pt x="350" y="433" on="1"/>
      </contour>
    </TTGlyph>
    <TTGlyph name="emoji.eyes.angry" xMin="50" yMin="378" xMax="506" yMax="508">
      <contour>
        <pt x="58" y="508" on="1"/>
        <pt x="242" y="468" on="1"/>
        <pt x="233" y="425" on="1"/>
        <pt x="185" y="437" on="1"/>
        <pt x="178" y="412" on="0"/>
        <pt x="147" y="378" on="0"/>
        <pt x="131" y="378" on="1"/>
        <pt x="114" y="378" on="0"/>
        <pt x="94" y="408" on="0"/>
        <pt x="94" y="430" on="1"/>
        <pt x="94" y="436" on="0"/>
        <pt x="96" y="450" on="1"/>
        <pt x="144" y="448" on="1"/>
        <pt x="50" y="472" on="1"/>
      </contour>
      <contour>
        <pt x="306" y="468" on="1"/>
        <pt x="506" y="508" on="1"/>
        <pt x="498" y="472" on="1"/>
        <pt x="396" y="448" on="1"/>
        <pt x="443" y="446" on="1"/>
        <pt x="438" y="418" on="0"/>
        <pt x="405" y="378" on="0"/>
        <pt x="387" y="378" on="1"/>
        <pt x="369" y="378" on="0"/>
        <pt x="348" y="412" on="0"/>
        <pt x="350" y="437" on="1"/>
        <pt x="297" y="425" on="1"/>
      </contour>
    </TTGlyph>
    <TTGlyph name="emoji.eyes.smiling" xMin="43" yMin="384" xMax="469" yMax="512">
      <contour>
        <pt x="133" y="512" on="1"/>
        <pt x="175" y="512" on="1"/>
        <pt x="213" y="384" on="1"/>
        <pt x="177" y="384" on="1"/>
        <pt x="152" y="470" on="1"/>
        <pt x="142" y="470" on="1"/>
        <pt x="81" y="384" on="1"/>
        <pt x="43" y="384" on="1"/>
      </contour>
      <contour>
        <pt x="389" y="512" on="1"/>
        <pt x="431" y="512" on="1"/>
        <pt x="469" y="384" on="1"/>
        <pt x="433" y="384" on="1"/>
        <pt x="408" y="470" on="1"/>
        <pt x="398" y="470" on="1"/>
        <pt x="337" y="384" on="1"/>
        <pt x="299" y="384" on="1"/>
      </contour>
    </TTGlyph>
    <TTGlyph name="emoji.mouth" xMin="3" yMin="130" xMax="454" yMax="256">
      <contour>
        <pt x="54" y="130" on="0"/>
        <pt x="3" y="179" on="0"/>
        <pt x="3" y="220" on="1"/>
        <pt x="3" y="236" on="0"/>
        <pt x="6" y="252" on="1"/>
        <pt x="6" y="256" on="1"/>
        <pt x="70" y="256" on="1"/>
        <pt x="69" y="248" on="1"/>
        <pt x="66" y="235" on="0"/>
        <pt x="66" y="224" on="1"/>
        <pt x="66" y="207" on="0"/>
        <pt x="85" y="190" on="0"/>
        <pt x="107" y="190" on="1"/>
        <pt x="323" y="190" on="1"/>
        <pt x="377" y="190" on="0"/>
        <pt x="390" y="254" on="1"/>
        <pt x="390" y="256" on="1"/>
        <pt x="454" y="256" on="1"/>
        <pt x="452" y="246" on="1"/>
        <pt x="441" y="191" on="0"/>
        <pt x="371" y="130" on="0"/>
        <pt x="316" y="130" on="1"/>
        <pt x="100" y="130" on="1"/>
      </contour>
    </TTGlyph>
    <TTGlyph name="emoji.mouth.grinning" xMin="-1" yMin="76" xMax="442" yMax="244">
      <contour>
        <pt x="44" y="76" on="0"/>
        <pt x="-1" y="118" on="0"/>
        <pt x="-1" y="156" on="1"/>
        <pt x="-1" y="171" on="0"/>
        <pt x="2" y="187" on="1"/>
        <pt x="14" y="244" on="1"/>
        <pt x="442" y="244" on="1"/>
        <pt x="430" y="183" on="1"/>
        <pt x="420" y="131" on="0"/>
        <pt x="356" y="76" on="0"/>
        <pt x="304" y="76" on="1"/>
        <pt x="88" y="76" on="1"/>
      </contour>
      <contour>
        <pt x="43" y="172" on="0"/>
        <pt x="43" y="159" on="1"/>
        <pt x="43" y="116" on="0"/>
        <pt x="92" y="116" on="1"/>
        <pt x="117" y="116" on="1"/>
        <pt x="134" y="204" on="1"/>
        <pt x="50" y="204" on="1"/>
        <pt x="46" y="185" on="1"/>
      </contour>
      <contour>
        <pt x="245" y="116" on="1"/>
        <pt x="262" y="204" on="1"/>
        <pt x="178" y="204" on="1"/>
        <pt x="161" y="116" on="1"/>
      </contour>
      <contour>
        <pt x="308" y="116" on="1"/>
        <pt x="340" y="116" on="0"/>
        <pt x="380" y="155" on="0"/>
        <pt x="387" y="189" on="1"/>
        <pt x="390" y="204" on="1"/>
        <pt x="306" y="204" on="1"/>
        <pt x="289" y="116" on="1"/>
      </contour>
    </TTGlyph>
    <TTGlyph name="endash" xMin="104" yMin="266" xMax="369" yMax="310">
      <component glyphName="hyphen" x="0" y="0" flags="0x400"/>
    </TTGlyph>
    <TTGlyph name="eng" xMin="21" yMin="-197" xMax="403" yMax="452">
      <contour>
        <pt x="95" y="370" on="1"/>
        <pt x="109" y="448" on="1"/>
        <pt x="152" y="448" on="1"/>
        <pt x="143" y="382" on="1"/>
        <pt x="181" y="413" on="0"/>
        <pt x="265" y="452" on="0"/>
        <pt x="303" y="452" on="1"/>
        <pt x="348" y="452" on="0"/>
        <pt x="403" y="406" on="0"/>
        <pt x="403" y="354" on="1"/>
        <pt x="403" y="337" on="0"/>
        <pt x="398" y="307" on="1"/>
        <pt x="336" y="-7" on="1"/>
        <pt x="322" y="-80" on="0"/>
        <pt x="258" y="-167" on="0"/>
        <pt x="187" y="-197" on="1"/>
        <pt x="172" y="-156" on="1"/>
        <pt x="222" y="-135" on="0"/>
        <pt x="276" y="-69" on="0"/>
        <pt x="287" y="-11" on="1"/>
        <pt x="350" y="307" on="1"/>
        <pt x="355" y="330" on="0"/>
        <pt x="355" y="352" on="1"/>
        <pt x="355" y="382" on="0"/>
        <pt x="325" y="408" on="0"/>
        <pt x="292" y="408" on="1"/>
        <pt x="255" y="408" on="0"/>
        <pt x="180" y="371" on="0"/>
        <pt x="136" y="336" on="1"/>
        <pt x="69" y="0" on="1"/>
        <pt x="21" y="0" on="1"/>
      </contour>
    </TTGlyph>
    <TTGlyph name="eogonek" xMin="47" yMin="-197" xMax="401" yMax="461">
      <component glyphName="e" x="0" y="0" flags="0x400"/>
      <component glyphName="uni0328" x="-33" y="0" flags="0x400"/>
    </TTGlyph>
    <TTGlyph name="epsilon" xMin="34" yMin="-7" xMax="400" yMax="455">
      <contour>
        <pt x="107" y="-7" on="0"/>
        <pt x="34" y="49" on="0"/>
        <pt x="34" y="95" on="1"/>
        <pt x="34" y="108" on="0"/>
        <pt x="37" y="121" on="1"/>
        <pt x="46" y="162" on="0"/>
        <pt x="99" y="221" on="0"/>
        <pt x="146" y="233" on="1"/>
        <pt x="116" y="244" on="0"/>
        <pt x="84" y="286" on="0"/>
        <pt x="84" y="314" on="1"/>
        <pt x="84" y="328" on="0"/>
        <pt x="86" y="336" on="1"/>
        <pt x="96" y="387" on="0"/>
        <pt x="185" y="455" on="0"/>
        <pt x="270" y="455" on="1"/>
        <pt x="341" y="455" on="0"/>
        <pt x="400" y="433" on="1"/>
        <pt x="386" y="396" on="1"/>
        <pt x="338" y="411" on="0"/>
        <pt x="269" y="411" on="1"/>
        <pt x="208" y="411" on="0"/>
        <pt x="143" y="367" on="0"/>
        <pt x="136" y="330" on="1"/>
        <pt x="134" y="318" on="0"/>
        <pt x="134" y="314" on="1"/>
        <pt x="134" y="254" on="0"/>
        <pt x="234" y="254" on="1"/>
        <pt x="322" y="254" on="1"/>
        <pt x="313" y="210" on="1"/>
        <pt x="229" y="210" on="1"/>
        <pt x="156" y="210" on="0"/>
        <pt x="86" y="148" on="0"/>
        <pt x="86" y="101" on="1"/>
        <pt x="86" y="69" on="0"/>
        <pt x="137" y="37" on="0"/>
        <pt x="194" y="37" on="1"/>
        <pt x="255" y="37" on="0"/>
        <pt x="324" y="55" on="1"/>
        <pt x="329" y="14" on="1"/>
        <pt x="265" y="-7" on="0"/>
        <pt x="185" y="-7" on="1"/>
      </contour>
    </TTGlyph>
    <TTGlyph name="epsilontonos" xMin="34" yMin="-7" xMax="400" yMax="704">
      <component glyphName="epsilon" x="0" y="0" flags="0x400"/>
      <component glyphName="tonos" x="0" y="0" flags="0x400"/>
    </TTGlyph>
    <TTGlyph name="equal" xMin="26" yMin="193" xMax="448" yMax="383">
      <contour>
        <pt x="26" y="193" on="1"/>
        <pt x="34" y="233" on="1"/>
        <pt x="418" y="233" on="1"/>
        <pt x="410" y="193" on="1"/>
      </contour>
      <contour>
        <pt x="64" y="383" on="1"/>
        <pt x="448" y="383" on="1"/>
        <pt x="440" y="343" on="1"/>
        <pt x="56" y="343" on="1"/>
      </contour>
    </TTGlyph>
    <TTGlyph name="equivalence" xMin="15" yMin="138" xMax="459" yMax="438">
      <contour>
        <pt x="15" y="138" on="1"/>
        <pt x="23" y="178" on="1"/>
        <pt x="407" y="178" on="1"/>
        <pt x="399" y="138" on="1"/>
      </contour>
      <contour>
        <pt x="49" y="308" on="1"/>
        <pt x="433" y="308" on="1"/>
        <pt x="425" y="268" on="1"/>
        <pt x="41" y="268" on="1"/>
      </contour>
      <contour>
        <pt x="75" y="438" on="1"/>
        <pt x="459" y="438" on="1"/>
        <pt x="451" y="398" on="1"/>
        <pt x="67" y="398" on="1"/>
      </contour>
    </TTGlyph>
    <TTGlyph name="estimated" xMin="52" yMin="-13" xMax="397" yMax="461">
      <contour>
        <pt x="247" y="-13" on="0"/>
        <pt x="194" y="-13" on="1"/>
        <pt x="119" y="-13" on="0"/>
        <pt x="52" y="72" on="0"/>
        <pt x="52" y="144" on="1"/>
        <pt x="52" y="185" on="0"/>
        <pt x="61" y="228" on="1"/>
        <pt x="81" y="330" on="0"/>
        <pt x="189" y="461" on="0"/>
        <pt x="273" y="461" on="1"/>
        <pt x="397" y="461" on="0"/>
        <pt x="397" y="314" on="1"/>
        <pt x="397" y="273" on="0"/>
        <pt x="388" y="223" on="1"/>
        <pt x="384" y="202" on="1"/>
        <pt x="383" y="202" on="1"/>
        <pt x="149" y="202" on="1"/>
        <pt x="137" y="137" on="0"/>
        <pt x="137" y="107" on="1"/>
        <pt x="137" y="67" on="0"/>
        <pt x="169" y="31" on="0"/>
        <pt x="207" y="31" on="1"/>
        <pt x="251" y="31" on="0"/>
        <pt x="302" y="45" on="1"/>
        <pt x="309" y="4" on="1"/>
      </contour>
      <contour>
        <pt x="298" y="246" on="1"/>
        <pt x="312" y="318" on="0"/>
        <pt x="312" y="355" on="1"/>
        <pt x="312" y="387" on="0"/>
        <pt x="291" y="417" on="0"/>
        <pt x="267" y="417" on="1"/>
        <pt x="226" y="417" on="0"/>
        <pt x="178" y="339" on="0"/>
        <pt x="158" y="246" on="1"/>
      </contour>
    </TTGlyph>
    <TTGlyph name="eta" xMin="21" yMin="-192" xMax="403" yMax="452">
      <contour>
        <pt x="95" y="370" on="1"/>
        <pt x="109" y="448" on="1"/>
        <pt x="152" y="448" on="1"/>
        <pt x="143" y="382" on="1"/>
        <pt x="181" y="413" on="0"/>
        <pt x="265" y="452" on="0"/>
        <pt x="303" y="452" on="1"/>
        <pt x="348" y="452" on="0"/>
        <pt x="403" y="406" on="0"/>
        <pt x="403" y="354" on="1"/>
        <pt x="403" y="337" on="0"/>
        <pt x="398" y="307" on="1"/>
        <pt x="299" y="-192" on="1"/>
        <pt x="251" y="-192" on="1"/>
        <pt x="350" y="307" on="1"/>
        <pt x="355" y="335" on="0"/>
        <pt x="355" y="351" on="1"/>
        <pt x="355" y="382" on="0"/>
        <pt x="325" y="408" on="0"/>
        <pt x="292" y="408" on="1"/>
        <pt x="255" y="408" on="0"/>
        <pt x="180" y="371" on="0"/>
        <pt x="136" y="336" on="1"/>
        <pt x="69" y="0" on="1"/>
        <pt x="21" y="0" on="1"/>
      </contour>
    </TTGlyph>
    <TTGlyph name="etatonos" xMin="21" yMin="-192" xMax="403" yMax="704">
      <component glyphName="eta" x="0" y="0" flags="0x400"/>
      <component glyphName="tonos" x="0" y="0" flags="0x400"/>
    </TTGlyph>
    <TTGlyph name="eth" xMin="43" yMin="-8" xMax="409" yMax="647">
      <contour>
        <pt x="289" y="616" on="0"/>
        <pt x="317" y="584" on="1"/>
        <pt x="386" y="626" on="1"/>
        <pt x="405" y="596" on="1"/>
        <pt x="340" y="556" on="1"/>
        <pt x="409" y="464" on="0"/>
        <pt x="409" y="344" on="1"/>
        <pt x="409" y="303" on="0"/>
        <pt x="399" y="248" on="1"/>
        <pt x="374" y="122" on="0"/>
        <pt x="260" y="-8" on="0"/>
        <pt x="178" y="-8" on="1"/>
        <pt x="114" y="-8" on="0"/>
        <pt x="43" y="72" on="0"/>
        <pt x="43" y="142" on="1"/>
        <pt x="43" y="175" on="0"/>
        <pt x="50" y="207" on="1"/>
        <pt x="70" y="305" on="0"/>
        <pt x="178" y="414" on="0"/>
        <pt x="250" y="414" on="1"/>
        <pt x="314" y="414" on="0"/>
        <pt x="361" y="376" on="1"/>
        <pt x="356" y="463" on="0"/>
        <pt x="304" y="534" on="1"/>
        <pt x="216" y="480" on="1"/>
        <pt x="197" y="510" on="1"/>
        <pt x="281" y="561" on="1"/>
        <pt x="255" y="590" on="0"/>
        <pt x="222" y="616" on="1"/>
        <pt x="249" y="647" on="1"/>
      </contour>
      <contour>
        <pt x="91" y="161" on="0"/>
        <pt x="91" y="138" on="1"/>
        <pt x="91" y="89" on="0"/>
        <pt x="136" y="36" on="0"/>
        <pt x="183" y="36" on="1"/>
        <pt x="248" y="36" on="0"/>
        <pt x="328" y="143" on="0"/>
        <pt x="350" y="249" on="1"/>
        <pt x="360" y="295" on="0"/>
        <pt x="361" y="332" on="1"/>
        <pt x="339" y="349" on="0"/>
        <pt x="279" y="370" on="0"/>
        <pt x="249" y="370" on="1"/>
        <pt x="188" y="370" on="0"/>
        <pt x="113" y="274" on="0"/>
        <pt x="98" y="199" on="1"/>
      </contour>
    </TTGlyph>
    <TTGlyph name="exclam" xMin="135" yMin="-10" xMax="341" yMax="640">
      <contour>
        <pt x="273" y="640" on="1"/>
        <pt x="341" y="640" on="1"/>
        <pt x="239" y="192" on="1"/>
        <pt x="197" y="192" on="1"/>
      </contour>
      <contour>
        <pt x="135" y="61" on="0"/>
        <pt x="170" y="94" on="0"/>
        <pt x="195" y="94" on="1"/>
        <pt x="214" y="94" on="0"/>
        <pt x="240" y="71" on="0"/>
        <pt x="240" y="51" on="1"/>
        <pt x="240" y="42" on="0"/>
        <pt x="239" y="38" on="1"/>
        <pt x="234" y="15" on="0"/>
        <pt x="202" y="-10" on="0"/>
        <pt x="181" y="-10" on="1"/>
        <pt x="161" y="-10" on="0"/>
        <pt x="135" y="13" on="0"/>
        <pt x="135" y="33" on="1"/>
      </contour>
    </TTGlyph>
    <TTGlyph name="exclamdbl" xMin="45" yMin="-10" xMax="431" yMax="640">
      <component glyphName="exclam" x="-90" y="0" flags="0x400"/>
      <component glyphName="exclam" x="90" y="0" flags="0x400"/>
    </TTGlyph>
    <TTGlyph name="exclamdown" xMin="107" yMin="-192" xMax="313" yMax="458">
      <contour>
        <pt x="175" y="-192" on="1"/>
        <pt x="107" y="-192" on="1"/>
        <pt x="209" y="256" on="1"/>
        <pt x="251" y="256" on="1"/>
      </contour>
      <contour>
        <pt x="214" y="433" on="0"/>
        <pt x="246" y="458" on="0"/>
        <pt x="267" y="458" on="1"/>
        <pt x="287" y="458" on="0"/>
        <pt x="313" y="435" on="0"/>
        <pt x="313" y="415" on="1"/>
        <pt x="313" y="387" on="0"/>
        <pt x="278" y="354" on="0"/>
        <pt x="253" y="354" on="1"/>
        <pt x="234" y="354" on="0"/>
        <pt x="208" y="377" on="0"/>
        <pt x="208" y="397" on="1"/>
        <pt x="208" y="406" on="0"/>
        <pt x="209" y="410" on="1"/>
      </contour>
    </TTGlyph>
    <TTGlyph name="f" xMin="23" yMin="-195" xMax="450" yMax="648">
      <contour>
        <pt x="53" y="-137" on="0"/>
        <pt x="90" y="-69" on="0"/>
        <pt x="100" y="-10" on="1"/>
        <pt x="173" y="405" on="1"/>
        <pt x="96" y="408" on="1"/>
        <pt x="104" y="448" on="1"/>
        <pt x="181" y="448" on="1"/>
        <pt x="190" y="502" on="1"/>
        <pt x="202" y="576" on="0"/>
        <pt x="287" y="648" on="0"/>
        <pt x="345" y="648" on="1"/>
        <pt x="394" y="648" on="0"/>
        <pt x="450" y="635" on="1"/>
        <pt x="436" y="593" on="1"/>
        <pt x="389" y="604" on="0"/>
        <pt x="347" y="604" on="1"/>
        <pt x="300" y="604" on="0"/>
        <pt x="245" y="546" on="0"/>
        <pt x="238" y="503" on="1"/>
        <pt x="228" y="448" on="1"/>
        <pt x="383" y="448" on="1"/>
        <pt x="374" y="406" on="1"/>
        <pt x="221" y="406" on="1"/>
        <pt x="147" y="-14" on="1"/>
        <pt x="135" y="-84" on="0"/>
        <pt x="95" y="-157" on="0"/>
        <pt x="56" y="-195" on="1"/>
        <pt x="23" y="-170" on="1"/>
      </contour>
    </TTGlyph>
    <TTGlyph name="f.italic" xMin="89" yMin="0" xMax="450" yMax="648">
      <contour>
        <pt x="96" y="408" on="1"/>
        <pt x="104" y="448" on="1"/>
        <pt x="179" y="448" on="1"/>
        <pt x="190" y="506" on="1"/>
        <pt x="204" y="577" on="0"/>
        <pt x="285" y="648" on="0"/>
        <pt x="340" y="648" on="1"/>
        <pt x="394" y="648" on="0"/>
        <pt x="450" y="635" on="1"/>
        <pt x="436" y="593" on="1"/>
        <pt x="389" y="604" on="0"/>
        <pt x="347" y="604" on="1"/>
        <pt x="300" y="604" on="0"/>
        <pt x="247" y="549" on="0"/>
        <pt x="239" y="509" on="1"/>
        <pt x="227" y="448" on="1"/>
        <pt x="383" y="448" on="1"/>
        <pt x="374" y="406" on="1"/>
        <pt x="218" y="406" on="1"/>
        <pt x="137" y="0" on="1"/>
        <pt x="89" y="0" on="1"/>
        <pt x="170" y="405" on="1"/>
      </contour>
    </TTGlyph>
    <TTGlyph name="female" xMin="75" yMin="-104" xMax="398" yMax="446">
      <contour>
        <pt x="200" y="-6" on="1"/>
        <pt x="104" y="-6" on="1"/>
        <pt x="104" y="38" on="1"/>
        <pt x="200" y="38" on="1"/>
        <pt x="200" y="130" on="1"/>
        <pt x="144" y="132" on="0"/>
        <pt x="75" y="205" on="0"/>
        <pt x="75" y="260" on="1"/>
        <pt x="75" y="276" on="0"/>
        <pt x="78" y="292" on="1"/>
        <pt x="92" y="358" on="0"/>
        <pt x="198" y="446" on="0"/>
        <pt x="265" y="446" on="1"/>
        <pt x="325" y="446" on="0"/>
        <pt x="398" y="374" on="0"/>
        <pt x="398" y="317" on="1"/>
        <pt x="398" y="301" on="0"/>
        <pt x="395" y="284" on="1"/>
        <pt x="384" y="228" on="0"/>
        <pt x="303" y="147" on="0"/>
        <pt x="248" y="134" on="1"/>
        <pt x="248" y="38" on="1"/>
        <pt x="344" y="38" on="1"/>
        <pt x="344" y="-6" on="1"/>
        <pt x="248" y="-6" on="1"/>
        <pt x="248" y="-104" on="1"/>
        <pt x="200" y="-104" on="1"/>
      </contour>
      <contour>
        <pt x="122" y="222" on="0"/>
        <pt x="171" y="174" on="0"/>
        <pt x="210" y="174" on="1"/>
        <pt x="246" y="174" on="0"/>
        <pt x="311" y="213" on="0"/>
        <pt x="351" y="278" on="0"/>
        <pt x="351" y="316" on="1"/>
        <pt x="351" y="354" on="0"/>
        <pt x="302" y="402" on="0"/>
        <pt x="263" y="402" on="1"/>
        <pt x="227" y="402" on="0"/>
        <pt x="162" y="363" on="0"/>
        <pt x="122" y="298" on="0"/>
        <pt x="122" y="260" on="1"/>
      </contour>
    </TTGlyph>
    <TTGlyph name="filledbox" xMin="43" yMin="128" xMax="431" yMax="448">
      <contour>
        <pt x="367" y="128" on="1"/>
        <pt x="43" y="128" on="1"/>
        <pt x="107" y="448" on="1"/>
        <pt x="431" y="448" on="1"/>
      </contour>
    </TTGlyph>
    <TTGlyph name="filledrect" xMin="9" yMin="192" xMax="464" yMax="384">
      <contour>
        <pt x="425" y="192" on="1"/>
        <pt x="9" y="192" on="1"/>
        <pt x="48" y="384" on="1"/>
        <pt x="464" y="384" on="1"/>
      </contour>
    </TTGlyph>
    <TTGlyph name="five" xMin="21" yMin="0" xMax="438" yMax="576">
      <contour>
        <pt x="78" y="52" on="0"/>
        <pt x="138" y="44" on="0"/>
        <pt x="170" y="44" on="1"/>
        <pt x="239" y="44" on="0"/>
        <pt x="314" y="102" on="0"/>
        <pt x="326" y="165" on="1"/>
        <pt x="330" y="191" on="0"/>
        <pt x="330" y="199" on="1"/>
        <pt x="330" y="237" on="0"/>
        <pt x="282" y="271" on="0"/>
        <pt x="230" y="271" on="1"/>
        <pt x="199" y="271" on="0"/>
        <pt x="141" y="264" on="0"/>
        <pt x="96" y="256" on="1"/>
        <pt x="84" y="271" on="1"/>
        <pt x="157" y="576" on="1"/>
        <pt x="438" y="576" on="1"/>
        <pt x="430" y="532" on="1"/>
        <pt x="195" y="532" on="1"/>
        <pt x="141" y="304" on="1"/>
        <pt x="200" y="315" on="0"/>
        <pt x="236" y="315" on="1"/>
        <pt x="302" y="315" on="0"/>
        <pt x="381" y="262" on="0"/>
        <pt x="381" y="202" on="1"/>
        <pt x="381" y="184" on="0"/>
        <pt x="376" y="156" on="1"/>
        <pt x="360" y="77" on="0"/>
        <pt x="250" y="0" on="0"/>
        <pt x="169" y="0" on="1"/>
        <pt x="128" y="0" on="0"/>
        <pt x="59" y="10" on="0"/>
        <pt x="21" y="21" on="1"/>
        <pt x="35" y="62" on="1"/>
      </contour>
    </TTGlyph>
    <TTGlyph name="five.dnom" xMin="101" yMin="-198" xMax="353" yMax="128">
      <component glyphName="uni2075" x="26" y="-512" flags="0x404"/>
    </TTGlyph>
    <TTGlyph name="five.numr" xMin="75" yMin="314" xMax="327" yMax="640">
      <component glyphName="uni2075" x="0" y="0" flags="0x400"/>
    </TTGlyph>
</ttFont>
